<?xml version="1.0" encoding="utf-8"?>
<!-- Generator: Adobe Illustrator 22.0.1, SVG Export Plug-In . SVG Version: 6.00 Build 0)  -->
<svg version="1.1" id="레이어_1" xmlns="http://www.w3.org/2000/svg" xmlns:xlink="http://www.w3.org/1999/xlink" x="0px"
	 y="0px" viewBox="0 0 250 60" style="enable-background:new 0 0 250 60;" xml:space="preserve">
<style type="text/css">
	.st0{fill:#C1C1C1;}
</style>
<g>
	<path class="st0" d="M46.3,46V33.9h5.2c0.6,0,1.1,0.1,1.6,0.4c0.5,0.2,0.9,0.6,1.3,1c0.4,0.4,0.6,0.8,0.8,1.3s0.3,1,0.3,1.5
		c0,0.5-0.1,1.1-0.3,1.6s-0.5,1-0.8,1.3c-0.3,0.4-0.8,0.7-1.3,0.9c-0.5,0.2-1,0.3-1.6,0.3h-2V46H46.3z M49.6,39.4h1.8
		c0.2,0,0.4-0.1,0.6-0.3s0.3-0.5,0.3-1c0-0.5-0.1-0.8-0.3-1s-0.4-0.3-0.6-0.3h-1.7V39.4z"/>
	<path class="st0" d="M62.6,33.9h3L69.9,46h-3.4l-0.7-2.4h-3.2L61.8,46h-3.4L62.6,33.9z M65.2,41.5l-1.1-3.8L63,41.5H65.2z"/>
	<path class="st0" d="M74.1,46V33.9h5.6c0.6,0,1.1,0.1,1.6,0.4c0.5,0.2,0.9,0.6,1.3,1c0.4,0.4,0.6,0.8,0.8,1.3
		c0.2,0.5,0.3,1,0.3,1.5c0,0.7-0.2,1.4-0.5,2c-0.3,0.6-0.7,1.1-1.3,1.5l2.6,4.4h-3.8l-2.1-3.7h-1.2V46H74.1z M77.5,39.4h2.1
		c0.2,0,0.4-0.1,0.6-0.3s0.3-0.5,0.3-1c0-0.4-0.1-0.7-0.3-1s-0.4-0.3-0.6-0.3h-2V39.4z"/>
	<path class="st0" d="M89.1,46V33.9h3.3v4.6l3.7-4.6h3.8l-4.4,5.4l4.7,6.7h-3.8l-3-4.4l-0.9,1V46H89.1z"/>
	<path class="st0" d="M104.3,42.8c0,0,0.1,0.1,0.2,0.1s0.3,0.1,0.4,0.2c0.2,0.1,0.4,0.1,0.6,0.2c0.2,0,0.5,0.1,0.7,0.1
		c0.4,0,0.6-0.1,0.9-0.2c0.2-0.1,0.4-0.3,0.5-0.6s0.2-0.6,0.2-1s0.1-0.9,0.1-1.5v-6.2h3.3v6.2c0,0.9-0.1,1.8-0.2,2.5
		c-0.1,0.8-0.3,1.4-0.7,1.9s-0.8,0.9-1.5,1.2c-0.7,0.3-1.5,0.4-2.6,0.4c-1,0-1.9-0.2-2.6-0.8L104.3,42.8z"/>
	<path class="st0" d="M119.3,33.9h3l4.2,12.1h-3.4l-0.7-2.4h-3.2l-0.7,2.4h-3.4L119.3,33.9z M121.9,41.5l-1.1-3.8l-1.1,3.8H121.9z"
		/>
	<path class="st0" d="M134.1,40.1V46h-3.3V33.9h2.6l4.9,6.2v-6.2h3.3V46h-2.6L134.1,40.1z"/>
	<path class="st0" d="M147.1,46V33.9h4.7c1,0,1.9,0.2,2.6,0.5s1.4,0.8,1.9,1.3c0.5,0.5,0.9,1.2,1.2,1.9c0.3,0.7,0.4,1.5,0.4,2.3
		c0,0.9-0.1,1.8-0.4,2.5c-0.3,0.7-0.7,1.4-1.2,1.9s-1.2,0.9-1.9,1.2s-1.6,0.4-2.5,0.4H147.1z M154.5,40c0-0.5-0.1-0.9-0.2-1.3
		c-0.1-0.4-0.3-0.7-0.5-1c-0.2-0.3-0.5-0.5-0.9-0.6c-0.3-0.2-0.7-0.2-1.1-0.2h-1.3v6.3h1.3c0.4,0,0.8-0.1,1.2-0.2s0.6-0.4,0.9-0.7
		c0.2-0.3,0.4-0.6,0.5-1C154.4,40.8,154.5,40.4,154.5,40z"/>
</g>
</svg>
