<?xml version="1.0" encoding="utf-8"?>
<!-- Generator: Adobe Illustrator 22.0.1, SVG Export Plug-In . SVG Version: 6.00 Build 0)  -->
<svg version="1.1" id="레이어_1" xmlns="http://www.w3.org/2000/svg" xmlns:xlink="http://www.w3.org/1999/xlink" x="0px"
	 y="0px" viewBox="0 0 757.3 441" style="enable-background:new 0 0 757.3 441;" xml:space="preserve">
<style type="text/css">
	.st0{fill:#333333;}
	.st1{fill:#FFCC00;}
	.st2{fill:#FFFFFF;}
</style>
<g>
	<path class="st0" d="M249.6,5.1l-19.3,10.2l-17.7,9.3L199,13.9l-11.8-9.3l-9.3,11.8L167.2,30l-19.3-5l-21.2-5.4l2.5,21.7l4.3,36.8
		l0.4,3.4l-83.7,20.9c-11.3,2.8-20,11.6-22.7,23l0,0l0,0L20,158c-1.3,5.9,0,11.9,3.8,16.6c1.5,1.9,3.4,3.5,5.4,4.7
		c0.5,0.8,1,1.6,1.6,2.3c3.4,4.2,8.2,6.8,13.4,7.3c-10.6,14.7-18.8,32.3-23.4,50.9c-7.6,30.6-4.4,60,9.1,82.6
		c3.5,5.9,8,11.2,13.2,15.6c2.8,3.3,6,6.3,9.4,8.9c-5.2,0.7-12.6,2.1-20,4.3C17,356,8,363,5,372.7c-2.2,7.1-2,18,11.5,29.5
		c0.3,0.2,0.5,0.4,0.8,0.7c1.7,2.1,3.7,4.2,6.2,6.3c14.9,12.7,25.1,20.5,46.5,20.5c12.1,0,27.5-2.4,53.6-7
		c114.1-20.4,244.7-41.3,360.6-58c-0.1,5,1.7,10.1,5.2,13.9c0.2,0.3,0.5,0.5,0.7,0.8c-0.1,0.2-0.2,0.4-0.3,0.5l0,0
		c-0.2,0.3-0.6,1-0.9,1.4c-1.4,2-3.2,4.7-4.6,7.8l-0.1,0.2l-0.1,0.2l-0.1,0.3c-0.9,2.1-3.4,8.4-0.7,15.7c2.8,7.5,10,12.3,18.3,12.3
		c0.6,0,1.1,0,1.7-0.1l0.2,0l0.2,0c3.5-0.3,6.4-1.5,8.7-3.1c0.5,3.3,1.8,7.4,4.9,11c4.2,4.9,10.7,7.6,18.2,7.6
		c6.9,0,12.8-2,17.6-3.5c1.2-0.4,2.3-0.8,3.3-1.1l0.1,0l0.1,0c0.8-0.2,1.5-0.4,2.3-0.7l0.1,0c3.6-1,8-2.3,12.5-4.8l0.1-0.1l0.1-0.1
		c1.1-0.6,2.2-1.4,3.1-2.3c2.9,3.6,7.2,6.1,12.2,6.8c0.9,0.1,1.8,0.2,2.7,0.2c6.8,0,12.9-3.3,16.4-8.5c3.5,5.2,9.2,8.4,15.7,8.4
		c7.2,0,13.5-4,16.7-9.8c0.2,0,0.4,0,0.6,0c5.6,0,11.7-2.2,15.7-7.7c4.6,4.6,11,7.3,18.5,7.3c3.1,0,6-0.2,9.9-1.1l0.2,0l0.2-0.1
		c2.6-0.7,8.2-2.8,10.9-4.1c0.3-0.1,0.6-0.3,0.8-0.4c0.5,3.1,1.1,6,1.9,8.4l0.1,0.2l0.1,0.2l0,0.1l0.1,0.3l0,0
		c0.1,0.3,0.2,0.6,0.4,1.1c2.9,9.1,8.5,11.8,10.3,12.7c2.6,1.3,5.4,1.9,8.2,1.9c2.3,0,4.6-0.4,6.8-1.2c4.4-1.6,7.9-4.8,10-8.9
		c2-4,2.4-8.6,1.4-13.5l0-0.1l0-0.1c-0.2-1-0.4-1.8-0.6-2.4l-0.2-0.9l0-0.2l-0.1-0.2c-0.5-1.8-0.9-8.3-0.7-14.3
		c0.1-2.8,0.4-5.3,0.8-7.6c0.7-3.3,1.2-6.3,1.6-8.9c0.3-1.6,0.5-3.2,0.8-4.6c0.1-0.3,0.2-0.6,0.3-0.9c0.6-1.6,1.1-3,1.4-4.2
		c0.1-0.2,0.2-0.5,0.3-0.7c0.9-2.1,2.6-6.1,2.6-11.3c0-10-7.1-17.7-17.4-18.9c-0.9-0.1-1.9-0.2-2.8-0.2c-7.6,0-14,3.9-16.9,10.1
		c-0.4,0.9-1.2,2.6-1.6,3.6l-0.1,0.2l-0.1,0.2l-0.2,0.6c0,0,0,0,0,0c-0.7,0.3-1.4,0.7-2.1,1c-2.7-4.1-6.9-7.1-12.3-8.3L687,345
		l-0.5-0.1c-2.6-0.4-3.9-0.5-4.9-0.5c-0.8,0-1.5,0-2.2,0c-6.7,0-12.3,1.1-19.7,4c-0.5-0.4-1-0.7-1.5-1c-3.2-1.9-6.9-3-10.7-3
		c-3.3,0-6.6,0.8-9.4,2.3l-0.2,0.1l-0.2,0.1c-3.5,2-6.2,5-8.1,8.9c-1.3-0.2-2.6-0.4-4-0.4c-1.4,0-2.8,0.1-4.2,0.4
		c-3.1,0.7-6,2.1-8.3,4.1c-0.3-0.3-0.5-0.6-0.8-0.9c-4.4-4.3-10.3-6.5-17.6-6.5c0,0,0,0,0,0c-0.8,0-1.7,0-2.6,0.1
		c-1.9,0.1-4.9,0.6-8.2,1.5c-1.4-1.1-2.9-1.9-4.5-2.6c57.7-7.7,108.4-13.8,146.9-17.5c21.7-2.1,25.5-15.7,26.2-19.9
		c1.1-6.8-1.4-15.6-10.6-22c-2.3-3.4-5.7-6.6-10.6-9.3c-5.4-5.8-9.3-9-19.4-12.3c-3.1-1-6.7-1.5-10.9-1.5c-6,0-12.2,1-16.8,1.8
		c-0.8,0.1-1.5,0.3-2.2,0.4l-49,5.9c16.8-10.3,30.1-22.6,38.9-35.9c18.1-26.7,26.2-53.4,24.2-79.2l0-0.1l0-0.1
		c-1.9-20.3-10.3-40.4-24.1-58.1c-4.3-5.5-9.1-10.7-14.3-15.5c-11.9-12.8-26.4-23.5-42.6-31.3c-24.1-11.6-49.8-17.7-74.5-17.7h0
		c-6.2,0-12.4,0.4-18.4,1.2l-0.1,0l-0.1,0c-14,2-24,7.7-29.8,17.1c-5.5,9-5.9,19.3-5.5,28.2l0.3,7.5c2,49.3,4.2,104.7,4.4,161.9
		c-1.3-1.3-2.6-2.5-4.2-3.8c-2.5-3.2-4.5-5-7.6-7.5c-0.9-0.7-1.8-1.4-3-2.4c-0.1-0.1-0.2-0.2-0.4-0.3c-0.4-0.4-0.7-0.7-1.1-1.1
		c-0.8-0.8-1.7-1.7-2.5-2.5c-3.1-3.1-6-6.1-9-8.2c-4.9-3.3-10.5-5.1-16.3-5.1c-9.1,0-18,4.2-25.2,11.8l-2.2-150.4l0-0.2l0-0.2
		c0-0.7-0.1-1.6-0.1-2.6c-0.2-6.1-0.5-16.4-2.5-25.7c-1.4-6.4-3.4-11.4-6.2-15.5c-2-2.9-4.4-5.2-7-7c-3-4.3-6.8-7.4-11.1-9.2
		c-1.4-1.6-3-3.1-4.9-4.5c-3.8-5.1-9.8-10.9-19.4-10.9h0c-2.5,0-5,0.4-7.5,1.3l0,0l0,0c-5.4,1.9-14.9,7.3-17.4,22.9
		c-1.1,6.8-0.6,13.8-0.3,19c0.1,1.5,0.2,3.1,0.2,3.9c0,25.2,0,50.8-0.1,76.5c-0.1-0.3-0.1-0.5-0.2-0.8c-2.1-7.9-4.6-17-10.4-22.9
		l-2.9-1.5c-1.1-2-2.5-3.9-4.1-5.5l-5.3-2.7c-2-3-4.3-5.6-7.4-7.6c-2.2-3.1-4.7-5.8-8-7.6c-3.8-2-7.7-3.1-11.6-3.1
		c-6,0-11.8,2.5-16.2,7c-4.1,4.2-6.7,9.7-8.3,15.1c-0.6-0.4-1.1-0.8-1.7-1.1c-2.1-3.3-4.8-6.6-8.4-9c-1.7-2.4-3.8-4.7-6.3-6.5
		l12.6-1.5l-1.8-14.9l-4.4-36.8l-2.6-21.7L249.6,5.1z M120,233.8c-0.7,1.9-1.5,4.1-2.4,6.4c-3.4,9.4-8.1,22.2-14.4,32
		c-2.8,4.4-5.5,7.6-8.2,9.8c0-1.1,0-2.2,0-3.4l0,0l0,0c0.2-10.1,8.1-31.2,14.6-42c2.6-4.2,8.9-11.6,16.6-19.6
		C124.1,222.7,122.1,228.3,120,233.8z M613.3,173.2c-1.4,18.6-11.7,32.1-20.1,40.2c-5.5,5.3-12,10-19.1,14
		c-0.3-46.1-1.7-79.6-3.5-114.6c4.4,0.8,11.5,3.2,19.3,8.8l0.1,0l0.1,0c2,1.4,4,3,6,4.7C606.7,138.6,614.6,155.3,613.3,173.2z"/>
	<g>
		<path class="st1" d="M241.7,65.4l-93.3,11l-4.3-36.8l28.8,7.4l16.8-21.3L211,42.5l26.3-13.9L241.7,65.4z M226,42.7l2,17.2l7.6-0.9
			l-2.4-20.5L226,42.7z M217.1,47.2l1.6,13.8l3.6-0.4l-1.8-15.2L217.1,47.2z"/>
		<g>
			<path class="st2" d="M425.6,261.8c-7.2,14.2,15.6,36.9,27.7,37.6c16.5,1,34.9-19.2,24.9-35c-4.5-7.1-5.2-6.6-11.1-11.6
				c-3.4-2.9-8.6-9-11.8-11.2C443,233.2,427,247.9,425.6,261.8z"/>
			<path class="st2" d="M272.2,336c1.7-5.1,1.8-25.2,1.9-30.8l-0.2-73.6l15.5-4c2.4,25.3-1.6,76.9-1.6,76.9c0.1,3.7,2.7,6.8,6.4,7.3
				c2,0.3,8.6-1.2,10.9-1.1c7.2,0.4,11.7-2.8,14.2-12.3s-2.4-71.7,0.3-79.6c0,0,18.8,53.4,33.5,72.8c15.2,20.1,47,9.8,47.8-17.8
				l-2.8-195.1c-0.4-8.9,0.1-43.3-15.4-40.1c-5.4-5.5-8.1-16.4-16.7-13.5c-11.1,3.8-7.3,24.2-7.3,31.6c0,55.9,0,111.8-0.7,167.8
				c-15.1-27.5-24.1-59.6-34.4-89.4c-2-5.9-4.1-17.8-8.3-22.1c0.1,0.1-7.4-1.9-8.1-2.6c-2.3-2.6-6.2-11.1-9-12.6
				c-11.9-6.4-16.4,12.9-16.2,21c0.7,30.3,5.2,53.9,6.2,82.9c-5,1-11.2,2.8-15.1,2c0,0-0.3-40.9-2.1-54.8
				c-1.8-13.9-5.6-26.1-5.6-26.1c-4-8.6-6.8-7.5-13.6-11.5c-2.2-4.7-6.5-15.3-13-13l0,0l0,0c-4.1,1.8-5.5,0.1-9.5-3.1l-5.6-6.6
				c-9.1-15.1-13.7-11.1-29.4-6.7L53.8,117c-5.8,1.4-10.3,6-11.7,11.9l-7.5,32.5c-0.8,3.5,2.6,6.5,5.9,5.3
				c26.6-9.2,113.2-38.9,127.4-42.2c-8.4,38.5-19.8,77.9-33.9,114.7c-6.9,17.9-19.8,62-47.7,61.1c-10.5-0.3-13.7-14.4-13.3-29
				c0.3-13.5,9.5-37.3,16.7-49.4c6.8-11.2,32.7-38.2,51.4-50.6c3.2-2.1,4.6-6.2,3.2-9.8c-1.7-4.2-4.9-6.6-4.9-6.6
				c-3.5-3.2-8.3-6.9-20.5-3.5c-11.7,3.3-26.3,10.5-48.1,29.9C38.4,210.7,17.9,273,42.7,314.7c16.3,27.3,53.2,30.1,79.1,13.8
				c27.5-17.3,40.8-58.1,50-88.2c2.3,3.8,13.4-0.2,13.2,3.8c-0.5,9.5-12.9,43.8-19.7,66c-3,9.9,4.7,19.8,15,19.2
				c6.6-0.4,12.8-1.3,15.2-3.2c8.7-7.3,20.7-64.4,27.7-86.2l0,0c6.7-1.2,13-2,19.8-3c0,15.6-5.1,80.3-3.7,102.3l-180.4,22
				c-13,1.4-57.1,8.8-32.6,29.7c22.9,19.6,26.7,21,87.8,10.1c203.6-36.4,469-76,603.8-89c15.4-1.5,17.2-11.4,4.3-17
				c-5.5-6.1-7-7.7-14.8-10.2c-6.2-2-17.4,0.3-23.3,1.2L272.2,336z M219.4,115.2c-5.5,16.1-8.4,33.6-13.1,50.1
				c-2.6,9-6.6,24.2-9,33.3c-4.4,16.7-0.4,10.3-15.9,13.1c5.3-19.1,10.9-38.2,15.9-57.4c2.5-9.8,4.4-20.2,7.4-29.7
				c3.8-12,3-9.7,16.7-14C220.6,112,220,113.6,219.4,115.2z M241.9,196.8c0.1,1.5,0.2,7.9,0.2,9.4c-3.3,0.5-8.3,0.8-11.8,1.5
				c2.8-9.2,7.6-22,9.9-31.4C241,183.7,241.4,189.4,241.9,196.8z"/>
			<g>
				<path class="st2" d="M533.5,285.3c-13.3,1.6-26.8-3.1-27-15.9c0.2-65.4-2.4-127.4-4.7-184.3c-0.6-15.8,2-26.9,22.4-29.8
					c28.1-3.7,58.3,2.6,84.4,15.2c34.9,16.9,62.1,49.3,65.6,85.8c1.8,23.9-6.9,47.7-21.7,69.7C634.3,253.4,591.5,278,533.5,285.3z
					 M591.6,102.4c-12.1-8.6-24.3-12.1-31.6-11.9c-3.7,0.1-6.9-0.2-12.1,0.5c2.5,49.6,4.5,90.3,4.3,161.2
					c38.8-10.2,73.1-38.7,76.1-78C630.4,145.2,613.5,117.6,591.6,102.4z"/>
			</g>
		</g>
		<g>
			<path class="st2" d="M575.5,369.7l0.1-0.1c0.4-1,0.3-2.2-0.3-3c-0.5-0.8-1.3-1.3-2.2-1.3c-3.4-0.3-6.8,0-9.9,0.8
				c-1.8,0.3-5.1,1.2-8.1,2.2c0.2-1.4,0.4-2.9,0.7-4.4c0.4-3,0.9-6.1,1.6-8.9c0.4-1.5,0.6-3,0.6-4.4c0-2.6-2.1-4.5-5-4.5
				c-0.1,0-3.1,0-3.8,2c-1,2.2-1.6,5.9-1.7,6.6c-0.8,4.6-1.3,8.1-2,12.9l-0.4,2.4c-0.5,3.6-0.6,10.3-0.6,11.1c0,2.4,0.2,7,0.5,9.1
				c0.2,1.9,0.6,3.4,1.1,4.5c0.9,2.2,2.4,3.6,4,3.6c0.1,0,0.2,0,0.2,0c1.3,0,4.3-1.1,4.3-3.5l0-0.5c-0.1-0.4-0.2-1-0.3-1.6
				c-0.1-0.6-0.2-1.3-0.3-1.9c-0.4-3-0.4-8-0.2-12.4c4.9-2.5,8.2-3.4,13.4-5c0.9-0.3,1.8-0.5,2.5-0.7c1.3-0.3,2.4-0.6,3.8-1l0.2-0.1
				l0.2-0.1C574.8,370.8,575.2,370.4,575.5,369.7z"/>
			<path class="st2" d="M528.4,397.9l0.1-0.1c1.4-3-0.7-4.6-1.6-5.2c-0.9-0.7-4.4-3.3-6.1-4.5c-0.2-0.1-0.5-0.4-0.9-0.7
				c-1-0.7-2.6-1.9-3.8-2.9c0.7-1.1,1.3-2,1.9-2.8c0.5-0.7,0.9-1.3,1.2-1.9c0.6-1,1.2-2,1.8-3.1c3-5.1,6.1-10.4,6.1-16.6
				c0-2.1-1.1-5.7-8.7-5.7c-4.5,0-10.5,2.1-14,4.1c-0.6,0.3-3.6,2.2-4.7,4.6c-0.7,1.7-0.4,3.8,0.9,5.1c1.1,1.2,2.7,1.6,4.2,1
				c2.3-0.8,3.7-1.8,4.7-2.5c0.2-0.2,0.4-0.3,0.6-0.4c2.2-1.4,4.8-2.4,6.9-2.7c-0.7,2.7-2.7,5.9-4.4,8.6c-0.5,0.8-0.9,1.5-1.4,2.2
				c-0.8,1.5-2,3.2-3.3,5c-1.6,2.3-3.4,4.9-4.8,7.5c-0.4,0.7-1,1.7-1.8,2.7c-1.1,1.6-2.4,3.5-3.2,5.2l-0.1,0.4
				c-0.5,1.1-1.2,3-0.5,4.8c0.6,1.6,2.2,2.6,4.2,2.6c0.2,0,0.4,0,0.6,0c2.7-0.3,4.4-3.1,5.7-5.1l0.3-0.5c0.4-0.6,1.8-3,2.7-4.5
				c1.5,0.8,3.6,2.2,5.9,3.7c1.1,0.8,2.3,1.6,3.6,2.4c1.6,1.2,3.4,1.7,4.9,1.4C526.7,399.8,527.7,399.1,528.4,397.9z"/>
			<path class="st2" d="M562.7,404.3h-1.6c-4.8,0-8.9,1.3-12.9,2.5c-3.8,1.2-7.4,2.3-11.4,2.3c-0.1,0-0.1,0-0.1,0c0-0.1,0-0.3,0-0.5
				c0-2.4,0.9-4.4,2.2-6.9c0.4-0.7,1-1.5,1.6-2.3c1.2-1.5,2.4-3.1,2.4-4.9c0-2.6-2-4.4-4.8-4.4c-1,0-2.2,0.2-3.2,1.3
				c-3.8,4.6-7.7,12.5-7.7,17.9c0,2.7,0.3,4.9,1.6,6.4c1.7,2,4.7,2.4,6.9,2.4c4.5,0,8.7-1.4,12.8-2.8c1.3-0.4,2.5-0.8,3.8-1.2
				c0.9-0.3,1.7-0.5,2.6-0.8c3.2-0.9,6.4-1.8,9.5-3.5c1.2-0.7,1.4-2.1,1-3.3C565,405.2,564,404.3,562.7,404.3z"/>
			<path class="st2" d="M624.6,370.5c-1,0.2-1.8,0.7-2.1,1.5c-0.3,0.5-0.8,1.5-0.9,1.9c-0.7,2.4-1.3,4-2.1,6.3
				c-4,2.5-8.8,4.8-15.3,7.7c-0.6,0.3-1.2,0.6-1.8,0.9c-0.8,0.4-1.7,0.8-2.5,1.2c0.3-0.9,0.5-1.7,0.8-2.6c1.3-4,2.6-8.1,2.8-12.7
				c0.1-2.1-0.5-3.8-1.7-5.1c-1.7-1.7-4.5-2.4-8.7-2.1c-2.7,0.2-18.2,3.3-18.2,9.1c0,1.3,0.5,3.2,1.8,4.3c0.8,0.7,1.9,0.9,2.9,0.6
				c1.4-0.3,2.4-0.9,3.5-1.5c0.3-0.2,0.7-0.4,1.1-0.7c3.5-2.1,6.6-3.2,9.3-3.2c0.3,0,0.4,0.1,0.5,0.1c0,0,0,0.2,0,0.5l0,0.2
				c0,0.2-0.1,0.5-0.2,0.8c-0.1,0.5-0.2,1-0.3,1.5c-1.7,6.5-3.2,12-5.2,17.7c-1.3,4-2.1,7.1-2.5,10.3c-0.5,3.4,1.6,5,3.5,5.2
				c0.2,0,0.4,0,0.7,0c2,0,4.3-1.2,4.5-3.3c0.6-4.5,1.9-7.2,4.3-8.7c2.3-1.5,5-2.9,7.9-4.2c0.9-0.5,1.9-0.9,2.9-1.4
				c2.9-1.4,5.8-2.8,8.4-4.2c-0.4,3-0.6,5.8-0.6,8.7l0,1c0,2.8,0,5.8,0.7,8.5c0.8,3,2.9,3.5,4,3.5c1.9,0,3.9-1.3,3.9-3.4
				c0-10.9,0.9-18.8,3-27.3c0.1-0.6,0.4-1.1,0.7-1.7c0.5-1.1,1.2-2.4,1.2-4.2c0-0.9,0-3.3-1.4-4.4
				C628.1,370.6,626.1,370.1,624.6,370.5z"/>
			<path class="st2" d="M650.5,360.1c-1.6-1-3.8-1.1-5.3-0.2c-1.2,0.7-2,2.1-2.3,3.1c-1.4,3.7-2.3,7.4-3.3,11.8
				c-0.7,2.5-1.2,4.6-2,7.7c-1.9,8.6-1.9,13.7-1.9,15.4c0,4.5,2.8,4.9,3.6,4.9c3.8,0,4.2-2.7,4.5-4.6c1.3-8.7,3.6-17.6,7.1-28
				c0.1-0.2,0.2-0.6,0.6-1.8l0.1-0.1c0.8-1.1,1.4-1.9,1.4-3.8C652.9,362.6,652,361.1,650.5,360.1z"/>
			<path class="st2" d="M721.9,352.6c-1.7-0.2-3.9-0.1-4.5,1.5c-0.2,0.5-1,2.2-1.4,3l-0.2,0.6c-0.6,1.6-1,2.5-1.7,4.2
				c-0.2,0.3-0.6,0.8-0.9,1c-1.5,1.1-2.9,2.1-4.5,2.8c-4.7,2.3-8.4,4-12.3,5.7c-0.9,0.4-1.8,0.8-2.8,1.2c-1.8,0.7-3.5,1.4-4.8,2.1
				c-0.2,0.1-0.5,0.2-0.8,0.3c-1.8,0.8-4.5,1.9-4.7,4.8c0,0.8,0,1.7,0.3,2.4c0.6,1.7,1.2,2.9,3.9,2.9c1.4,0,2.5-0.6,3.4-1.1
				c0.4-0.2,0.8-0.5,1.3-0.6c4.4-1.8,8.7-3.9,12.7-5.9c1.5-0.7,3.1-1.5,4.6-2.3c0.6-0.3,1.1-0.6,1.7-0.8c0,0.3-0.1,0.5-0.1,0.7
				c-0.1,0.7-1.2,6.8-1.3,7.3c-0.4,1.7-0.7,5.6-0.7,6.9v3c0,5.5,0.5,17.3,2.4,22.8l0,0.1c0.1,0.3,0.2,0.6,0.3,0.8
				c0.1,0.3,0.2,0.5,0.4,0.9l0.1,0.3c0.4,1.2,1,3.2,2.7,4c0.5,0.2,1,0.4,1.6,0.4c0.5,0,1.1-0.1,1.7-0.3c1.3-0.5,2.6-1.7,1.8-5.2
				c-0.2-0.7-0.3-1.3-0.5-1.9l-0.2-0.9c-1.3-4.5-1.4-14.3-1.3-18.8c0.1-3.7,0.5-7,1.1-10.2c0.6-3,1.1-5.7,1.5-8.4
				c0.3-2.1,0.7-4,1-5.9c0.1-0.4,0.4-1.3,0.8-2.3c0.4-1.1,0.9-2.4,1.1-3.3c0.2-0.8,0.5-1.6,0.9-2.4c0.7-1.6,1.4-3.3,1.4-5.4
				C726,354.3,724.6,352.9,721.9,352.6z"/>
			<path class="st2" d="M664.4,371.9c1,0,2-0.3,3-0.9c0.6-0.3,1.4-0.6,2-0.8c0.3-0.1,0.5-0.2,0.7-0.3c2.7-1.1,7.6-2.2,11.2-2.1
				l0.3,0c2.3,0,5.8,0,6.1-3.6c0.1-1.1,0-3.8-3.5-4.6c-0.5-0.1-2.3-0.4-2.9-0.4c0,0,0,0,0,0c-6.1-0.2-10.3,0.6-17.2,3.4
				c-3.3,1.3-4.4,3.5-3.3,6.5c0.5,1.5,1.5,2.2,2.2,2.5C663.4,371.9,663.9,371.9,664.4,371.9z"/>
			<path class="st2" d="M694.8,387.2c-1.5-0.3-2.6,0.1-3.1,0.3c-0.9,0.3-3.7,1.5-5,2c-1.7,0.7-3.4,1.4-5,2c-0.5,0.2-0.9,0.3-1.3,0.5
				c-1.6,0.5-2.6,0.9-4.6,1.2c-0.2,0-0.3,0-0.5,0.1c-1.1,0.1-1.9,0.2-2.4-0.3c-1.1-1.1-1.2-2.5-1.2-5c0-1.5,0.1-3,0.4-4.8
				c0.1-0.4,0.2-0.9,0.4-1.4c0.3-0.9,0.5-1.8,0.5-2.9c0-2-1.4-3.4-3.8-3.7c-1.8-0.2-3.3,0.3-4.1,1.4c-2.4,2.8-2.6,6.6-2.8,10.3
				c-0.1,1.3,0.2,5.7,0.6,7.4c1.1,5.3,4.8,8.2,10.6,8.2c2.2,0,3.9-0.1,6.4-0.7c1.8-0.5,6.9-2.4,8.5-3.2c2.8-1.3,4.7-2.3,6.6-3.6
				c2.4-1.7,2.5-3.2,2.5-3.7v-0.3C697.3,390,696.7,387.7,694.8,387.2z"/>
		</g>
	</g>
	<path class="st2" d="M583,114.7"/>
</g>
</svg>
