<?xml version="1.0" encoding="utf-8"?>
<!-- Generator: Adobe Illustrator 22.0.1, SVG Export Plug-In . SVG Version: 6.00 Build 0)  -->
<svg version="1.1" id="레이어_1" xmlns="http://www.w3.org/2000/svg" xmlns:xlink="http://www.w3.org/1999/xlink" x="0px"
	 y="0px" viewBox="0 0 717 405.3" style="enable-background:new 0 0 717 405.3;" xml:space="preserve">
<style type="text/css">
	.st0{fill:#FFCC00;}
</style>
<path class="st0" d="M225.7,44.4l-93.3,11l-4.3-36.8l28.8,7.4l16.8-21.3L195,21.5l26.3-13.9L225.7,44.4z M210,21.7l2,17.2l7.6-0.9
	l-2.4-20.5L210,21.7z M201.1,26.2l1.6,13.8l3.6-0.4l-1.8-15.2L201.1,26.2z"/>
<g>
	<path d="M409.6,240.8c-7.2,14.2,15.6,36.9,27.7,37.6c16.5,1,34.9-19.2,24.9-35c-4.5-7.1-5.2-6.6-11.1-11.6
		c-3.4-2.9-8.6-9-11.8-11.2C427,212.2,411,226.9,409.6,240.8z"/>
	<path d="M256.2,315c1.7-5.1,1.8-25.2,1.9-30.8l-0.2-73.6l15.5-4c2.4,25.3-1.6,76.9-1.6,76.9c0.1,3.7,2.7,6.8,6.4,7.3
		c2,0.3,8.6-1.2,10.9-1.1c7.2,0.4,11.7-2.8,14.2-12.3s-2.4-71.7,0.3-79.6c0,0,18.8,53.4,33.5,72.8c15.2,20.1,47,9.8,47.8-17.8
		l-2.8-195.1c-0.4-8.9,0.1-43.3-15.4-40.1c-5.4-5.5-8.1-16.4-16.7-13.5c-11.1,3.8-7.3,24.2-7.3,31.6c0,55.9,0,111.8-0.7,167.8
		c-15.1-27.5-24.1-59.6-34.4-89.4c-2-5.9-4.1-17.8-8.3-22.1c0.1,0.1-7.4-1.9-8.1-2.6c-2.3-2.6-6.2-11.1-9-12.6
		c-11.9-6.4-16.4,12.9-16.2,21c0.7,30.3,5.2,53.9,6.2,82.9c-5,1-11.2,2.8-15.1,2c0,0-0.3-40.9-2.1-54.8c-1.8-13.9-5.6-26.1-5.6-26.1
		c-4-8.6-6.8-7.5-13.6-11.5c-2.2-4.7-6.5-15.3-13-13l0,0l0,0c-4.1,1.8-5.5,0.1-9.5-3.1l-5.6-6.6c-9.1-15.1-13.7-11.1-29.4-6.7
		L37.8,96c-5.8,1.4-10.3,6-11.7,11.9l-7.5,32.5c-0.8,3.5,2.6,6.5,5.9,5.3c26.6-9.2,113.2-38.9,127.4-42.2
		c-8.4,38.5-19.8,77.9-33.9,114.7c-6.9,17.9-19.8,62-47.7,61.1c-10.5-0.3-13.7-14.4-13.3-29c0.3-13.5,9.5-37.3,16.7-49.4
		c6.8-11.2,32.7-38.2,51.4-50.6c3.2-2.1,4.6-6.2,3.2-9.8c-1.7-4.2-4.9-6.6-4.9-6.6c-3.5-3.2-8.3-6.9-20.5-3.5
		c-11.7,3.3-26.3,10.5-48.1,29.9C22.4,189.7,1.9,252,26.7,293.7c16.3,27.3,53.2,30.1,79.1,13.8c27.5-17.3,40.8-58.1,50-88.2
		c2.3,3.8,13.4-0.2,13.2,3.8c-0.5,9.5-12.9,43.8-19.7,66c-3,9.9,4.7,19.8,15,19.2c6.6-0.4,12.8-1.3,15.2-3.2
		c8.7-7.3,20.7-64.4,27.7-86.2l0,0c6.7-1.2,13-2,19.8-3c0,15.6-5.1,80.3-3.7,102.3l-180.4,22c-13,1.4-57.1,8.8-32.6,29.7
		c22.9,19.6,26.7,21,87.8,10.1c203.6-36.4,469-76,603.8-89c15.4-1.5,17.2-11.4,4.3-17c-5.5-6.1-7-7.7-14.8-10.2
		c-6.2-2-17.4,0.3-23.3,1.2L256.2,315z M203.4,94.2c-5.5,16.1-8.4,33.6-13.1,50.1c-2.6,9-6.6,24.2-9,33.3
		c-4.4,16.7-0.4,10.3-15.9,13.1c5.3-19.1,10.9-38.2,15.9-57.4c2.5-9.8,4.4-20.2,7.4-29.7c3.8-12,3-9.7,16.7-14
		C204.6,91,204,92.6,203.4,94.2z M225.9,175.8c0.1,1.5,0.2,7.9,0.2,9.4c-3.3,0.5-8.3,0.8-11.8,1.5c2.8-9.2,7.6-22,9.9-31.4
		C225,162.7,225.4,168.4,225.9,175.8z"/>
	<g>
		<path d="M517.5,264.3c-13.3,1.6-26.8-3.1-27-15.9c0.2-65.4-2.4-127.4-4.7-184.3c-0.6-15.8,2-26.9,22.4-29.8
			c28.1-3.7,58.3,2.6,84.4,15.2c34.9,16.9,62.1,49.3,65.6,85.8c1.8,23.9-6.9,47.7-21.7,69.7C618.3,232.4,575.5,257,517.5,264.3z
			 M575.6,81.4c-12.1-8.6-24.3-12.1-31.6-11.9c-3.7,0.1-6.9-0.2-12.1,0.5c2.5,49.6,4.5,90.3,4.3,161.2c38.8-10.2,73.1-38.7,76.1-78
			C614.4,124.2,597.5,96.6,575.6,81.4z"/>
	</g>
</g>
<g>
	<path d="M559.5,348.7l0.1-0.1c0.4-1,0.3-2.2-0.3-3c-0.5-0.8-1.3-1.3-2.2-1.3c-3.4-0.3-6.8,0-9.9,0.8c-1.8,0.3-5.1,1.2-8.1,2.2
		c0.2-1.4,0.4-2.9,0.7-4.4c0.4-3,0.9-6.1,1.6-8.9c0.4-1.5,0.6-3,0.6-4.4c0-2.6-2.1-4.5-5-4.5c-0.1,0-3.1,0-3.8,2
		c-1,2.2-1.6,5.9-1.7,6.6c-0.8,4.6-1.3,8.1-2,12.9l-0.4,2.4c-0.5,3.6-0.6,10.3-0.6,11.1c0,2.4,0.2,7,0.5,9.1
		c0.2,1.9,0.6,3.4,1.1,4.5c0.9,2.2,2.4,3.6,4,3.6c0.1,0,0.2,0,0.2,0c1.3,0,4.3-1.1,4.3-3.5l0-0.5c-0.1-0.4-0.2-1-0.3-1.6
		c-0.1-0.6-0.2-1.3-0.3-1.9c-0.4-3-0.4-8-0.2-12.4c4.9-2.5,8.2-3.4,13.4-5c0.9-0.3,1.8-0.5,2.5-0.7c1.3-0.3,2.4-0.6,3.8-1l0.2-0.1
		l0.2-0.1C558.8,349.8,559.2,349.4,559.5,348.7z"/>
	<path d="M512.4,376.9l0.1-0.1c1.4-3-0.7-4.6-1.6-5.2c-0.9-0.7-4.4-3.3-6.1-4.5c-0.2-0.1-0.5-0.4-0.9-0.7c-1-0.7-2.6-1.9-3.8-2.9
		c0.7-1.1,1.3-2,1.9-2.8c0.5-0.7,0.9-1.3,1.2-1.9c0.6-1,1.2-2,1.8-3.1c3-5.1,6.1-10.4,6.1-16.6c0-2.1-1.1-5.7-8.7-5.7
		c-4.5,0-10.5,2.1-14,4.1c-0.6,0.3-3.6,2.2-4.7,4.6c-0.7,1.7-0.4,3.8,0.9,5.1c1.1,1.2,2.7,1.6,4.2,1c2.3-0.8,3.7-1.8,4.7-2.5
		c0.2-0.2,0.4-0.3,0.6-0.4c2.2-1.4,4.8-2.4,6.9-2.7c-0.7,2.7-2.7,5.9-4.4,8.6c-0.5,0.8-0.9,1.5-1.4,2.2c-0.8,1.5-2,3.2-3.3,5
		c-1.6,2.3-3.4,4.9-4.8,7.5c-0.4,0.7-1,1.7-1.8,2.7c-1.1,1.6-2.4,3.5-3.2,5.2l-0.1,0.4c-0.5,1.1-1.2,3-0.5,4.8
		c0.6,1.6,2.2,2.6,4.2,2.6c0.2,0,0.4,0,0.6,0c2.7-0.3,4.4-3.1,5.7-5.1l0.3-0.5c0.4-0.6,1.8-3,2.7-4.5c1.5,0.8,3.6,2.2,5.9,3.7
		c1.1,0.8,2.3,1.6,3.6,2.4c1.6,1.2,3.4,1.7,4.9,1.4C510.7,378.8,511.7,378.1,512.4,376.9z"/>
	<path d="M546.7,383.3h-1.6c-4.8,0-8.9,1.3-12.9,2.5c-3.8,1.2-7.4,2.3-11.4,2.3c-0.1,0-0.1,0-0.1,0c0-0.1,0-0.3,0-0.5
		c0-2.4,0.9-4.4,2.2-6.9c0.4-0.7,1-1.5,1.6-2.3c1.2-1.5,2.4-3.1,2.4-4.9c0-2.6-2-4.4-4.8-4.4c-1,0-2.2,0.2-3.2,1.3
		c-3.8,4.6-7.7,12.5-7.7,17.9c0,2.7,0.3,4.9,1.6,6.4c1.7,2,4.7,2.4,6.9,2.4c4.5,0,8.7-1.4,12.8-2.8c1.3-0.4,2.5-0.8,3.8-1.2
		c0.9-0.3,1.7-0.5,2.6-0.8c3.2-0.9,6.4-1.8,9.5-3.5c1.2-0.7,1.4-2.1,1-3.3C549,384.2,548,383.3,546.7,383.3z"/>
	<path d="M608.6,349.5c-1,0.2-1.8,0.7-2.1,1.5c-0.3,0.5-0.8,1.5-0.9,1.9c-0.7,2.4-1.3,4-2.1,6.3c-4,2.5-8.8,4.8-15.3,7.7
		c-0.6,0.3-1.2,0.6-1.8,0.9c-0.8,0.4-1.7,0.8-2.5,1.2c0.3-0.9,0.5-1.7,0.8-2.6c1.3-4,2.6-8.1,2.8-12.7c0.1-2.1-0.5-3.8-1.7-5.1
		c-1.7-1.7-4.5-2.4-8.7-2.1c-2.7,0.2-18.2,3.3-18.2,9.1c0,1.3,0.5,3.2,1.8,4.3c0.8,0.7,1.9,0.9,2.9,0.6c1.4-0.3,2.4-0.9,3.5-1.5
		c0.3-0.2,0.7-0.4,1.1-0.7c3.5-2.1,6.6-3.2,9.3-3.2c0.3,0,0.4,0.1,0.5,0.1c0,0,0,0.2,0,0.5l0,0.2c0,0.2-0.1,0.5-0.2,0.8
		c-0.1,0.5-0.2,1-0.3,1.5c-1.7,6.5-3.2,12-5.2,17.7c-1.3,4-2.1,7.1-2.5,10.3c-0.5,3.4,1.6,5,3.5,5.2c0.2,0,0.4,0,0.7,0
		c2,0,4.3-1.2,4.5-3.3c0.6-4.5,1.9-7.2,4.3-8.7c2.3-1.5,5-2.9,7.9-4.2c0.9-0.5,1.9-0.9,2.9-1.4c2.9-1.4,5.8-2.8,8.4-4.2
		c-0.4,3-0.6,5.8-0.6,8.7l0,1c0,2.8,0,5.8,0.7,8.5c0.8,3,2.9,3.5,4,3.5c1.9,0,3.9-1.3,3.9-3.4c0-10.9,0.9-18.8,3-27.3
		c0.1-0.6,0.4-1.1,0.7-1.7c0.5-1.1,1.2-2.4,1.2-4.2c0-0.9,0-3.3-1.4-4.4C612.1,349.6,610.1,349.1,608.6,349.5z"/>
	<path d="M634.5,339.1c-1.6-1-3.8-1.1-5.3-0.2c-1.2,0.7-2,2.1-2.3,3.1c-1.4,3.7-2.3,7.4-3.3,11.8c-0.7,2.5-1.2,4.6-2,7.7
		c-1.9,8.6-1.9,13.7-1.9,15.4c0,4.5,2.8,4.9,3.6,4.9c3.8,0,4.2-2.7,4.5-4.6c1.3-8.7,3.6-17.6,7.1-28c0.1-0.2,0.2-0.6,0.6-1.8
		l0.1-0.1c0.8-1.1,1.4-1.9,1.4-3.8C636.9,341.6,636,340.1,634.5,339.1z"/>
	<path d="M705.9,331.6c-1.7-0.2-3.9-0.1-4.5,1.5c-0.2,0.5-1,2.2-1.4,3l-0.2,0.6c-0.6,1.6-1,2.5-1.7,4.2c-0.2,0.3-0.6,0.8-0.9,1
		c-1.5,1.1-2.9,2.1-4.5,2.8c-4.7,2.3-8.4,4-12.3,5.7c-0.9,0.4-1.8,0.8-2.8,1.2c-1.8,0.7-3.5,1.4-4.8,2.1c-0.2,0.1-0.5,0.2-0.8,0.3
		c-1.8,0.8-4.5,1.9-4.7,4.8c0,0.8,0,1.7,0.3,2.4c0.6,1.7,1.2,2.9,3.9,2.9c1.4,0,2.5-0.6,3.4-1.1c0.4-0.2,0.8-0.5,1.3-0.6
		c4.4-1.8,8.7-3.9,12.7-5.9c1.5-0.7,3.1-1.5,4.6-2.3c0.6-0.3,1.1-0.6,1.7-0.8c0,0.3-0.1,0.5-0.1,0.7c-0.1,0.7-1.2,6.8-1.3,7.3
		c-0.4,1.7-0.7,5.6-0.7,6.9v3c0,5.5,0.5,17.3,2.4,22.8l0,0.1c0.1,0.3,0.2,0.6,0.3,0.8c0.1,0.3,0.2,0.5,0.4,0.9l0.1,0.3
		c0.4,1.2,1,3.2,2.7,4c0.5,0.2,1,0.4,1.6,0.4c0.5,0,1.1-0.1,1.7-0.3c1.3-0.5,2.6-1.7,1.8-5.2c-0.2-0.7-0.3-1.3-0.5-1.9l-0.2-0.9
		c-1.3-4.5-1.4-14.3-1.3-18.8c0.1-3.7,0.5-7,1.1-10.2c0.6-3,1.1-5.7,1.5-8.4c0.3-2.1,0.7-4,1-5.9c0.1-0.4,0.4-1.3,0.8-2.3
		c0.4-1.1,0.9-2.4,1.1-3.3c0.2-0.8,0.5-1.6,0.9-2.4c0.7-1.6,1.4-3.3,1.4-5.4C710,333.3,708.6,331.9,705.9,331.6z"/>
	<path d="M648.4,350.9c1,0,2-0.3,3-0.9c0.6-0.3,1.4-0.6,2-0.8c0.3-0.1,0.5-0.2,0.7-0.3c2.7-1.1,7.6-2.2,11.2-2.1l0.3,0
		c2.3,0,5.8,0,6.1-3.6c0.1-1.1,0-3.8-3.5-4.6c-0.5-0.1-2.3-0.4-2.9-0.4c0,0,0,0,0,0c-6.1-0.2-10.3,0.6-17.2,3.4
		c-3.3,1.3-4.4,3.5-3.3,6.5c0.5,1.5,1.5,2.2,2.2,2.5C647.4,350.9,647.9,350.9,648.4,350.9z"/>
	<path d="M678.8,366.2c-1.5-0.3-2.6,0.1-3.1,0.3c-0.9,0.3-3.7,1.5-5,2c-1.7,0.7-3.4,1.4-5,2c-0.5,0.2-0.9,0.3-1.3,0.5
		c-1.6,0.5-2.6,0.9-4.6,1.2c-0.2,0-0.3,0-0.5,0.1c-1.1,0.1-1.9,0.2-2.4-0.3c-1.1-1.1-1.2-2.5-1.2-5c0-1.5,0.1-3,0.4-4.8
		c0.1-0.4,0.2-0.9,0.4-1.4c0.3-0.9,0.5-1.8,0.5-2.9c0-2-1.4-3.4-3.8-3.7c-1.8-0.2-3.3,0.3-4.1,1.4c-2.4,2.8-2.6,6.6-2.8,10.3
		c-0.1,1.3,0.2,5.7,0.6,7.4c1.1,5.3,4.8,8.2,10.6,8.2c2.2,0,3.9-0.1,6.4-0.7c1.8-0.5,6.9-2.4,8.5-3.2c2.8-1.3,4.7-2.3,6.6-3.6
		c2.4-1.7,2.5-3.2,2.5-3.7v-0.3C681.3,369,680.7,366.7,678.8,366.2z"/>
</g>
</svg>
