<?xml version="1.0" encoding="utf-8"?>
<!-- Generator: Adobe Illustrator 22.0.1, SVG Export Plug-In . SVG Version: 6.00 Build 0)  -->
<svg version="1.1" id="레이어_1" xmlns="http://www.w3.org/2000/svg" xmlns:xlink="http://www.w3.org/1999/xlink" x="0px"
	 y="0px" viewBox="0 0 416.5 237" style="enable-background:new 0 0 416.5 237;" xml:space="preserve">
<style type="text/css">
	.st0{fill:#FFFFFF;}
</style>
<g>
	<g>
		<polygon points="245.7,45.9 170.7,45.9 170.7,16.4 192.9,24.9 208.2,9.5 223.6,24.9 245.7,16.4 		"/>
		<path class="st0" d="M208.2,9.5l15.3,15.3l22.2-8.5v29.6h-75V16.4l22.2,8.5L208.2,9.5 M208.2-0.1l-4.8,4.8l-12.2,12.2l-18-6.9
			l-9.3-3.6v9.9v29.6v6.8h6.8h75h6.8v-6.8V16.4V6.4l-9.3,3.6l-18,6.9L213,4.7L208.2-0.1L208.2-0.1z"/>
	</g>
	<g>
		<g>
			<path d="M106.1,118.3l16.3-28V56.4H21.6v48.2h36.3l-24.1,40.2l19.1,1.6c17.1,1.4,27.3,8.2,27.3,18c0,5.4-4,13.2-10.4,13.2
				c-8.7,0-11.6-2.8-11.6-11.2v-11.9H6.8v11.9c0,35.4,25.7,60.2,62.6,60.2c36.6,0,62.2-25.6,62.2-62.2
				C131.6,144.5,122.6,128.5,106.1,118.3z"/>
			<path class="st0" d="M122.4,56.4v33.9l-16.3,28c16.5,10.2,25.5,26.2,25.5,46.2c0,36.6-25.6,62.2-62.2,62.2
				c-36.8,0-62.6-24.7-62.6-60.2v-11.9h51.4v11.9c0,8.4,2.9,11.2,11.6,11.2c6.3,0,10.4-7.8,10.4-13.2c0-9.9-10.2-16.6-27.3-18
				l-19.1-1.6l24.1-40.2H21.6V56.4H122.4 M129.2,49.6h-6.8H21.6h-6.8v6.8v48.2v6.8h6.8h24.3l-17.9,29.9l-3.8,6.4H6.8H0v6.8v11.9
				c0,19,6.9,36.2,19.6,48.3c12.5,12.1,30.2,18.7,49.8,18.7c19.5,0,37.2-6.9,49.6-19.4c12.5-12.5,19.4-30.1,19.4-49.6
				c0-19.8-8.2-36.7-23.2-48.2l13.1-22.5l0.9-1.6v-1.8V56.4V49.6L129.2,49.6z M65.5,170.3c-0.1-0.2-0.5-1.2-0.5-3.8v-10.5
				c5.3,2.1,8.3,5.1,8.3,8.5c0,2.7-2.2,6.4-3.6,6.4C66.8,170.8,65.7,170.4,65.5,170.3L65.5,170.3z"/>
		</g>
		<g>
			<path d="M357.8,154.5v11.9c0,8.4-2.9,11.2-11.6,11.2c-6.3,0-10.4-7.8-10.4-13.2c0-9.9,10.2-16.6,27.3-18l19.1-1.6l-24.1-40.2
				h36.3V56.4H293.6v33.9l16.3,28c-16.5,10.2-25.5,26.2-25.5,46.2c0,36.6,25.6,62.2,62.2,62.2c36.8,0,62.6-24.7,62.6-60.2v-11.9
				H357.8z"/>
			<path class="st0" d="M394.4,56.4v48.2h-36.3l24.1,40.2l-19.1,1.6c-17.1,1.4-27.3,8.2-27.3,18c0,5.4,4,13.2,10.4,13.2
				c8.7,0,11.6-2.8,11.6-11.2v-11.9h51.4v11.9c0,35.4-25.7,60.2-62.6,60.2c-36.6,0-62.2-25.6-62.2-62.2c0-20,8.9-36,25.5-46.2
				l-16.3-28V56.4H394.4 M401.2,49.6h-6.8H293.6h-6.8v6.8v33.9v1.8l0.9,1.6l13.1,22.5c-15,11.5-23.2,28.4-23.2,48.2
				c0,19.5,6.9,37.2,19.4,49.6c12.5,12.5,30.1,19.4,49.6,19.4c19.6,0,37.3-6.6,49.8-18.7c12.6-12.1,19.6-29.3,19.6-48.3v-11.9v-6.8
				h-6.8h-17.3l-3.8-6.4l-17.9-29.9h24.3h6.8v-6.8V56.4V49.6L401.2,49.6z M346.2,170.8c-1.3,0-3.6-3.6-3.6-6.4
				c0-3.5,3.1-6.5,8.3-8.5v10.5c0,2.6-0.4,3.6-0.5,3.8C350.3,170.4,349.2,170.8,346.2,170.8L346.2,170.8z"/>
		</g>
	</g>
	<g>
		<circle cx="208" cy="141.5" r="88.4"/>
		<path class="st0" d="M208,53.2c48.8,0,88.4,39.6,88.4,88.4c0,48.8-39.6,88.4-88.4,88.4s-88.4-39.6-88.4-88.4
			C119.6,92.7,159.2,53.2,208,53.2 M208,46.3c-52.5,0-95.2,42.7-95.2,95.2s42.7,95.2,95.2,95.2s95.2-42.7,95.2-95.2
			S260.5,46.3,208,46.3L208,46.3z"/>
	</g>
	<g>
		<circle cx="208" cy="141.5" r="40.3"/>
		<path class="st0" d="M208,101.2c22.3,0,40.3,18.1,40.3,40.3s-18.1,40.3-40.3,40.3s-40.3-18.1-40.3-40.3S185.7,101.2,208,101.2
			 M208,96.1c-25.1,0-45.5,20.4-45.5,45.5S182.9,187,208,187s45.5-20.4,45.5-45.5S233.1,96.1,208,96.1L208,96.1z"/>
	</g>
	<circle class="st0" cx="208" cy="141.5" r="23.9"/>
	<circle cx="208" cy="141.5" r="11.7"/>
	<g>
		<path class="st0" d="M267.1,116.4c-6.5-15.2-18.4-27.2-33.5-33.8l0.7-1.6c15.6,6.8,27.8,19.1,34.4,34.7L267.1,116.4z"/>
		<path class="st0" d="M272.2,111.3c-7-14.8-18.9-26.8-33.6-33.8l0.7-1.5c15.1,7.2,27.3,19.5,34.4,34.6L272.2,111.3z"/>
		<path class="st0" d="M182.2,202.2c-15.6-6.6-27.9-18.9-34.7-34.4l1.6-0.7c6.6,15.2,18.6,27.1,33.8,33.5L182.2,202.2z"/>
		<path class="st0" d="M177.1,207.3c-15.1-7.1-27.4-19.3-34.6-34.4l1.5-0.7c7,14.7,19,26.6,33.8,33.6L177.1,207.3z"/>
		<path class="st0" d="M261.8,121.6c-5.8-15.5-18-27.8-33.5-33.7l0.6-1.6c16,6.1,28.5,18.7,34.5,34.7L261.8,121.6z"/>
		<path class="st0" d="M267.1,116.4c-6.5-15.2-18.4-27.2-33.5-33.8l0.7-1.6c15.6,6.8,27.8,19.1,34.4,34.7L267.1,116.4z"/>
		<path class="st0" d="M187.5,197c-16-5.9-28.7-18.5-34.7-34.5l1.6-0.6c5.9,15.5,18.2,27.7,33.7,33.5L187.5,197z"/>
		<path class="st0" d="M182.2,202.2c-15.6-6.6-27.9-18.9-34.7-34.4l1.6-0.7c6.6,15.2,18.6,27.1,33.8,33.5L182.2,202.2z"/>
	</g>
	<polygon class="st0" points="241.5,24.1 241.5,40.6 235.4,40.6 235.4,26.8 	"/>
	<polygon class="st0" points="230.8,28.4 230.8,40.6 228,40.6 228,29.6 	"/>
</g>
</svg>
