<?xml version="1.0" encoding="utf-8"?>
<!-- Generator: Adobe Illustrator 22.0.1, SVG Export Plug-In . SVG Version: 6.00 Build 0)  -->
<svg version="1.1" id="레이어_1" xmlns="http://www.w3.org/2000/svg" xmlns:xlink="http://www.w3.org/1999/xlink" x="0px"
	 y="0px" viewBox="0 0 709.7 468.9" style="enable-background:new 0 0 709.7 468.9;" xml:space="preserve">
<style type="text/css">
	.st0{fill:#FFFFFF;}
	.st1{fill:#FFCC00;}
</style>
<g>
	<g>
		<path d="M247.8,3.7l-19.3,10.2l-17.7,9.3l-13.7-10.8l-11.8-9.3L176,14.8l-10.8,13.7l-19.4-4.9l-21.2-5.4l2.6,21.7l4.3,36.8
			l0.4,3.6L48.3,101c-11.4,2.8-20.1,11.7-22.7,23.1l-7.5,32.5c-1.4,6,0.2,12.5,4.2,17.2c2.1,2.4,4.7,4.3,7.6,5.4c0.6,1,1.3,2,2,2.8
			c2.6,3,6.1,5.2,9.9,6.2c-10.4,14.5-18.5,31.9-23.1,50.2c-7.6,30.6-4.4,60,9,82.6c4.7,7.9,10.9,14.5,18.2,19.5
			c1.7,1.7,3.4,3.4,5.2,4.9c-5.2,0.7-13.1,2.1-21,4.5C15,354.5,6.1,361.6,3.1,371.3c-2.2,7.1-2,18,11.5,29.6c1.8,1.5,3.6,3,5.5,4.3
			c1.2,1.3,2.6,2.7,4.2,4c27.7,23.6,63.3,20.9,97.8,18.3l0.2,0c18.2-1.4,159-22.8,284.6-42.7c50.1-7.9,122.2-19.5,181.7-29.5
			c84.8-14.3,89-16.3,92-17.7c7.6-3.6,21.7-10.2,21.5-23.8c-0.1-9.6-7.4-15.2-12.9-18.3c-3.1-4.5-7.9-7.4-11.4-9.2
			c-5.4-5.8-9.3-9-19.2-12.1c-1.9-0.6-3.9-1-6.2-1.2c0.1-0.1,0.2-0.1,0.3-0.2c1.6-1.4,3.3-2.8,4.8-4.3c2.4-2.2,4.7-4.5,6.8-6.9
			c2.2-2.4,4.3-4.8,6.3-7.3c0.7-0.8,1.3-1.7,2-2.5c1.3-1.7,2.6-3.4,3.8-5.2c1.2-1.8,2.4-3.6,3.5-5.4c1.1-1.8,2.2-3.7,3.3-5.5
			c2-3.5,3.8-7.2,5.4-10.8c0.5-1.2,1.1-2.5,1.6-3.7c0.8-2,1.6-4,2.3-6.1c5.9-16.9,8.1-34.5,6.7-52.3c-0.2-3-0.6-6-1-8.9
			c-1.6-10.6-4.5-20.9-8.6-30.7c-0.7-1.8-1.5-3.5-2.3-5.2c-0.9-2-1.9-3.9-2.9-5.8c-1-1.9-2.1-3.8-3.2-5.6c-0.8-1.4-1.7-2.8-2.6-4.1
			c-1.8-2.7-3.6-5.3-5.6-7.9c-1-1.3-2-2.5-3-3.8c-0.7-0.8-1.4-1.7-2.1-2.5c-1.4-1.6-2.9-3.2-4.3-4.8c-1.5-1.5-3-3.1-4.6-4.5
			c-0.8-0.7-1.6-1.5-2.4-2.2c-2.4-2.2-4.9-4.2-7.4-6.2c-0.2-0.1-0.4-0.3-0.6-0.4c-0.6-0.5-1.2-1.1-1.7-1.6c-2.4-2.2-4.9-4.2-7.4-6.2
			c-2.5-2-5.2-3.9-7.8-5.7c-1.8-1.2-3.6-2.4-5.4-3.5c-2.8-1.7-5.6-3.3-8.5-4.8c-3.9-2-7.9-3.8-11.9-5.4c-1-0.4-2-0.8-3.1-1.2
			c-3.1-1.1-6.2-2.2-9.4-3.1c-2.1-0.6-4.3-1.2-6.4-1.7c-14.3-3.5-29.2-4.6-44-3.5c-1.6,0.1-3.2,0.3-5.2,0.5l-0.5,0.1l-9.8,0.8
			L480,38.3l-15,1.2l1.2,15l15,190.3c-0.2-0.2-0.4-0.4-0.5-0.6c-3.1-3.2-6-6.2-9.1-8.3c-0.5-0.3-1-0.6-1.4-0.9
			c-2.8-2.8-5.4-5.5-8.2-7.4c-5.5-3.8-11.9-5.5-18.5-5c-7.3,0.6-14.4,3.8-20.4,9.3l-2.1-146.6c0-0.2,0-0.4,0-0.5
			c0-0.8-0.1-1.7-0.1-2.8c-0.5-17-2-35.9-13-45.8c-1.7-1.6-3.7-2.8-5.7-3.8c-1.2-1.6-2.5-3.1-4-4.5c-1.3-1.2-2.7-2.1-4.1-3
			c-0.6-0.6-1.2-1.3-1.8-1.9c-2.1-2-4.2-3.4-6.2-4.3c-1-1.3-2.2-2.7-3.5-3.9c-6.2-6-12.9-6.8-17.4-6.4c0,0,0,0,0,0c0,0,0,0,0,0
			c-1.9,0.2-3.9,0.6-5.8,1.2c-5.5,1.8-15,7.3-17.5,23c-1.1,6.8-0.6,13.9-0.2,19c0.1,1.5,0.2,3.1,0.2,3.9c0,23.6,0,46.3,0,68.4
			c-1.8-5.4-4.2-10.6-8-14.5c-1.8-1.8-3.9-3-6.1-3.7c-1-1.6-2.2-3.2-3.6-4.6c-1-1-2.1-1.8-3.3-2.5c-2.1-2.9-4.5-5.4-7.7-7.1
			c-0.6-0.3-1.2-0.6-1.8-0.9c-2.1-2.9-4.5-5.6-7.9-7.4c-4.4-2.3-8.8-3.3-13.3-3c-5.6,0.4-15.7,3.4-21.5,18.4c-0.4,1-0.7,1.9-1,2.9
			c-0.3-0.4-0.5-0.8-0.8-1.2c-3.2-4.3-6.6-6.9-9.8-8.4c-1.5-2.1-3.1-3.7-4.7-5.1l13.9-1.6l-1.8-14.9L260,33.6l-2.6-21.7L247.8,3.7z"
			/>
		<g>
			<path class="st0" d="M423.7,260.3c-7.2,14.2,15.6,36.9,27.7,37.6c16.5,1,34.9-19.2,24.9-35c-4.5-7.1-5.2-6.6-11.1-11.6
				c-3.4-2.9-8.6-9-11.8-11.2C441.1,231.7,425.1,246.4,423.7,260.3z"/>
			<path class="st0" d="M270.4,335.6c1.7-5.1,1.7-26.3,1.8-31.9l-0.2-73.6l15.5-4c2.4,25.3-1.6,76.9-1.6,76.9
				c0.1,3.7,2.7,6.8,6.4,7.3c2,0.3,8.6-1.2,10.9-1.1c7.2,0.4,11.7-2.8,14.2-12.3c2.5-9.5-2.4-71.7,0.3-79.6c0,0,18.8,53.4,33.5,72.8
				c15.2,20.1,47,9.8,47.8-17.8l-2.8-195.1c-0.4-8.9,0.1-43.3-15.4-40.1c-5.4-5.5-8.1-16.4-16.7-13.5c-11.1,3.8-7.3,24.2-7.3,31.6
				c0,55.9,0,111.8-0.7,167.8c-15.1-27.5-24.1-59.6-34.4-89.4c-2-5.9-4.1-17.8-8.3-22.1c0.1,0.1-7.4-1.9-8.1-2.6
				c-2.3-2.6-6.2-11.1-9-12.6c-11.9-6.4-16.4,12.9-16.2,21c0.7,30.3,5.2,53.9,6.2,82.9c-5,1-11.2,2.8-15.1,2c0,0-0.3-40.9-2.1-54.8
				c-1.8-13.9-5.6-26.1-5.6-26.1c-4-8.6-6.8-7.5-13.6-11.5c-2.2-4.7-6.5-15.3-13-13v0l0,0c-4.1,1.8-5.5,0.1-9.5-3.1l-5.6-6.6
				c-9.1-15.1-13.7-11.1-29.4-6.7L51.9,115.5c-5.8,1.4-10.3,6-11.7,11.9l-7.5,32.5c-0.8,3.5,2.6,6.5,5.9,5.3
				c26.6-9.2,113.2-38.9,127.4-42.2c-8.4,38.5-19.8,77.9-33.9,114.7c-6.9,17.9-19.8,62-47.7,61.1c-10.5-0.3-13.7-14.4-13.3-29
				c0.3-13.5,9.5-37.3,16.7-49.4c6.8-11.2,32.7-38.2,51.4-50.6c3.2-2.1,4.6-6.2,3.2-9.8c-1.7-4.2-4.9-6.6-4.9-6.6
				c-3.5-3.2-8.3-6.9-20.5-3.5c-11.7,3.3-26.3,10.5-48.1,29.9C36.5,209.2,16,271.5,40.8,313.2c16.3,27.3,53.2,30.1,79.1,13.8
				c27.5-17.3,40.8-58.1,50-88.2c2.3,3.8,13.4-0.2,13.2,3.8c-0.5,9.5-12.9,43.8-19.7,66c-3,9.9,4.7,19.8,15,19.2
				c6.6-0.4,12.8-1.3,15.2-3.2c8.7-7.3,20.7-64.4,27.7-86.2l0,0c6.7-1.2,13-2,19.8-3c0,15.6-5,81.4-3.6,103.4L57,359.7
				c-13,1.4-57.1,8.8-32.6,29.7c22.9,19.6,54.4,17.2,87,14.8s537.8-81.3,553.2-88.5c15.4-7.2,17.2-11.4,4.3-17
				c-5.5-6.1-7-7.7-14.8-10.2c-6.2-2-17.4,0.3-23.3,1.2L270.4,335.6z M217.5,113.7c-5.5,16.1-8.4,33.6-13.1,50.1
				c-2.6,9-6.6,24.2-9,33.3c-4.4,16.7-0.4,10.3-15.9,13.1c5.3-19.1,10.9-38.2,15.9-57.4c2.5-9.8,4.4-20.2,7.4-29.7
				c3.8-12,3-9.7,16.7-14C218.7,110.5,218.1,112.1,217.5,113.7z M240,195.3c0.1,1.5,0.2,7.9,0.2,9.4c-3.3,0.5-8.3,0.8-11.8,1.5
				c2.8-9.2,7.6-22,9.9-31.4C239.1,182.2,239.5,187.9,240,195.3z"/>
			<path class="st1" d="M239.8,63.9l-93.3,11l-4.3-36.8l28.8,7.4l16.8-21.3L209.1,41l26.3-13.9L239.8,63.9z M224.1,41.2l2,17.2
				l7.6-0.9L231.3,37L224.1,41.2z M215.2,45.7l1.6,13.8l3.6-0.4l-1.8-15.2L215.2,45.7z"/>
			<g>
				<g>
					<path class="st0" d="M551,133.5c18.1-1.4,33.8,11.6,35.2,29c1.4,17.4-12.2,32.7-30.2,34.1c-1.6,0.1-3.1,0.1-4.7,0l1.7,21.9
						c1.5,0,3.1,0,4.6-0.2c13.4-1.1,25.3-6.6,34.2-15c2.6-2.4,4.9-5,6.9-7.8c1-1.4,2-2.9,2.9-4.4c1.3-2.2,2.5-4.6,3.5-7
						c1-2.4,1.8-4.9,2.4-7.5c1.2-5.1,1.7-10.5,1.2-16.1c-0.8-10.1-4.5-19.4-10.2-27c-2.1-2.8-4.4-5.4-7-7.7c-1.3-1.2-2.6-2.3-4-3.3
						c-2.1-1.6-4.3-3-6.6-4.3c-9.3-5.1-20.2-7.6-31.6-6.7c-1.6,0.1-3.1,0.3-4.6,0.6l1.7,21.9C547.9,133.8,549.4,133.6,551,133.5z"/>
					<path class="st0" d="M554.7,180.6c8.9-0.7,15.5-8.2,14.9-16.8c-0.7-8.6-8.4-14.9-17.3-14.2c-1.6,0.1-3.1,0.5-4.6,1l2.3,29.7
						C551.5,180.6,553.1,180.7,554.7,180.6z"/>
					<path class="st0" d="M569.6,163.8c-0.7-8.6-8.4-14.9-17.3-14.2c-1.6,0.1-3.1,0.5-4.6,1l2.3,29.7c1.5,0.3,3.1,0.4,4.7,0.3
						C563.6,179.9,570.2,172.4,569.6,163.8z"/>
					<path class="st0" d="M591.9,203.5c2.6-2.4,4.9-5,6.9-7.8c1-1.4,2-2.9,2.9-4.4c1.3-2.2,2.5-4.6,3.5-7c1-2.4,1.8-4.9,2.4-7.5
						c1.2-5.1,1.7-10.5,1.2-16.1c-0.8-10.1-4.5-19.4-10.2-27c-2.1-2.8-4.4-5.4-7-7.7c-1.3-1.2-2.6-2.3-4-3.3c-2.1-1.6-4.3-3-6.6-4.3
						c-9.3-5.1-20.2-7.6-31.6-6.7c-1.6,0.1-3.1,0.3-4.6,0.6l1.7,21.9c1.5-0.3,3-0.6,4.6-0.7c18.1-1.4,33.8,11.6,35.2,29
						c1.4,17.4-12.2,32.7-30.2,34.1c-1.6,0.1-3.1,0.1-4.7,0l1.7,21.9c1.5,0,3.1,0,4.6-0.2C571,217.4,582.9,211.8,591.9,203.5z"/>
					<path class="st0" d="M673.7,147.7c-1.4-9.5-4-18.6-7.6-27.1c-0.7-1.6-1.3-3.1-2.1-4.6c-0.8-1.7-1.7-3.4-2.6-5.1
						c-0.9-1.7-1.8-3.3-2.8-5c-0.7-1.2-1.5-2.4-2.3-3.6c-1.6-2.4-3.2-4.7-5-7c-0.9-1.1-1.8-2.3-2.7-3.4c-0.6-0.7-1.2-1.5-1.8-2.2
						c-1.2-1.4-2.5-2.8-3.8-4.2c-1.3-1.4-2.7-2.7-4-4c-0.7-0.7-1.4-1.3-2.1-1.9c-2.1-1.9-4.3-3.8-6.6-5.5c-2.3-1.8-4.6-3.5-7-5.1
						c-1.6-1.1-3.2-2.1-4.8-3.1c-2.5-1.5-5-2.9-7.6-4.2c-3.4-1.8-7-3.4-10.6-4.8c-0.9-0.4-1.8-0.7-2.7-1.1c-2.7-1-5.5-2-8.4-2.8
						c-1.9-0.6-3.8-1.1-5.7-1.5c-12.5-3-25.7-4.2-39.3-3.1c-1.6,0.1-3.1,0.3-4.6,0.5l4.5,56.8c1.5-0.2,3.1-0.4,4.6-0.5
						c34.4-2.7,64.4,22.1,67.1,55.2c2.6,33.2-23.2,62.3-57.6,65c-1.6,0.1-3.1,0.2-4.6,0.2l4.5,56.8c1.5-0.1,3.1-0.1,4.6-0.3
						c7.8-0.6,15.5-1.9,22.8-3.9c2.4-0.7,4.8-1.4,7.2-2.2c1.9-0.6,3.8-1.3,5.6-2c8.7-3.4,16.9-7.7,24.5-12.8
						c0.8-0.5,1.6-1.1,2.3-1.6c2.9-2,5.6-4.2,8.3-6.4c1.5-1.2,2.9-2.5,4.3-3.8c2.1-2,4.1-4,6.1-6.1c2-2.1,3.8-4.3,5.6-6.5
						c0.6-0.7,1.2-1.5,1.8-2.2c1.2-1.5,2.3-3.1,3.4-4.6c1.1-1.6,2.1-3.2,3.1-4.8c1-1.6,2-3.3,2.9-4.9c1.7-3.1,3.3-6.3,4.8-9.6
						c0.5-1.1,0.9-2.2,1.4-3.3c0.7-1.8,1.4-3.6,2-5.4c5-14.5,7.2-30.1,5.9-46.2C674.4,152.9,674.1,150.3,673.7,147.7z M625.2,132.9
						c-9.5-19.9-27.5-34.9-49.4-41l0.7-2.2c22.5,6.3,41.1,21.7,50.9,42.2L625.2,132.9z M631.8,125.4c-10.5-19.4-28-34-49.5-41
						l0.8-2.1c22,7.3,40.1,22.2,50.8,42.1L631.8,125.4z M638.3,118.2c-11.1-18.8-28.7-33.4-49.6-41.1l0.8-2.1
						C611,82.9,629,97.8,640.4,117L638.3,118.2z"/>
				</g>
				
					<rect x="490.2" y="51" transform="matrix(0.9969 -7.842834e-02 7.842834e-02 0.9969 -11.5975 40.8432)" class="st0" width="47.9" height="234.1"/>
			</g>
		</g>
	</g>
	<g>
		<path d="M691.3,353.6h-18.6c-1.3,0-2.6,0.2-3.8,0.5c-0.9-0.2-1.7-0.3-2.6-0.3H622c-1.1,0-2.1,0.1-3.1,0.4
			c-1.3-0.4-2.7-0.6-4.1-0.6h-17c-0.4,0-0.8,0-1.2,0.1c-0.4,0-0.8-0.1-1.2-0.1h-16.7c-0.9,0-1.9,0.1-2.8,0.3c-0.1,0-0.2,0-0.3,0
			h-36.2c-1.4,0-2.7,0.2-4,0.6c-1.5-0.5-3.1-0.9-4.7-0.9h-18.6c-0.8,0-1.5,0.1-2.3,0.2c-0.2,0-0.3,0-0.5,0h-48.9
			c-7.6,0-13.7,6.1-13.7,13.7v9.1c0,6,2.3,11,6.2,14.3c-4,2.4-6.7,6.8-6.7,11.8v15.1c0,3.7,1.5,7.2,4.1,9.8c0.4,0.3,0.7,0.7,1.1,1
			v17.4c0,11.3,8.3,19.5,19.8,19.5H525c3.2,0,6.2-0.7,8.9-1.9c1.7,0.8,3.6,1.2,5.6,1.2c10.6,0,19.7-2.2,27.2-6.5
			c2.3,4.3,6.8,7.2,12.1,7.2h7.2c2.4,0,4.8-0.3,7-1c1.6,0.6,3.3,1,5.1,1h6.2c4.7,0,9.1-1.2,12.9-3.5c3.2,2.1,7.2,3.4,11.6,3.4h22.8
			c3.9,0,9.4-0.2,15.3-1.2c1.9,0.9,4,1.5,6.2,1.5h6.7c7,0,13.2-2.6,18.1-7.5c4.9-4.9,7.5-11.2,7.5-18.1v-72.4
			C705,359.8,698.9,353.6,691.3,353.6z"/>
		<g>
			<path class="st0" d="M472.3,411.4c-5.1,2.1-9.9,3.1-14.4,3.2v-15.1c3.9-0.5,7.4-2.2,10.7-5.3c3-2.8,4.7-8.1,5-15.7h-9.9
				c-3.6,0-5.3-1.5-5.3-5v-9.1h48.9v9.1c0,3.6-1.7,5-5.3,5h-9.3c0.3,7.6,1.7,12.9,4.6,15.7c3.1,3.1,6.6,4.9,10.6,5.3v15.1
				c-4.5-0.1-9.2-1.1-14.1-3.2c-5-2.1-8.4-5-10.4-8.4C481.1,406.4,477.4,409.3,472.3,411.4z M469.1,448.6c-3.8,0-6.1-2.1-6.1-5.8
				v-26h18.7v17.4H529v8.5c0,3.7-2.4,5.8-6.2,5.8H469.1z M528.6,382.2h12.1v10.5c0,3.8-2.4,5.4-6.4,5.4h-5.7v20.8
				c0,3.8-2.8,6.2-7.1,6.2H510v-61h18.6V382.2z"/>
			<path class="st0" d="M593.2,439.3c0,5.4-3.8,9.2-9.5,9.2h-7.2v-38.7h-3.2c-0.8,12.6-3.8,21.8-8.8,27.6c-6,7-15.1,10.5-27.2,10.5
				v-14.6c12,0,18.5-9.1,18.5-28.8v-25.6h-13.1c-2.9,0-5.4-2-5.4-5.6v-8.7h36.2v30.1h3v-30.4h16.7V439.3z M595.7,364.2h17v73.5
				c0,2.8-1,5.3-3,7.4c-2,2.2-4.6,3.3-7.8,3.3h-6.2V364.2z"/>
			<path class="st0" d="M619.9,364.5h44.3v9.3c0,3.6-1.8,5.1-5.4,5.1l-20.2-0.1V434h11c5,0,11-0.6,17.3-2.3v14.4
				c-6.3,1.8-12.9,2.1-17.7,2.1h-22.8c-4.1,0-6.4-2.2-6.4-6.3V364.5z M689.2,436.6c0,3.4-1.2,6.2-3.5,8.4c-2.3,2.3-5,3.5-8.4,3.5
				h-6.7v-36.5h-14.9c-3,0-5.2-2.1-5.2-5.1v-9.6h20.1v-33.1h18.6V436.6z"/>
		</g>
	</g>
</g>
</svg>
