<?xml version="1.0" encoding="utf-8"?>
<!-- Generator: Adobe Illustrator 22.0.1, SVG Export Plug-In . SVG Version: 6.00 Build 0)  -->
<svg version="1.1" id="레이어_1" xmlns="http://www.w3.org/2000/svg" xmlns:xlink="http://www.w3.org/1999/xlink" x="0px"
	 y="0px" viewBox="0 0 716.7 424.2" style="enable-background:new 0 0 716.7 424.2;" xml:space="preserve">
<style type="text/css">
	.st0{fill:#FFFFFF;}
	.st1{fill:#262626;}
	.st2{fill:#FFCC00;}
</style>
<g>
	<path class="st0" d="M276.4,7.7l-20.1,8.6L238,24.2l-12.8-11.8l-11-10.2l-10.2,11L192.2,26l-18.9-6.5l-20.7-7l0.8,21.8l1.4,37
		l0.1,3.6L69.9,89C58.4,91,49,99.1,45.5,110.3l-10,31.8c-1.9,5.9-0.8,12.4,2.9,17.4c1.9,2.6,4.4,4.6,7.2,6c0.5,1,1.1,2,1.8,3
		c2.4,3.2,5.7,5.6,9.4,6.9c-11.5,13.7-20.9,30.3-26.9,48.2c-10,29.9-9.1,59.4,2.5,83.1c4.1,8.3,9.8,15.3,16.6,20.9
		c1.5,1.9,3.1,3.6,4.8,5.3c-5.2,0.3-13.2,1-21.3,2.8c-15.7,3.5-25.2,9.8-28.9,19.3c-2.7,6.9-3.4,17.8,9.2,30.4
		c1.7,1.7,3.4,3.2,5.1,4.7c1.1,1.4,2.4,2.9,3.9,4.3c25.7,25.7,61.5,25.8,96.1,25.9l0.2,0c18.3,0,160.3-10.3,287-20.2
		c50.5-4,123.4-9.8,183.4-15.2c85.7-7.6,90-9.2,93.1-10.4c7.9-3,22.5-8.4,23.3-22.1c0.6-9.6-6.2-15.8-11.4-19.2
		c-2.8-4.8-7.3-8-10.6-10c-4.9-6.2-8.6-9.7-18.2-13.6c-1.8-0.7-3.9-1.3-6.1-1.7c0.1-0.1,0.2-0.1,0.3-0.2c1.7-1.3,3.5-2.6,5.2-3.9
		c2.5-2,5-4.1,7.4-6.3c2.4-2.2,4.7-4.5,6.9-6.8c0.7-0.8,1.5-1.6,2.2-2.4c1.4-1.6,2.8-3.2,4.2-4.9c1.4-1.7,2.7-3.4,3.9-5.1
		c1.3-1.7,2.5-3.5,3.7-5.3c2.2-3.4,4.3-6.8,6.2-10.4c0.6-1.2,1.3-2.4,1.9-3.6c1-1.9,1.9-3.9,2.8-5.9c7.2-16.4,10.8-33.7,10.8-51.7
		c0-3-0.1-6-0.3-8.9c-0.7-10.7-2.8-21.2-6.1-31.3c-0.6-1.8-1.2-3.6-1.9-5.4c-0.8-2-1.6-4-2.5-6c-0.9-2-1.8-3.9-2.8-5.9
		c-0.7-1.4-1.5-2.9-2.2-4.3c-1.5-2.8-3.2-5.6-5-8.3c-0.9-1.3-1.8-2.7-2.7-4c-0.6-0.9-1.2-1.8-1.9-2.6c-1.3-1.7-2.6-3.4-3.9-5.1
		c-1.3-1.7-2.8-3.3-4.2-4.9c-0.7-0.8-1.4-1.6-2.2-2.4c-2.2-2.3-4.5-4.6-6.9-6.8c-0.2-0.2-0.3-0.3-0.5-0.5c-0.5-0.6-1.1-1.2-1.6-1.8
		c-2.2-2.3-4.5-4.6-6.9-6.8c-2.4-2.2-4.8-4.3-7.4-6.3c-1.7-1.3-3.4-2.7-5.2-3.9c-2.6-1.9-5.3-3.7-8.1-5.4c-3.7-2.3-7.5-4.4-11.4-6.3
		c-1-0.5-2-1-3-1.4c-3-1.4-6-2.7-9.1-3.8c-2.1-0.8-4.2-1.5-6.3-2.2c-14-4.6-28.7-6.9-43.6-6.9c-1.6,0-3.2,0-5.2,0.1l-0.5,0h-9.8
		h-47.9h-15v15v190.9c-0.2-0.2-0.3-0.4-0.5-0.6c-2.8-3.4-5.5-6.6-8.4-8.9c-0.4-0.4-0.9-0.7-1.4-1c-2.5-3-5-5.9-7.6-8
		c-5.2-4.2-11.5-6.4-18.1-6.4c-7.3,0-14.6,2.7-21.1,7.6l9.4-146.3c0-0.2,0-0.4,0-0.5c0-0.8,0.1-1.7,0.1-2.8c0.8-17,0.8-36-9.3-46.6
		c-1.6-1.7-3.4-3.1-5.4-4.2c-1-1.7-2.2-3.3-3.6-4.8c-1.2-1.2-2.5-2.3-3.9-3.3c-0.5-0.7-1.1-1.4-1.7-2.1c-1.9-2.1-3.9-3.7-5.8-4.8
		c-0.9-1.4-1.9-2.8-3.2-4.2c-5.8-6.4-12.3-7.8-16.8-7.8c0,0,0,0,0,0c0,0,0,0,0,0c-1.9,0-3.9,0.3-5.9,0.7
		c-5.6,1.4-15.5,6.1-19.2,21.5c-1.6,6.7-1.7,13.8-1.7,18.9c0,1.5,0,3.1-0.1,3.9c-1.8,23.5-3.6,46.1-5.4,68.2
		c-1.4-5.5-3.3-10.9-6.9-15c-1.6-1.9-3.6-3.3-5.8-4.2c-0.9-1.7-1.9-3.4-3.2-4.8c-0.9-1.1-2-2-3.1-2.7c-1.8-3-4-5.7-7.1-7.7
		c-0.6-0.4-1.2-0.7-1.8-1c-1.9-3.1-4.1-5.9-7.2-8c-4.2-2.7-8.6-4-13.1-4c-5.6,0-16,2.2-22.9,16.7c-0.4,0.9-0.8,1.9-1.2,2.8
		c-0.2-0.4-0.5-0.8-0.7-1.2c-2.8-4.6-6-7.4-9.1-9.2c-1.4-2.2-2.8-4-4.3-5.4l14-0.5l-0.6-15l-1.4-37l-0.8-21.8L276.4,7.7z"/>
	<g>
		<path class="st1" d="M431.7,277.3c-8.2,13.6,12.7,38,24.6,39.7c16.4,2.3,36.3-16.4,27.6-32.9c-3.9-7.4-4.7-7-10.1-12.4
			c-3.2-3.2-7.9-9.7-10.9-12.1C451.3,250.2,434.2,263.6,431.7,277.3z"/>
		<path class="st1" d="M273,340.4c2.1-4.9,3.7-26.1,4.3-31.6l5.6-73.4l15.7-2.7c0.4,25.4-7.6,76.6-7.6,76.6c-0.2,3.7,2.2,7,5.8,7.8
			c2,0.5,8.7-0.6,11-0.2c7.1,1,11.9-1.8,15.1-11.1c3.2-9.3,3.2-71.7,6.5-79.3c0,0,14.6,54.7,27.7,75.2c13.5,21.2,46.1,13.5,49.1-14
			l12.5-194.7c0.3-8.9,3.5-43.2-12.2-41.1c-4.9-5.9-6.8-16.9-15.6-14.7c-11.4,2.9-9.2,23.6-9.7,31c-4.4,55.8-8.7,111.5-13.8,167.2
			c-12.9-28.6-19.3-61.3-27.2-91.8c-1.6-6-2.7-18.1-6.6-22.7c0.1,0.2-7.2-2.5-7.9-3.3c-2.1-2.8-5.3-11.5-8-13.3
			c-11.4-7.3-17.3,11.6-17.8,19.7c-1.7,30.3,0.9,54.2-0.3,83.1c-5.1,0.6-11.4,1.9-15.2,0.8c0,0,2.9-40.8,2.2-54.8
			c-0.7-14-3.6-26.4-3.6-26.4c-3.3-8.9-6.2-8-12.7-12.5c-1.8-4.8-5.3-15.7-11.9-14v0l0,0c-4.2,1.5-5.5-0.3-9.3-3.9l-5-7
			c-7.9-15.7-12.8-12.1-28.8-9L72.4,103.8c-5.9,1-10.8,5.2-12.6,10.9l-10,31.8c-1.1,3.4,2,6.7,5.5,5.8c27.3-7.1,115.9-29.9,130.3-32
			c-11.4,37.8-25.8,76.1-42.8,111.7c-8.3,17.3-24.6,60.3-52.3,57.2c-10.5-1.2-12.5-15.5-11-30c1.4-13.4,12.4-36.5,20.5-47.9
			c7.6-10.6,35.6-35.5,55.3-46.4c3.4-1.9,5.1-5.9,4-9.5c-1.3-4.3-4.3-7-4.3-7c-3.3-3.5-7.7-7.6-20.2-5.1
			c-11.9,2.4-27.1,8.4-50.3,26.1C49.7,196,24.4,256.6,45.8,300.1c14.1,28.5,50.7,34.1,77.8,20c28.8-15.1,45.2-54.8,56.7-84
			c2,4,13.3,0.8,12.8,4.8c-1.2,9.4-16.3,42.7-24.8,64.3c-3.8,9.6,3.1,20.1,13.4,20.3c6.6,0.2,12.9-0.2,15.4-2
			c9.3-6.6,25.7-62.6,34.4-83.7v0c6.8-0.7,13.2-1,20-1.4c-1.2,15.5-11.4,80.7-11.7,102.8l-181.5,6.6c-13.1,0.4-57.6,4.3-34.8,27.1
			c21.3,21.3,52.9,21.4,85.5,21.5c32.6,0.1,542.5-38.9,558.5-44.9s18.1-10.1,5.6-16.6c-5-6.5-6.4-8.3-13.9-11.3
			c-6-2.4-17.4-1-23.3-0.7L273,340.4z M237.7,115c-6.8,15.6-11,32.9-17,48.9c-3.3,8.8-8.5,23.6-11.6,32.5
			c-5.7,16.3-1.2,10.2-16.9,11.8c6.8-18.7,13.8-37.2,20.3-56c3.3-9.5,6-19.8,9.7-29c4.7-11.6,3.8-9.4,17.7-12.6
			C239.1,111.9,238.4,113.4,237.7,115z M253.7,198.1c0,1.5-0.4,7.9-0.5,9.4c-3.3,0.3-8.4,0.2-11.8,0.6c3.5-8.9,9.3-21.3,12.4-30.5
			C253.8,185,253.7,190.8,253.7,198.1z"/>
		<path class="st2" d="M263.7,67.1l-93.9,3.6l-1.4-37l28.2,9.6l18.5-20l20,18.5l27.3-11.7L263.7,67.1z M249.9,43.2l0.7,17.3l7.6-0.3
			l-0.8-20.6L249.9,43.2z M240.7,47.1l0.5,13.9l3.6-0.1l-0.6-15.3L240.7,47.1z"/>
		<g>
			<g>
				<path class="st1" d="M568.5,160.9c18.1,0,32.8,14.2,32.8,31.7c0,17.5-14.7,31.7-32.8,31.7c-1.6,0-3.1-0.1-4.6-0.3v22
					c1.5,0.1,3.1,0.2,4.6,0.2c13.4,0,25.7-4.6,35.3-12.2c2.7-2.2,5.3-4.6,7.5-7.3c1.1-1.3,2.2-2.7,3.2-4.1c1.5-2.1,2.8-4.4,4-6.7
					c1.2-2.3,2.2-4.8,3-7.3c1.6-5,2.5-10.4,2.5-15.9c0-10.2-2.9-19.7-8-27.8c-1.9-2.9-4-5.7-6.4-8.2c-1.2-1.3-2.5-2.5-3.8-3.6
					c-2-1.7-4.1-3.3-6.3-4.8c-8.9-5.8-19.5-9.1-31-9.1c-1.6,0-3.1,0.1-4.6,0.2v22C565.4,161,567,160.9,568.5,160.9z"/>
				<path class="st1" d="M568.5,208.1c8.9,0,16.1-7,16.1-15.6c0-8.6-7.2-15.6-16.1-15.6c-1.6,0-3.2,0.2-4.6,0.7v29.8
					C565.4,207.9,566.9,208.1,568.5,208.1z"/>
				<path class="st1" d="M584.7,192.6c0-8.6-7.2-15.6-16.1-15.6c-1.6,0-3.2,0.2-4.6,0.7v29.8c1.5,0.4,3,0.7,4.6,0.7
					C577.5,208.1,584.7,201.2,584.7,192.6z"/>
				<path class="st1" d="M603.8,233.9c2.7-2.2,5.3-4.6,7.5-7.3c1.1-1.3,2.2-2.7,3.2-4.1c1.5-2.1,2.8-4.4,4-6.7
					c1.2-2.3,2.2-4.8,3-7.3c1.6-5,2.5-10.4,2.5-15.9c0-10.2-2.9-19.7-8-27.8c-1.9-2.9-4-5.7-6.4-8.2c-1.2-1.3-2.5-2.5-3.8-3.6
					c-2-1.7-4.1-3.3-6.3-4.8c-8.9-5.8-19.5-9.1-31-9.1c-1.6,0-3.1,0.1-4.6,0.2v22c1.5-0.2,3.1-0.3,4.6-0.3
					c18.1,0,32.8,14.2,32.8,31.7c0,17.5-14.7,31.7-32.8,31.7c-1.6,0-3.1-0.1-4.6-0.3v22c1.5,0.1,3.1,0.2,4.6,0.2
					C582,246.1,594.3,241.5,603.8,233.9z"/>
				<path class="st1" d="M689.8,184.7c-0.7-9.6-2.5-18.8-5.4-27.6c-0.5-1.6-1.1-3.2-1.7-4.8c-0.7-1.8-1.4-3.6-2.2-5.3
					c-0.8-1.8-1.6-3.5-2.4-5.2c-0.6-1.3-1.3-2.5-2-3.8c-1.4-2.5-2.8-5-4.4-7.4c-0.8-1.2-1.6-2.4-2.4-3.6c-0.5-0.8-1.1-1.6-1.7-2.3
					c-1.1-1.5-2.3-3-3.5-4.5c-1.2-1.5-2.4-2.9-3.7-4.3c-0.6-0.7-1.3-1.4-1.9-2.1c-2-2.1-4-4.1-6.1-6c-2.1-1.9-4.3-3.8-6.5-5.6
					c-1.5-1.2-3-2.4-4.6-3.5c-2.3-1.7-4.7-3.3-7.2-4.8c-3.3-2-6.7-3.9-10.2-5.6c-0.9-0.4-1.8-0.9-2.6-1.3c-2.7-1.2-5.4-2.4-8.1-3.4
					c-1.8-0.7-3.7-1.4-5.6-2c-12.2-4-25.3-6.2-39-6.2c-1.6,0-3.1,0-4.6,0.1v57c1.5-0.1,3.1-0.2,4.6-0.2c34.5,0,62.5,27.1,62.5,60.3
					c0,33.3-28,60.3-62.5,60.3c-1.6,0-3.1-0.1-4.6-0.2v57c1.5,0.1,3.1,0.1,4.6,0.1c7.9,0,15.6-0.7,23-2.1c2.5-0.5,4.9-1,7.4-1.6
					c1.9-0.5,3.9-1,5.8-1.6c8.9-2.7,17.5-6.3,25.4-10.8c0.8-0.5,1.6-0.9,2.4-1.4c3-1.8,5.9-3.7,8.7-5.7c1.6-1.1,3.1-2.3,4.6-3.5
					c2.3-1.8,4.4-3.7,6.5-5.6c2.1-1.9,4.1-4,6.1-6c0.7-0.7,1.3-1.4,1.9-2.1c1.3-1.4,2.5-2.9,3.7-4.3c1.2-1.5,2.4-3,3.5-4.5
					c1.1-1.5,2.2-3.1,3.3-4.7c2-3,3.8-6,5.5-9.2c0.6-1,1.1-2.1,1.6-3.2c0.9-1.7,1.7-3.4,2.4-5.2c6.1-14,9.5-29.4,9.5-45.6
					C690.1,189.9,690,187.3,689.8,184.7z M642.6,166.1c-7.9-20.6-24.7-36.9-46-44.7l0.8-2.1c22,8,39.2,24.8,47.4,46.1L642.6,166.1z
					 M649.8,159.2c-8.9-20.1-25.3-36.1-46.1-44.8l0.9-2.1c21.4,9,38.2,25.3,47.4,46L649.8,159.2z M656.8,152.5
					c-9.6-19.6-26-35.5-46.2-44.8l1-2c20.7,9.6,37.5,25.9,47.3,45.9L656.8,152.5z"/>
			</g>
			<rect x="505.2" y="75.5" class="st1" width="47.9" height="234.1"/>
		</g>
	</g>
</g>
</svg>
