<?xml version="1.0" encoding="utf-8"?>
<!-- Generator: Adobe Illustrator 22.0.1, SVG Export Plug-In . SVG Version: 6.00 Build 0)  -->
<svg version="1.1" id="레이어_1" xmlns="http://www.w3.org/2000/svg" xmlns:xlink="http://www.w3.org/1999/xlink" x="0px"
	 y="0px" viewBox="0 0 705.2 422.2" style="enable-background:new 0 0 705.2 422.2;" xml:space="preserve">
<style type="text/css">
	.st0{fill:#FFFFFF;}
	.st1{fill:#262626;}
	.st2{fill:#EBAF00;}
</style>
<g>
	<path class="st0" d="M693.4,330.3c-2.5-5.4-7.5-8.9-11.1-11c-4.9-6.1-8.4-9.6-17.9-13.4c-4.1-1.7-9-2.4-15.4-2.4
		c-4.1,0-8,0.3-11.2,0.6c-1,0.1-1.9,0.2-2.8,0.2l-6.6,0.3c0.9-0.7,1.8-1.4,2.7-2.1c2.6-2.1,5.2-4.3,7.6-6.5c2.4-2.2,4.8-4.6,7.1-7
		c0.8-0.8,1.5-1.6,2.3-2.4c1.5-1.6,2.9-3.3,4.3-5.1c1.4-1.7,2.8-3.5,4.1-5.3c1.3-1.8,2.6-3.6,3.8-5.5c2.3-3.5,4.5-7.1,6.4-10.7
		c0.7-1.2,1.3-2.5,1.9-3.7c1-2,2-4,2.8-6.1c7.4-16.9,11.2-34.9,11.2-53.4c0-3.1-0.1-6.2-0.3-9.2c-0.8-11-2.9-21.9-6.3-32.4
		c-0.6-1.9-1.3-3.7-2-5.6c-0.8-2.1-1.6-4.2-2.5-6.2c-0.9-2-1.8-4.1-2.8-6.1c-0.7-1.5-1.5-3-2.3-4.4c-1.6-2.9-3.3-5.8-5.1-8.6
		c-0.9-1.4-1.8-2.8-2.8-4.1c-0.6-0.9-1.3-1.8-1.9-2.7c-1.3-1.8-2.7-3.5-4.1-5.3c-1.4-1.7-2.8-3.4-4.3-5.1c-0.7-0.8-1.5-1.7-2.3-2.4
		c-0.4-0.4-0.8-0.9-1.3-1.3c-0.1-0.1-0.1-0.1-0.2-0.2c-1.4-1.7-2.8-3.4-4.3-5.1c-0.7-0.8-1.5-1.7-2.3-2.4c-2.3-2.4-4.7-4.8-7.1-7
		c-2.4-2.2-5-4.4-7.6-6.5c-1.7-1.4-3.5-2.7-5.3-4c-2.7-2-5.5-3.8-8.4-5.6c-3.8-2.4-7.8-4.6-11.8-6.5c-1-0.5-2-1-3.1-1.5
		c-3.1-1.4-6.3-2.8-9.4-4c-2.1-0.8-4.3-1.6-6.5-2.3c-14.5-4.7-29.7-7.1-45.1-7.1c-1.6,0-3.4,0-5.4,0.1l-14.4,0.5v14.4v59.2v124.8
		v59.2v0.6l-9.1,0.4c0.8-1,1.5-2,2.1-3.1c5.7-9.4,6.1-20.1,1.2-29.4c-3.1-5.9-5-8.1-8.4-11.2c-0.6-0.5-1.1-1.1-1.8-1.7
		c-2-3.2-3.7-4.9-6.2-7.2c-0.5-0.5-1-1-1.6-1.5c-0.1-0.1-0.1-0.1-0.2-0.2c-0.1-0.1-0.2-0.1-0.2-0.2c-0.5-0.5-1.7-1.9-2.6-3
		c-2.2-2.6-4.4-5.3-6.9-7.3c-4.6-3.7-10.2-5.7-16-5.7c-14,0-27.5,11.3-31.4,25.8c-3.4,7.4-2.9,16.2,1.3,25.1
		c2.7,5.7,7.1,11.6,12.3,16.3c1.4,2,3.1,4,4.8,5.9l-31.1,1.5c4.3-6.1,7-13.3,7.9-21.3c0-0.2,0-0.4,0.1-0.6L440.4,98
		c0-0.2,0-0.3,0-0.5c0-0.8,0.1-1.7,0.1-2.9c0.8-16.8,0.8-35.5-9.1-45.9c-1.2-1.2-2.5-2.3-3.9-3.2c-1.1-2.1-2.5-4-4.1-5.7
		c-1.7-1.8-3.6-3.2-5.7-4.3c-0.3-0.4-0.6-0.7-0.9-1c-1.4-1.5-2.8-2.7-4.2-3.7c-1.1-1.8-2.3-3.6-3.8-5.3c-5.5-6.1-11.8-7.4-16.1-7.4
		c0,0,0,0,0,0c-1.8,0-3.7,0.2-5.6,0.7c-5.4,1.4-14.9,5.8-18.5,20.8c-1.6,6.6-1.7,13.6-1.7,18.7c0,1.6,0,3.2-0.1,4
		c-2.1,27.4-4.2,53.5-6.3,78.9c-0.1-0.7-0.3-1.4-0.4-2.1c-1.5-7.9-3.2-17-8.4-23.1c-1.3-1.5-2.8-2.7-4.5-3.5c-1-2-2.1-3.9-3.5-5.5
		c-1.3-1.5-2.9-2.7-4.6-3.5c-1.7-2.6-3.7-5-6.3-6.7c-0.1-0.1-0.3-0.2-0.4-0.3c-1.9-3.4-4.2-6.6-7.5-8.7c-4-2.6-8.2-3.9-12.5-3.9
		c-5.3,0-15.3,2.1-21.9,16.1c-0.8,1.6-1.5,3.3-2,5c-0.5-0.5-1.1-1-1.6-1.4c-0.3-0.6-0.7-1.3-1.1-1.9c-2.3-3.7-4.9-6.3-7.4-8
		c-0.2-0.3-0.4-0.7-0.6-1c-3.4-5.5-7.4-8.4-11-9.9l5.3-0.2l11-0.4l-0.4-11l-1.4-37l-0.6-16l-8-8.8l0-0.2l-0.1,0.1L272.4,9L272,9.3
		l-14,6l-20.8,8.9l-14.7-13.6l-8.1-7.5l-7.5,8.1L193.3,26l-21.4-7.3l-15.1-5.2l0.6,16l1.4,37l0.2,4.1L70.1,85.4
		c-11.2,1.9-20.2,9.7-23.6,20.5l-10,31.8c-1.8,5.6-0.7,11.8,2.7,16.5c1.6,2.1,3.6,3.9,5.8,5.2c0.6,1.3,1.3,2.6,2.2,3.8
		c2.7,3.7,6.8,6.3,11.2,7.2c-11.8,13.7-21.5,30.7-27.6,48.9c-9.9,29.7-9.1,58.9,2.5,82.3c3.4,6.9,8,13,13.5,18
		c2.5,3.5,5.4,6.7,8.6,9.6c-5,0.2-13.8,0.9-22.5,2.9c-15.3,3.4-24.6,9.5-28.2,18.7c-2.6,6.6-3.2,17.1,9,29.3
		c0.8,0.8,1.6,1.5,2.4,2.3c1.5,2.2,3.3,4.4,5.6,6.7c25.4,25.4,61,25.5,95.4,25.6l0.2,0c18.3,0,160.2-10.3,287-20.2
		c50.5-4,123.4-9.8,183.4-15.2c85.5-7.6,90-9.3,92.9-10.4c7.6-2.9,21.8-8.2,22.7-21.2C703.5,339.3,698.3,333.7,693.4,330.3z"/>
	<path class="st1" d="M533.6,154.9c18.8,0,34.1,14.7,34.1,32.9c0,18.2-15.3,32.9-34.1,32.9c-1.6,0-3.2-0.1-4.8-0.3v22.8
		c1.6,0.1,3.2,0.2,4.8,0.2c13.9,0,26.7-4.8,36.6-12.7c2.8-2.3,5.5-4.8,7.8-7.5c1.2-1.4,2.3-2.8,3.3-4.3c1.6-2.2,2.9-4.5,4.2-7
		c1.2-2.4,2.2-5,3.1-7.6c1.7-5.2,2.6-10.8,2.6-16.5c0-10.5-3-20.4-8.3-28.8c-1.9-3.1-4.1-5.9-6.6-8.5c-1.2-1.3-2.5-2.6-3.9-3.8
		c-2-1.8-4.2-3.4-6.5-4.9c-9.2-6-20.3-9.5-32.2-9.5c-1.6,0-3.2,0.1-4.8,0.2v22.8C530.4,155,532,154.9,533.6,154.9z"/>
	<path class="st1" d="M533.6,203.9c9.2,0,16.7-7.2,16.7-16.2c0-8.9-7.5-16.2-16.7-16.2c-1.7,0-3.3,0.2-4.8,0.7v30.9
		C530.3,203.7,531.9,203.9,533.6,203.9z"/>
	<path class="st1" d="M550.4,187.8c0-8.9-7.5-16.2-16.7-16.2c-1.7,0-3.3,0.2-4.8,0.7v30.9c1.5,0.4,3.1,0.7,4.8,0.7
		C542.9,203.9,550.4,196.7,550.4,187.8z"/>
	<path class="st1" d="M570.2,230.7c2.8-2.3,5.5-4.8,7.8-7.5c1.2-1.4,2.3-2.8,3.3-4.3c1.6-2.2,2.9-4.5,4.2-7c1.2-2.4,2.2-5,3.1-7.6
		c1.7-5.2,2.6-10.8,2.6-16.5c0-10.5-3-20.4-8.3-28.8c-1.9-3.1-4.1-5.9-6.6-8.5c-1.2-1.3-2.5-2.6-3.9-3.8c-2-1.8-4.2-3.4-6.5-4.9
		c-9.2-6-20.3-9.5-32.2-9.5c-1.6,0-3.2,0.1-4.8,0.2v22.8c1.6-0.2,3.2-0.3,4.8-0.3c18.8,0,34.1,14.7,34.1,32.9
		c0,18.2-15.3,32.9-34.1,32.9c-1.6,0-3.2-0.1-4.8-0.3v22.8c1.6,0.1,3.2,0.2,4.8,0.2C547.5,243.4,560.3,238.6,570.2,230.7z"/>
	<path class="st1" d="M659.5,179.6c-0.7-9.9-2.6-19.6-5.6-28.7c-0.5-1.7-1.1-3.3-1.8-4.9c-0.7-1.9-1.5-3.7-2.3-5.5
		c-0.8-1.8-1.6-3.6-2.5-5.4c-0.7-1.3-1.4-2.6-2.1-3.9c-1.4-2.6-2.9-5.2-4.6-7.6c-0.8-1.2-1.6-2.5-2.5-3.7c-0.6-0.8-1.1-1.6-1.7-2.4
		c-1.2-1.6-2.4-3.2-3.6-4.7c-1.2-1.5-2.5-3-3.9-4.5c-0.7-0.7-1.3-1.5-2-2.2c-2-2.2-4.2-4.3-6.3-6.3c-2.2-2-4.5-4-6.8-5.8
		c-1.6-1.2-3.1-2.4-4.8-3.6c-2.4-1.8-4.9-3.4-7.5-5c-3.4-2.1-6.9-4.1-10.6-5.9c-0.9-0.4-1.8-0.9-2.7-1.3c-2.8-1.3-5.6-2.5-8.4-3.6
		c-1.9-0.7-3.8-1.4-5.8-2c-12.7-4.1-26.3-6.4-40.5-6.4c-1.6,0-3.2,0-4.8,0.1v59.2c1.6-0.1,3.2-0.2,4.8-0.2
		c35.8,0,64.9,28.1,64.9,62.6c0,34.5-29.1,62.6-64.9,62.6c-1.6,0-3.2-0.1-4.8-0.2v59.2c1.6,0.1,3.2,0.1,4.8,0.1
		c8.2,0,16.1-0.7,23.9-2.2c2.6-0.5,5.1-1,7.6-1.7c2-0.5,4-1,6-1.6c9.3-2.8,18.1-6.6,26.4-11.3c0.9-0.5,1.7-1,2.5-1.5
		c3.1-1.9,6.1-3.9,9.1-6c1.6-1.2,3.2-2.4,4.8-3.6c2.3-1.9,4.6-3.8,6.8-5.8c2.2-2,4.3-4.1,6.3-6.3c0.7-0.7,1.3-1.4,2-2.2
		c1.3-1.5,2.6-3,3.9-4.5c1.2-1.5,2.5-3.1,3.6-4.7c1.2-1.6,2.3-3.2,3.4-4.9c2.1-3.1,4-6.3,5.7-9.5c0.6-1.1,1.2-2.2,1.7-3.3
		c0.9-1.8,1.7-3.6,2.5-5.4c6.4-14.6,9.9-30.6,9.9-47.4C659.8,185,659.7,182.3,659.5,179.6z M610.5,160.3
		c-8.2-21.4-25.6-38.3-47.8-46.4l0.9-2.2c22.8,8.3,40.7,25.8,49.2,47.8L610.5,160.3z M617.9,153.2c-9.2-20.9-26.2-37.4-47.9-46.5
		l1-2.2c22.2,9.3,39.7,26.3,49.2,47.7L617.9,153.2z M625.2,146.2c-9.9-20.3-27-36.9-47.9-46.5l1.1-2.1c21.5,9.9,38.9,26.9,49.1,47.7
		L625.2,146.2z"/>
	<path class="st1" d="M446.9,270.9c-6.3,10.4,9.7,29.1,18.8,30.4c12.5,1.8,27.8-12.5,21.1-25.2c-3-5.7-3.6-5.3-7.8-9.5
		c-2.4-2.4-6-7.4-8.3-9.3C461.8,250.2,448.8,260.4,446.9,270.9z"/>
	<path class="st1" d="M272.9,335.7c2.1-4.9,3.7-26.1,4.3-31.6l5.6-73.4l15.7-2.7c0.4,25.4-7.6,76.6-7.6,76.6c-0.2,3.7,2.2,7,5.8,7.8
		c2,0.5,8.7-0.6,11-0.2c7.1,1,11.9-1.8,15.1-11.1c3.2-9.3,3.2-71.7,6.5-79.3c0,0,14.6,54.7,27.7,75.2c13.5,21.2,46.1,13.5,49.1-14
		l12.5-194.7c0.3-8.9,3.5-43.2-12.2-41.1c-4.9-5.9-6.8-16.9-15.6-14.7c-11.4,2.9-9.2,23.6-9.7,31c-4.4,55.8-8.7,111.5-13.8,167.2
		c-12.9-28.6-19.3-61.3-27.2-91.8c-1.6-6-2.7-18.1-6.6-22.7c0.1,0.2-7.2-2.5-7.9-3.3c-2.1-2.8-5.3-11.5-8-13.3
		c-11.4-7.3-17.3,11.6-17.8,19.7c-1.7,30.3,0.9,54.2-0.3,83.1c-5.1,0.6-11.4,1.9-15.2,0.8c0,0,2.9-40.8,2.2-54.8
		c-0.7-14-3.6-26.4-3.6-26.4c-3.3-8.9-6.2-8-12.7-12.5c-1.8-4.8-5.3-15.7-11.9-14v0l0,0c-4.2,1.5-5.5-0.3-9.3-3.9l-5-7
		c-7.9-15.7-12.8-12.1-28.8-9L72.4,99.2c-5.9,1-10.8,5.2-12.6,10.9l-10,31.8c-1.1,3.4,2,6.7,5.5,5.8c27.3-7.1,115.9-29.9,130.3-32
		c-11.4,37.8-25.8,76.1-42.8,111.7c-8.3,17.3-24.6,60.3-52.3,57.2c-10.5-1.2-12.5-15.5-11-30c1.4-13.4,12.4-36.5,20.5-47.9
		c7.6-10.6,35.6-35.5,55.3-46.4c3.4-1.9,5.1-5.9,4-9.5c-1.3-4.3-4.3-7-4.3-7c-3.3-3.5-7.7-7.6-20.2-5.1
		c-11.9,2.4-27.1,8.4-50.3,26.1c-34.8,26.6-60.2,87.1-38.7,130.6c14.1,28.5,50.7,34.1,77.8,20c28.8-15.1,45.2-54.8,56.7-84
		c2,4,13.3,0.8,12.8,4.8c-1.2,9.4-16.3,42.7-24.8,64.3c-3.8,9.6,3.1,20.1,13.4,20.3c6.6,0.2,12.9-0.2,15.4-2
		c9.3-6.6,25.7-62.6,34.4-83.7v0c6.8-0.7,13.2-1,20-1.4c-1.2,15.5-11.4,80.7-11.7,102.8L58.3,343c-13.1,0.4-57.6,4.3-34.8,27.1
		c21.3,21.3,52.9,21.4,85.5,21.5c32.6,0.1,542.5-38.9,558.5-44.9s18.1-10.1,5.6-16.6c-5-6.5-6.4-8.3-13.9-11.3
		c-6-2.4-17.4-1-23.3-0.7L272.9,335.7z M237.6,110.3c-6.8,15.6-11,32.9-17,48.9c-3.3,8.8-8.5,23.6-11.6,32.5
		c-5.7,16.3-1.2,10.2-16.9,11.8c6.8-18.7,13.8-37.2,20.3-56c3.3-9.5,6-19.8,9.7-29c4.7-11.6,3.8-9.4,17.7-12.6
		C239.1,107.3,238.3,108.8,237.6,110.3z M253.6,193.5c0,1.5-0.4,7.9-0.5,9.4c-3.3,0.3-8.4,0.2-11.8,0.6c3.5-8.9,9.3-21.3,12.4-30.5
		C253.8,180.4,253.7,186.1,253.6,193.5z"/>
	<path class="st2" d="M263.7,62.4l-93.9,3.6l-1.4-37l28.2,9.6l18.5-20l20,18.5l27.3-11.7L263.7,62.4z M249.9,38.6l0.7,17.3l7.6-0.3
		l-0.8-20.6L249.9,38.6z M240.7,42.4l0.5,13.9l3.6-0.1l-0.6-15.3L240.7,42.4z"/>
</g>
</svg>
