<?xml version="1.0" encoding="utf-8"?>
<!-- Generator: Adobe Illustrator 22.0.1, SVG Export Plug-In . SVG Version: 6.00 Build 0)  -->
<svg version="1.1" id="레이어_1" xmlns="http://www.w3.org/2000/svg" xmlns:xlink="http://www.w3.org/1999/xlink" x="0px"
	 y="0px" viewBox="0 0 922.4 433.6" style="enable-background:new 0 0 922.4 433.6;" xml:space="preserve">
<style type="text/css">
	.st0{fill:#262626;}
	.st1{fill:url(#SVGID_1_);}
	.st2{fill:url(#SVGID_2_);}
	.st3{fill:#FFCC00;}
	.st4{fill:url(#SVGID_3_);}
	.st5{fill:url(#SVGID_4_);}
	.st6{fill:url(#SVGID_5_);}
	.st7{fill:url(#SVGID_6_);}
	.st8{fill:url(#SVGID_7_);}
</style>
<g>
	<path class="st0" d="M248.6,4.5l-19.3,10.2L211.6,24L198,13.3L186.2,4l-9.3,11.8l-10.8,13.6l-19.3-5L125.7,19l2.5,21.7l4.3,36.8
		l0.4,3.4l-83.7,20.9c-11.3,2.8-20,11.6-22.7,23l0,0l0,0L19,157.4c-1.3,5.9,0,11.9,3.8,16.6c1.5,1.9,3.4,3.5,5.4,4.7
		c0.5,0.8,1,1.6,1.6,2.3c3.4,4.2,8.2,6.8,13.4,7.3c-10.6,14.7-18.8,32.3-23.4,50.9c-7.6,30.6-4.4,60,9.1,82.6
		c3.5,5.9,8,11.2,13.2,15.6c2.8,3.3,6,6.3,9.4,8.9c-5.2,0.7-12.6,2.1-20,4.3C16,355.3,7,362.4,4,372.1c-2.2,7.1-2,18,11.5,29.5
		c0.2,0.2,0.5,0.4,0.7,0.6c1.7,2.1,3.7,4.2,6.3,6.4c20.7,17.7,45.6,20,65.1,20c10.7,0,21.7-0.8,32.4-1.6l0.4,0
		c17.6-1.3,158.3-22.7,284.3-42.6c70.8-11.2,135.4-21.7,182-29.5c85-14.3,89.1-16.3,92.2-17.7c7.6-3.5,21.7-10.2,21.5-23.8
		c-0.1-7.9-5-13.1-9.8-16.4c-3.1-4.9-8.1-8-11.7-9.8c-5.3-5.7-9.3-8.9-19.3-12.1c-1.8-0.6-3.8-1-6-1.2c0.1-0.1,0.1-0.2,0.2-0.3
		c1.5-2,3-4.2,4.4-6.3c2.6-4,5.1-8.1,7.4-12.3c0.8-1.4,1.5-2.8,2.2-4.3c1.1-2.3,2.2-4.6,3.3-7c8.5-19.4,12.8-40.1,12.8-61.3
		c0-3.5-0.1-7.1-0.4-10.6c-0.9-12.7-3.3-25.2-7.3-37.2c-0.7-2.1-1.5-4.3-2.3-6.4c-0.9-2.4-1.9-4.8-2.9-7.2c-1-2.3-2.1-4.7-3.3-7
		c-0.9-1.7-1.8-3.4-2.7-5.1c-1.8-3.3-3.8-6.7-5.9-9.9c-1-1.6-2.1-3.2-3.2-4.8c-0.7-1-1.5-2.1-2.2-3.1c-1.5-2-3.1-4.1-4.7-6
		c-1.6-2-3.3-3.9-5-5.8c-0.9-0.9-1.7-1.9-2.6-2.8c-2.1-2.3-4.4-4.5-6.7-6.6c-0.1-0.1-0.2-0.2-0.3-0.4c-2.6-2.8-5.4-5.5-8.2-8.1
		c-2.8-2.6-5.8-5.1-8.7-7.5c-2-1.6-4.1-3.2-6.1-4.6c-3.1-2.2-6.4-4.4-9.6-6.4c-4.4-2.7-9-5.2-13.6-7.5c-1.2-0.6-2.3-1.1-3.5-1.7
		c-3.5-1.6-7.2-3.2-10.8-4.6c-2.4-0.9-5-1.8-7.4-2.6c-16.7-5.4-34.1-8.2-51.9-8.2c-1.9,0-3.9,0-6.2,0.1L494,18.9v14.5v63.5v0v5.6
		v8.2v7.9v18.8v0v8.7v8.5v0v2.7v36.1v2.7v0v8.5v0v8.7v0v18.8v7.9v8.2v5.6v4.5c-2.6-3.5-4.6-5.4-7.6-7.8c-2.5-3.2-4.5-5-7.6-7.5
		c-0.9-0.7-1.8-1.4-3-2.4c-0.1-0.1-0.2-0.2-0.4-0.3c-0.4-0.4-0.7-0.7-1.1-1.1c-0.8-0.8-1.7-1.7-2.5-2.5c-3.1-3.1-6-6.1-9-8.2
		c-4.9-3.3-10.5-5.1-16.3-5.1c-9.1,0-18,4.2-25.2,11.8l-2.2-150.4l0-0.2l0-0.2c0-0.7-0.1-1.6-0.1-2.6c-0.2-6.1-0.5-16.4-2.5-25.7
		c-1.4-6.4-3.4-11.4-6.2-15.5c-2-2.9-4.4-5.2-7-7c-3-4.3-6.8-7.4-11.1-9.2c-1.4-1.6-3-3.1-4.9-4.5C383.4,14.8,377.4,9,367.7,9h0
		c-2.5,0-5,0.4-7.5,1.3l0,0l0,0c-5.4,1.9-14.9,7.3-17.4,22.9c-1.1,6.8-0.6,13.8-0.3,19c0.1,1.5,0.2,3.1,0.2,3.9
		c0,25.2,0,50.8-0.1,76.5c-0.1-0.3-0.1-0.5-0.2-0.8c-2.1-7.9-4.6-17-10.4-22.9l-2.9-1.5c-1.1-2-2.5-3.9-4.1-5.5l-5.3-2.7
		c-2-3-4.3-5.6-7.4-7.6c-2.2-3.1-4.7-5.8-8-7.6c-3.8-2-7.7-3.1-11.6-3.1c-6,0-11.8,2.5-16.2,7c-4.1,4.2-6.7,9.7-8.3,15.1
		c-0.6-0.4-1.1-0.8-1.7-1.1c-2.1-3.3-4.8-6.6-8.4-9c-1.7-2.4-3.8-4.7-6.3-6.5l12.6-1.5L262.6,70l-4.4-36.8l-2.6-21.7L248.6,4.5z"/>
	<g>
		<linearGradient id="SVGID_1_" gradientUnits="userSpaceOnUse" x1="451.6471" y1="15" x2="451.6471" y2="721.2499">
			<stop  offset="0" style="stop-color:#FFFFFF"/>
			<stop  offset="1" style="stop-color:#CCCCCC"/>
		</linearGradient>
		<path class="st1" d="M424.6,261.2c-7.2,14.2,15.6,36.9,27.7,37.6c16.5,1,34.9-19.2,24.9-35c-4.5-7.1-5.2-6.6-11.1-11.6
			c-3.4-2.9-8.6-9-11.8-11.2C442,232.6,426,247.3,424.6,261.2z"/>
		<linearGradient id="SVGID_2_" gradientUnits="userSpaceOnUse" x1="348.2193" y1="15" x2="348.2193" y2="721.2499">
			<stop  offset="0" style="stop-color:#FFFFFF"/>
			<stop  offset="1" style="stop-color:#CCCCCC"/>
		</linearGradient>
		<path class="st2" d="M271.3,336.5c1.7-5.1,1.7-26.3,1.8-31.9l-0.2-73.6l15.5-4c2.4,25.3-1.6,76.9-1.6,76.9
			c0.1,3.7,2.7,6.8,6.4,7.3c2,0.3,8.6-1.2,10.9-1.1c7.2,0.4,11.7-2.8,14.2-12.3s-2.4-71.7,0.3-79.6c0,0,18.8,53.4,33.5,72.8
			c15.2,20.1,47,9.8,47.8-17.8l-2.8-195.1c-0.4-8.9,0.1-43.3-15.4-40.1c-5.4-5.5-8.1-16.4-16.7-13.5c-11.1,3.8-7.3,24.2-7.3,31.6
			c0,55.9,0,111.8-0.7,167.8c-15.1-27.5-24.1-59.6-34.4-89.4c-2-5.9-4.1-17.8-8.3-22.1c0.1,0.1-7.4-1.9-8.1-2.6
			c-2.3-2.6-6.2-11.1-9-12.6c-11.9-6.4-16.4,12.9-16.2,21c0.7,30.3,5.2,53.9,6.2,82.9c-5,1-11.2,2.8-15.1,2c0,0-0.3-40.9-2.1-54.8
			c-1.8-13.9-5.6-26.1-5.6-26.1c-4-8.6-6.8-7.5-13.6-11.5c-2.2-4.7-6.5-15.3-13-13l0,0l0,0c-4.1,1.8-5.5,0.1-9.5-3.1l-5.6-6.6
			c-9.1-15.1-13.7-11.1-29.4-6.7L52.8,116.4c-5.8,1.4-10.3,6-11.7,11.9l-7.5,32.5c-0.8,3.5,2.6,6.5,5.9,5.3
			c26.6-9.2,113.2-38.9,127.4-42.2c-8.4,38.5-19.8,77.9-33.9,114.7c-6.9,17.9-19.8,62-47.7,61.1c-10.5-0.3-13.7-14.4-13.3-29
			c0.3-13.5,9.5-37.3,16.7-49.4c6.8-11.2,32.7-38.2,51.4-50.6c3.2-2.1,4.6-6.2,3.2-9.8c-1.7-4.2-4.9-6.6-4.9-6.6
			c-3.5-3.2-8.3-6.9-20.5-3.5c-11.7,3.3-26.3,10.5-48.1,29.9c-32.4,29.4-52.9,91.7-28.1,133.4c16.3,27.3,53.2,30.1,79.1,13.8
			c27.5-17.3,40.8-58.1,50-88.2c2.3,3.8,13.4-0.2,13.2,3.8c-0.5,9.5-12.9,43.8-19.7,66c-3,9.9,4.7,19.8,15,19.2
			c6.6-0.4,12.8-1.3,15.2-3.2c8.7-7.3,20.7-64.4,27.7-86.2l0,0c6.7-1.2,13-2,19.8-3c0,15.6-5,81.4-3.6,103.4L57.9,360.6
			c-13,1.4-57.1,8.8-32.6,29.7c22.9,19.6,54.4,17.2,87,14.8s537.8-81.3,553.2-88.5s17.2-11.4,4.3-17c-5.5-6.1-7-7.7-14.8-10.2
			c-6.2-2-17.4,0.3-23.3,1.2L271.3,336.5z M218.4,114.6c-5.5,16.1-8.4,33.6-13.1,50.1c-2.6,9-6.6,24.2-9,33.3
			c-4.4,16.7-0.4,10.3-15.9,13.1c5.3-19.1,10.9-38.2,15.9-57.4c2.5-9.8,4.4-20.2,7.4-29.7c3.8-12,3-9.7,16.7-14
			C219.6,111.4,219,113,218.4,114.6z M240.9,196.2c0.1,1.5,0.2,7.9,0.2,9.4c-3.3,0.5-8.3,0.8-11.8,1.5c2.8-9.2,7.6-22,9.9-31.4
			C240,183.1,240.4,188.8,240.9,196.2z"/>
		<path class="st3" d="M240.7,64.8l-93.3,11L143.1,39l28.8,7.4l16.8-21.3L210,41.9L236.3,28L240.7,64.8z M225,42.1l2,17.2l7.6-0.9
			l-2.4-20.5L225,42.1z M216.1,46.6l1.6,13.8l3.6-0.4l-1.8-15.2L216.1,46.6z"/>
		<g>
			<g>
				<linearGradient id="SVGID_3_" gradientUnits="userSpaceOnUse" x1="545.4045" y1="15" x2="545.4045" y2="721.2499">
					<stop  offset="0" style="stop-color:#FFFFFF"/>
					<stop  offset="1" style="stop-color:#CCCCCC"/>
				</linearGradient>
				<path class="st4" d="M514.6,137c22,0,39.8,17.2,39.8,38.4c0,21.2-17.8,38.4-39.8,38.4c-1.9,0-3.8-0.1-5.6-0.4V240
					c1.9,0.1,3.7,0.2,5.6,0.2c16.3,0,31.2-5.6,42.8-14.8c3.3-2.6,6.4-5.6,9.1-8.8c1.4-1.6,2.7-3.3,3.9-5c1.8-2.6,3.4-5.3,4.9-8.1
					c1.4-2.8,2.6-5.8,3.6-8.8c2-6.1,3-12.6,3-19.3c0-12.3-3.6-23.8-9.7-33.7c-2.2-3.6-4.8-6.9-7.7-10c-1.4-1.5-3-3-4.6-4.4
					c-2.4-2.1-4.9-4-7.6-5.8c-10.7-7-23.7-11.1-37.6-11.1c-1.9,0-3.8,0.1-5.6,0.2v26.7C510.8,137.1,512.7,137,514.6,137z"/>
				<linearGradient id="SVGID_4_" gradientUnits="userSpaceOnUse" x1="521.5485" y1="15" x2="521.5485" y2="721.2499">
					<stop  offset="0" style="stop-color:#FFFFFF"/>
					<stop  offset="1" style="stop-color:#CCCCCC"/>
				</linearGradient>
				<path class="st5" d="M514.6,194.2c10.8,0,19.6-8.4,19.6-18.9c0-10.4-8.8-18.9-19.6-18.9c-2,0-3.8,0.3-5.6,0.8v36.1
					C510.7,194,512.6,194.2,514.6,194.2z"/>
				<linearGradient id="SVGID_5_" gradientUnits="userSpaceOnUse" x1="521.5485" y1="15" x2="521.5485" y2="721.2499">
					<stop  offset="0" style="stop-color:#FFFFFF"/>
					<stop  offset="1" style="stop-color:#CCCCCC"/>
				</linearGradient>
				<path class="st6" d="M534.1,175.4c0-10.4-8.8-18.9-19.6-18.9c-2,0-3.8,0.3-5.6,0.8v36.1c1.8,0.5,3.7,0.8,5.6,0.8
					C525.4,194.2,534.1,185.8,534.1,175.4z"/>
				<linearGradient id="SVGID_6_" gradientUnits="userSpaceOnUse" x1="545.4045" y1="15" x2="545.4045" y2="721.2499">
					<stop  offset="0" style="stop-color:#FFFFFF"/>
					<stop  offset="1" style="stop-color:#CCCCCC"/>
				</linearGradient>
				<path class="st7" d="M557.4,225.5c3.3-2.6,6.4-5.6,9.1-8.8c1.4-1.6,2.7-3.3,3.9-5c1.8-2.6,3.4-5.3,4.9-8.1
					c1.4-2.8,2.6-5.8,3.6-8.8c2-6.1,3-12.6,3-19.3c0-12.3-3.6-23.8-9.7-33.7c-2.2-3.6-4.8-6.9-7.7-10c-1.4-1.5-3-3-4.6-4.4
					c-2.4-2.1-4.9-4-7.6-5.8c-10.7-7-23.7-11.1-37.6-11.1c-1.9,0-3.8,0.1-5.6,0.2v26.7c1.8-0.3,3.7-0.4,5.6-0.4
					c22,0,39.8,17.2,39.8,38.4c0,21.2-17.8,38.4-39.8,38.4c-1.9,0-3.8-0.1-5.6-0.4V240c1.9,0.1,3.7,0.2,5.6,0.2
					C530.8,240.3,545.7,234.7,557.4,225.5z"/>
				<linearGradient id="SVGID_7_" gradientUnits="userSpaceOnUse" x1="585.436" y1="15" x2="585.436" y2="721.2499">
					<stop  offset="0" style="stop-color:#FFFFFF"/>
					<stop  offset="1" style="stop-color:#CCCCCC"/>
				</linearGradient>
				<path class="st8" d="M661.6,165.8c-0.8-11.6-3-22.8-6.6-33.5c-0.6-1.9-1.3-3.9-2-5.8c-0.8-2.2-1.7-4.3-2.6-6.5
					c-0.9-2.1-1.9-4.2-3-6.3c-0.8-1.6-1.6-3.1-2.4-4.6c-1.7-3-3.4-6-5.3-8.9c-0.9-1.5-1.9-2.9-2.9-4.3c-0.7-0.9-1.3-1.9-2-2.8
					c-1.4-1.9-2.8-3.7-4.2-5.5c-1.5-1.8-3-3.5-4.5-5.3c-0.8-0.9-1.6-1.7-2.3-2.6c-2.4-2.5-4.8-5-7.4-7.3c-2.6-2.4-5.2-4.6-7.9-6.8
					c-1.8-1.4-3.7-2.9-5.6-4.2c-2.8-2-5.8-4-8.7-5.8c-4-2.5-8.1-4.7-12.3-6.8c-1.1-0.5-2.1-1-3.2-1.5c-3.2-1.5-6.5-2.9-9.9-4.2
					c-2.2-0.8-4.5-1.6-6.8-2.4c-14.8-4.8-30.7-7.5-47.3-7.5c-1.9,0-3.8,0-5.6,0.1v69.1c1.9-0.1,3.7-0.2,5.6-0.2
					c41.8,0,75.8,32.8,75.8,73.1c0,40.3-34,73.1-75.8,73.1c-1.9,0-3.8-0.1-5.6-0.2v69.1c1.9,0.1,3.7,0.1,5.6,0.1
					c9.5,0,18.9-0.9,27.9-2.5c3-0.6,6-1.2,8.9-1.9c2.4-0.6,4.7-1.2,7-1.9c10.9-3.3,21.2-7.7,30.8-13.2c1-0.6,2-1.1,3-1.7
					c3.6-2.2,7.2-4.5,10.6-7c1.9-1.4,3.7-2.8,5.6-4.2c2.7-2.2,5.4-4.4,7.9-6.8c2.6-2.4,5-4.8,7.4-7.3c0.8-0.8,1.6-1.7,2.3-2.6
					c1.5-1.7,3-3.5,4.5-5.3c1.5-1.8,2.9-3.6,4.2-5.5c1.4-1.9,2.7-3.7,4-5.7c2.4-3.6,4.6-7.3,6.7-11.1c0.7-1.3,1.4-2.6,2-3.9
					c1-2.1,2-4.2,3-6.3c7.5-17,11.6-35.7,11.6-55.3C661.9,172.2,661.8,169,661.6,165.8z M604.3,143.3c-9.6-25-30-44.8-55.8-54.2
					l1-2.6c26.6,9.7,47.6,30.1,57.5,55.8L604.3,143.3z M613.1,134.9c-10.8-24.4-30.7-43.7-55.9-54.3l1.1-2.5
					c25.9,10.9,46.3,30.7,57.4,55.7L613.1,134.9z M621.6,126.8c-11.6-23.7-31.5-43-56-54.4l1.2-2.5c25.1,11.6,45.5,31.4,57.3,55.7
					L621.6,126.8z"/>
			</g>
		</g>
	</g>
	<g>
		<path class="st0" d="M693.8,390.5c-5.2,2.2-10.2,3.2-14.8,3.3v-15.5c4-0.5,7.6-2.3,11-5.5c3.1-2.9,4.8-8.3,5.1-16.1h-10.2
			c-3.7,0-5.5-1.5-5.5-5.1v-9.4h50.3v9.4c0,3.7-1.7,5.1-5.5,5.1h-9.6c0.3,7.8,1.7,13.3,4.7,16.1c3.2,3.2,6.8,5,10.9,5.5v15.5
			c-4.6-0.1-9.5-1.1-14.5-3.3c-5.1-2.2-8.6-5.1-10.7-8.6C702.8,385.4,699,388.3,693.8,390.5z M690.5,428.8c-3.9,0-6.3-2.2-6.3-6
			v-26.7h19.2V414h48.7v8.7c0,3.8-2.5,6-6.4,6h-55.2V428.8z M751.7,360.5h12.4v10.8c0,3.9-2.5,5.6-6.6,5.6h-5.9v21.4
			c0,3.9-2.9,6.4-7.3,6.4h-11.8v-62.7h19.1V360.5z"/>
		<path class="st0" d="M818.1,419.2c0,5.6-3.9,9.5-9.8,9.5H801v-39.8h-3.3c-0.8,13-3.9,22.4-9.1,28.4c-6.2,7.2-15.5,10.8-28,10.8
			v-15c12.3,0,19-9.4,19-29.6v-26.3h-13.5c-3,0-5.6-2.1-5.6-5.8v-8.9h37.2v31h3.1v-31.3h17.2V419.2z M820.7,342h17.5v75.6
			c0,2.9-1,5.5-3.1,7.6c-2.1,2.3-4.7,3.4-8,3.4h-6.4V342z"/>
		<path class="st0" d="M845.6,342.3h45.6v9.6c0,3.7-1.9,5.2-5.6,5.2l-20.8-0.1v56.8h11.3c5.1,0,11.3-0.6,17.8-2.4v14.8
			c-6.5,1.9-13.3,2.2-18.2,2.2h-23.5c-4.2,0-6.6-2.3-6.6-6.5v-79.6H845.6z M916.9,416.4c0,3.5-1.2,6.4-3.6,8.6
			c-2.4,2.4-5.1,3.6-8.6,3.6h-6.9v-37.5h-15.3c-3.1,0-5.3-2.2-5.3-5.2V376h20.7v-34h19.1L916.9,416.4L916.9,416.4z"/>
	</g>
</g>
</svg>
