<?xml version="1.0" encoding="utf-8"?>
<!-- Generator: Adobe Illustrator 19.0.0, SVG Export Plug-In . SVG Version: 6.00 Build 0)  -->
<svg version="1.1" id="레이어_1" xmlns="http://www.w3.org/2000/svg" xmlns:xlink="http://www.w3.org/1999/xlink" x="0px"
	 y="0px" viewBox="0 0 250 60" style="enable-background:new 0 0 250 60;" xml:space="preserve">
<style type="text/css">
	.st0{fill:#C1C1C1;}
</style>
<g>
	<path class="st0" d="M51.8,46.1l-3.1-9.5h-0.1c0.1,1.9,0.2,3.2,0.2,3.9v5.6h-2.5V34H50l3.1,9.3h0.1l3.3-9.3h3.8v12.1h-2.6v-5.7
		c0-0.3,0-0.6,0-0.9c0-0.4,0-1.3,0.1-2.8h-0.1l-3.4,9.5H51.8z"/>
	<path class="st0" d="M75.3,46.1l-0.9-2.9h-4.8l-0.9,2.9h-3l4.6-12.2h3.4l4.6,12.2H75.3z M73.7,41.1c-0.9-2.6-1.4-4.1-1.5-4.4
		c-0.1-0.3-0.2-0.6-0.2-0.8c-0.2,0.7-0.8,2.5-1.7,5.3H73.7z"/>
	<path class="st0" d="M86.6,41.4v4.7h-2.8V34h3.8c1.8,0,3.1,0.3,3.9,0.9s1.3,1.5,1.3,2.7c0,0.7-0.2,1.3-0.6,1.9
		c-0.4,0.6-1,1-1.8,1.3c2,2.7,3.2,4.5,3.8,5.3h-3.1l-3.1-4.7H86.6z M86.6,39.4h0.9c0.9,0,1.5-0.1,1.9-0.4s0.6-0.7,0.6-1.3
		c0-0.6-0.2-1-0.6-1.2c-0.4-0.2-1.1-0.4-2-0.4h-0.8V39.4z"/>
	<path class="st0" d="M109.9,34v7.9c0,0.9-0.2,1.7-0.6,2.4c-0.4,0.7-1.1,1.2-1.9,1.6c-0.8,0.4-1.8,0.5-2.9,0.5c-1.7,0-3-0.4-3.9-1.2
		c-0.9-0.8-1.4-1.9-1.4-3.3V34h2.8v7.4c0,0.9,0.2,1.6,0.6,2.1c0.4,0.4,1.1,0.7,2,0.7c0.9,0,1.6-0.2,2-0.7c0.4-0.4,0.6-1.1,0.6-2.1
		V34H109.9z"/>
	<path class="st0" d="M127.1,46.1H124l-3.4-5.1l-1.2,0.8v4.3h-2.8V34h2.8v5.6l1.1-1.4L124,34h3.1l-4.5,5.4L127.1,46.1z"/>
	<path class="st0" d="M143.8,40c0,2-0.5,3.6-1.6,4.6c-1.1,1.1-2.6,1.6-4.6,1.6c-2,0-3.5-0.5-4.6-1.6c-1.1-1.1-1.6-2.6-1.6-4.6
		c0-2,0.5-3.6,1.6-4.6s2.6-1.6,4.6-1.6c2,0,3.5,0.5,4.6,1.6C143.3,36.5,143.8,38,143.8,40z M134.3,40c0,1.4,0.3,2.4,0.8,3.1
		c0.6,0.7,1.4,1,2.5,1c2.2,0,3.3-1.4,3.3-4.1c0-2.7-1.1-4.1-3.3-4.1c-1.1,0-1.9,0.3-2.5,1C134.6,37.6,134.3,38.7,134.3,40z"/>
	<path class="st0" d="M156.3,46.2h-9.2v-2h9.2V46.2z"/>
	<path class="st0" d="M170.3,46.1h-9.7v-1.7l6.3-8.3h-6.1V34h9.4v1.7l-6.2,8.4h6.4V46.1z"/>
	<path class="st0" d="M185.1,46.1h-9.7v-1.7l6.3-8.3h-6.1V34h9.4v1.7l-6.2,8.4h6.4V46.1z"/>
	<path class="st0" d="M199.6,46.1l-0.9-2.9h-4.8l-0.9,2.9h-3l4.6-12.2h3.4l4.6,12.2H199.6z M198,41.1c-0.9-2.6-1.4-4.1-1.5-4.4
		c-0.1-0.3-0.2-0.6-0.2-0.8c-0.2,0.7-0.8,2.5-1.7,5.3H198z"/>
	<path class="st0" d="M219.7,46.1h-3.5l-5.7-9.2h-0.1c0.1,1.6,0.2,2.8,0.2,3.5v5.7h-2.5V34h3.5l5.7,9.1h0.1
		c-0.1-1.6-0.1-2.7-0.1-3.3V34h2.5V46.1z"/>
	<path class="st0" d="M231.5,39.3h5.2v6.3c-0.8,0.3-1.6,0.4-2.4,0.5c-0.7,0.1-1.5,0.2-2.3,0.2c-2,0-3.5-0.5-4.5-1.6S226,42,226,40
		c0-2,0.6-3.5,1.8-4.6c1.2-1.1,2.9-1.6,5-1.6c1.3,0,2.6,0.3,3.9,0.7l-0.9,2.1c-1-0.4-1.9-0.7-3-0.7c-1.2,0-2.2,0.4-2.9,1.1
		c-0.7,0.7-1.1,1.8-1.1,3c0,1.3,0.3,2.3,0.9,3c0.6,0.7,1.4,1,2.5,1c0.6,0,1.2-0.1,1.8-0.2v-2.5h-2.5V39.3z"/>
</g>
</svg>
