<?xml version="1.0" encoding="utf-8"?>
<!-- Generator: Adobe Illustrator 25.4.1, SVG Export Plug-In . SVG Version: 6.00 Build 0)  -->
<svg version="1.1" id="레이어_1" xmlns="http://www.w3.org/2000/svg" xmlns:xlink="http://www.w3.org/1999/xlink" x="0px"
	 y="0px" viewBox="0 0 250 60" style="enable-background:new 0 0 250 60;" xml:space="preserve">
<style type="text/css">
	.st0{fill:#C1C1C1;}
</style>
<path class="st0" d="M49.1,41.4v4.7h-2.8V34h3.8c1.8,0,3.1,0.3,3.9,0.9s1.3,1.5,1.3,2.7c0,0.7-0.2,1.3-0.6,1.9c-0.4,0.6-1,1-1.8,1.3
	c2,2.7,3.2,4.5,3.8,5.3h-3.1l-3.1-4.7H49.1z M49.1,39.4H50c0.9,0,1.5-0.1,1.9-0.4s0.6-0.7,0.6-1.3s-0.2-1-0.6-1.2s-1.1-0.4-2-0.4
	h-0.8V39.4z"/>
<path class="st0" d="M72.4,34v7.9c0,0.9-0.2,1.7-0.6,2.4s-1.1,1.2-1.9,1.6c-0.8,0.4-1.8,0.5-2.9,0.5c-1.7,0-3-0.4-3.9-1.2
	s-1.4-1.9-1.4-3.3V34h2.8v7.4c0,0.9,0.2,1.6,0.6,2.1c0.4,0.4,1.1,0.7,2,0.7s1.6-0.2,2-0.7c0.4-0.4,0.6-1.1,0.6-2.1V34H72.4z"/>
<path class="st0" d="M89.6,46.1h-3.1L83.1,41l-1.2,0.8v4.3h-2.8V34h2.8v5.6l1.1-1.4l3.5-4.2h3.1l-4.5,5.4L89.6,46.1z"/>
<path class="st0" d="M106.3,40c0,2-0.5,3.6-1.6,4.6c-1.1,1.1-2.6,1.6-4.6,1.6s-3.5-0.5-4.6-1.6S93.9,42,93.9,40s0.5-3.6,1.6-4.6
	s2.6-1.6,4.6-1.6s3.5,0.5,4.6,1.6S106.3,38,106.3,40z M96.8,40c0,1.4,0.3,2.4,0.8,3.1c0.6,0.7,1.4,1,2.5,1c2.2,0,3.3-1.4,3.3-4.1
	c0-2.7-1.1-4.1-3.3-4.1c-1.1,0-1.9,0.3-2.5,1C97.1,37.6,96.8,38.7,96.8,40z"/>
<path class="st0" d="M121.1,46.1h-9.7v-1.7l6.3-8.3h-6.1V34h9.4v1.7l-6.2,8.4h6.4L121.1,46.1L121.1,46.1z"/>
<path class="st0" d="M136.7,46.1H127v-1.7l6.3-8.3h-6.1V34h9.4v1.7l-6.2,8.4h6.4L136.7,46.1L136.7,46.1z"/>
<path class="st0" d="M152.3,46.1l-0.9-2.9h-4.8l-0.9,2.9h-3l4.6-12.2h3.4l4.6,12.2H152.3z M150.7,41.1c-0.9-2.6-1.4-4.1-1.5-4.4
	c-0.1-0.3-0.2-0.6-0.2-0.8c-0.2,0.7-0.8,2.5-1.7,5.3L150.7,41.1L150.7,41.1z"/>
<path class="st0" d="M172.4,46.1h-3.5l-5.7-9.2h-0.1c0.1,1.6,0.2,2.8,0.2,3.5v5.7h-2.5V34h3.5l5.7,9.1h0.1c-0.1-1.6-0.1-2.7-0.1-3.3
	V34h2.5L172.4,46.1L172.4,46.1z"/>
<path class="st0" d="M184.2,39.3h5.2v6.3c-0.8,0.3-1.6,0.4-2.4,0.5c-0.7,0.1-1.5,0.2-2.3,0.2c-2,0-3.5-0.5-4.5-1.6s-1.5-2.7-1.5-4.7
	s0.6-3.5,1.8-4.6s2.9-1.6,5-1.6c1.3,0,2.6,0.3,3.9,0.7l-0.9,2.1c-1-0.4-1.9-0.7-3-0.7c-1.2,0-2.2,0.4-2.9,1.1
	c-0.7,0.7-1.1,1.8-1.1,3c0,1.3,0.3,2.3,0.9,3c0.6,0.7,1.4,1,2.5,1c0.6,0,1.2-0.1,1.8-0.2v-2.5h-2.5V39.3z"/>
</svg>
