<?xml version="1.0" encoding="utf-8"?>
<!-- Generator: Adobe Illustrator 19.0.0, SVG Export Plug-In . SVG Version: 6.00 Build 0)  -->
<svg version="1.1" id="레이어_1" xmlns="http://www.w3.org/2000/svg" xmlns:xlink="http://www.w3.org/1999/xlink" x="0px"
	 y="0px" viewBox="0 0 180 91" style="enable-background:new 0 0 180 91;" xml:space="preserve">
<style type="text/css">
	.st0{fill:none;}
	.st1{fill:url(#XMLID_59_);}
	.st2{fill:url(#XMLID_60_);}
	.st3{fill:url(#XMLID_61_);}
	.st4{fill:url(#XMLID_63_);}
	.st5{fill:url(#XMLID_249_);}
</style>
<g id="XMLID_89_">
	<g id="XMLID_18_">
		<rect id="XMLID_157_" x="111.3" y="71.5" class="st0" width="1.9" height="14.5"/>
		<path id="XMLID_156_" d="M127.5,77.8v-2.7h-3.4v-7.5h-4.9v22.2h1.8c0.9,0,1.6-0.3,2.2-0.9s0.9-1.3,0.9-2.2v-7.3h1.4
			c0.6,0,1-0.1,1.4-0.4C127.3,78.7,127.5,78.3,127.5,77.8z"/>
		<path id="XMLID_153_" d="M106.4,88c0,0.5,0.1,1,0.4,1.2s0.7,0.4,1.3,0.4h8.3c0.5,0,1-0.1,1.3-0.4s0.4-0.7,0.4-1.2V67.7h-11.7V88z
			 M111.3,71.5h1.9v14.5h-1.9V71.5z"/>
		<path id="XMLID_152_" d="M136,75.6h-0.8v-7.9h-9.5V70c0,0.5,0.1,0.8,0.4,1.1c0.3,0.3,0.6,0.4,1,0.4h3.4v6.7c0,2.6-0.4,4.5-1.3,5.7
			c-0.8,1.2-2,1.8-3.6,1.8v3.8c3.2,0,5.6-0.9,7.1-2.7c1.3-1.5,2.1-4,2.3-7.3h0.8v10.2h1.9c0.8,0,1.4-0.2,1.8-0.7
			c0.5-0.5,0.7-1,0.7-1.7V67.6H136V75.6z"/>
		<path id="XMLID_151_" d="M141,89.8h1.6c0.8,0,1.5-0.3,2-0.9c0.5-0.6,0.8-1.2,0.8-2V67.6H141V89.8z"/>
		<path id="XMLID_150_" d="M154.9,86H152V71.5l5.3,0c0.5,0,0.8-0.1,1.1-0.3c0.2-0.2,0.4-0.6,0.4-1v-2.4h-11.6v20.3
			c0,0.5,0.1,1,0.4,1.2c0.3,0.3,0.7,0.4,1.3,0.4h6c0.6,0,1.3,0,2.2-0.1c0.8-0.1,1.6-0.2,2.5-0.5v-3.8c-0.8,0.2-1.6,0.4-2.4,0.5
			C156.3,85.9,155.6,86,154.9,86z"/>
		<path id="XMLID_149_" d="M160.4,76.3h-5.3v2.5c0,0.4,0.1,0.7,0.4,1c0.3,0.2,0.6,0.4,1,0.4h3.9v9.6h1.8c0.9,0,1.6-0.3,2.2-0.9
			s0.9-1.3,0.9-2.2v-19h-4.9V76.3z"/>
		<path id="XMLID_148_" d="M166.1,88.6c0,0.5,0.1,0.8,0.3,1c0.2,0.2,0.6,0.3,1,0.3h10.2c0.5,0,0.8-0.1,1-0.3c0.2-0.2,0.4-0.5,0.4-1
			v-2h-13V88.6z"/>
	</g>
	<path id="XMLID_136_" d="M177.1,49.8c-0.6-1.6-1.9-2.1-2.9-2.1h0l-0.1,0c-3.6,0.1-7,0.2-10.3,0.3c0.2-0.8,0.3-1.5,0.3-2.3
		c0.2-1.7,0.4-3.6,1.1-5.4c0.6-1.8,3.9-5,6.2-6.7c0.1,0.2,0.2,0.5,0.3,0.7c0.6,0.9,1.7,1.5,2.8,1.5c1.4,0,2.8-0.7,3.8-2.1
		c1.4-1.9,1.7-4.6,0.6-6.7c-0.5-1-1.2-1.8-2.1-2.2c-0.9-1.6-2.5-2.6-4.4-2.6c-1.9,0-3.9,1-6,2.8c-0.1,0.1-0.2,0.1-0.2,0.2
		c-0.2-0.2-0.5-0.4-0.7-0.5c0-0.1-0.1-0.2-0.1-0.3c-1.2-1.6-2.8-2.5-4.6-2.5c-2,0-3.7,1.1-4.8,3c-0.2,0.3-0.4,0.7-0.5,1
		c-0.5-0.7-1.1-1.3-1.9-1.9c-1.2-1.7-3.1-3.2-5.7-3.2c-1.6,0-4.1,0.7-6.4,4c-0.5,0.7-0.9,1.4-1.4,2.2c-0.4-0.5-1-1-1.6-1.4
		c-0.1-0.1-0.1-0.2-0.2-0.3c-1.1-1.6-3.5-2.8-5.6-2.8c-0.8,0-1.5,0.2-2.1,0.5c0.5-2.9,1.2-6,2-8.8c0.3-1,0.1-2-0.6-2.9
		c-0.4-0.5-0.9-0.9-1.6-1.2c-0.1-0.3-0.2-0.5-0.4-0.8c-0.8-1.1-2.3-1.7-3.9-1.7c-2.1,0-3.9,1.1-4.8,2.9c-0.2,0.3-0.3,0.7-0.5,1.3
		c0.3-1.6,0.6-3.2,1-4.7c0.2-0.9-0.1-1.9-0.7-2.8c-0.4-0.5-0.9-0.9-1.5-1.3c-0.1-0.2-0.3-0.5-0.5-0.7C118.1,1,116,0,114.1,0h0
		c-1.9,0-3.4,0.9-3.9,2.5c-0.8,2.2-1.5,6-2.4,11.4c-4.6,0.9-9.7,2.2-15.9,3.9c-2.6,0.7-3.4,4.1-2.9,7.2c0,0,0,0.1,0,0.1
		c-1.1-1-2.7-2-5.1-2.5c-0.4-0.1-0.8-0.1-1.2-0.1h0c-3.5,0-7.4,3.1-10.6,8.3c-2.2,3.7-3.6,7.3-4.5,10.3c0,0,0,0,0,0
		c-0.1-1.8-1.2-3.5-3-4.9c-0.7-1.1-1.8-2-3.1-2.7c-0.7-0.4-1.5-0.6-2.3-0.6c-1.3,0-2.7,0.6-4.1,1.6c-0.2-2.7-1.6-5.3-3.8-7
		c-0.9-1.2-2.1-2.3-3.6-2.9l-0.3-0.2c-0.5-0.2-1-0.3-1.5-0.3c-1.4,0-2.6,0.8-3.3,2c-0.2,0.4-0.4,0.8-0.6,1.2c0-2.9-1.4-5.7-3.8-7.4
		c-0.9-1.2-2-2.2-3.4-2.8l-0.3-0.2l-0.4-0.2c-0.5-0.2-1-0.4-1.5-0.4c-1.4,0-2.6,0.8-3.2,2c-1.8,3.9-5.4,9.9-9.2,16.2
		C11.8,48.2,2.6,63.5,1.4,72.9c-0.1,1,0.2,2,0.9,2.8c0.3,0.3,0.6,0.6,1,0.8c-1.7,0.8-2.9,2.6-2.9,4.8l0,0.2c-0.1,2.7-0.1,3.7,0,4.3
		c0.3,1.4,1.2,2.5,2.3,2.9C3.3,90.1,4.6,91,6,91c0.5,0,0.9-0.1,1.4-0.3C19.8,85.4,34.7,79.6,59.1,73c0.1,0.3,0.2,0.5,0.3,0.8
		c0.5,1.1,1.4,2,2.4,2.7c1.4,2.2,4.1,3.5,7.5,3.5c0.6,0,1.3,0,2-0.1C77.8,79,82.4,72.1,85.3,66c0.4,0.5,1,0.7,1.6,0.7
		c0.2,0,0.3,0,0.4,0c29.9-6.1,57.4-9.4,89.1-10.7c0.5,0,1.7-0.1,2.5-1.1c0.5-0.7,0.6-1.6,0.4-2.6C178.9,50.9,178,50.1,177.1,49.8z
		 M19.3,71.2c0.2-3,1.6-7.6,3.4-12.4c0.1,0.8,0.3,1.4,0.6,2c0.6,1.2,1.6,2.3,2.7,3.1c1.4,1.9,3.7,3.3,5.7,3.9
		C27.3,68.9,23.2,70.1,19.3,71.2z M37.5,66.3c0.1-0.3,0.1-0.5,0.1-0.8c0-0.9,0.2-2.6,0.5-4.7c0.5,1.7,1.3,2.7,2.6,3.6
		c0.2,0.4,0.4,0.7,0.7,1C40.2,65.6,38.8,65.9,37.5,66.3z M50.3,63.2c-0.1-0.5-0.1-1.1-0.1-1.6c0.4,0.5,0.8,1,1.2,1.4
		C51,63,50.6,63.1,50.3,63.2z M72.1,63.8c-0.4-0.8-1.1-1.4-1.9-1.7c-0.4-1-1.2-1.7-2.2-2.1c0.3-0.4,0.7-0.9,1-1.5
		c1.1,1.4,2.7,2.5,4.3,3.2C72.9,62.4,72.5,63.1,72.1,63.8z M89.2,55.5c0.1-0.5,0.3-0.9,0.4-1.4c0,0,0,0,0,0c0.3,0.4,0.6,0.8,1,1.1
		C90.1,55.3,89.6,55.4,89.2,55.5z M105.2,52.9c-0.8,0.1-1.7,0.2-2.5,0.4c0.6-0.6,1.3-1.3,2-2c0.3,0.3,0.6,0.6,1,0.9L105.2,52.9z
		 M105.7,29.7c-0.3-0.4-0.7-0.7-1.2-1c-0.1-0.2-0.3-0.4-0.5-0.6c0.7-0.2,1.3-0.4,1.9-0.6C105.9,28.2,105.8,29,105.7,29.7z
		 M126.3,50.3c0-0.2,0.1-0.4,0.1-0.6c0.1,0.2,0.2,0.4,0.3,0.6C126.6,50.3,126.4,50.3,126.3,50.3z M138,49.3c0.1-0.1,0.2-0.2,0.3-0.3
		c0.1,0.1,0.2,0.2,0.3,0.2C138.4,49.3,138.2,49.3,138,49.3z M151.9,48.5c0.4-0.4,0.9-0.9,1.4-1.4c0.3,0.5,0.7,1,1.1,1.3
		C153.6,48.4,152.7,48.4,151.9,48.5z"/>
	<g id="XMLID_90_">
		<g id="XMLID_7_">
			<linearGradient id="XMLID_59_" gradientUnits="userSpaceOnUse" x1="27.1879" y1="63.5457" x2="27.1879" y2="-58.4974">
				<stop  offset="0" style="stop-color:#FFFFFF"/>
				<stop  offset="1" style="stop-color:#CCCCCC"/>
			</linearGradient>
			<path id="XMLID_250_" class="st1" d="M5.3,74.8l7.3-2.3c1.5-0.4,2.6-1.6,2.7-3.2C15.7,59,29.7,31.5,29.7,31.5
				C26,43.3,23.1,56,25,59.9c2,3.9,8.6,5.4,8.6,3.6c0-3.7,2.6-18.4,8.8-26.1c0,0-3.2,15.5-2.8,19.7c0.3,4.2,1,5.1,3.4,6.2l1.9,0.6
				c0.8,0.2,1.6-0.4,1.5-1.3c-1.4-10.3,0.7-18.7,4-26.4c1.5-3.6-0.2-7.9-3.7-9.5l-0.3-0.2c-0.8-0.4-1.8,0-2.2,0.7
				C39.7,36,35.6,43,33.4,51.4c0.5-9.2,2-16.1,4.2-23.9c0.9-3.4-0.7-6.9-3.8-8.5c-0.3-0.1-0.5-0.3-0.8-0.4c-0.8-0.4-1.7,0-2.1,0.7
				C25.3,31.3,5.1,59.7,3.4,73.1C3.2,74.2,4.2,75.1,5.3,74.8z"/>
		</g>
		<g id="XMLID_12_">
			<linearGradient id="XMLID_60_" gradientUnits="userSpaceOnUse" x1="108.4114" y1="63.5457" x2="108.4114" y2="-58.4974">
				<stop  offset="0" style="stop-color:#FFFFFF"/>
				<stop  offset="1" style="stop-color:#CCCCCC"/>
			</linearGradient>
			<path id="XMLID_247_" class="st2" d="M108.3,51.8c0.1-0.1,0.2-0.3,0.3-0.4L108.3,51.8z"/>
		</g>
		<g id="XMLID_5_">
			<linearGradient id="XMLID_61_" gradientUnits="userSpaceOnUse" x1="132.041" y1="63.5457" x2="132.041" y2="-58.4974">
				<stop  offset="0" style="stop-color:#FFFFFF"/>
				<stop  offset="1" style="stop-color:#CCCCCC"/>
			</linearGradient>
			<path id="XMLID_279_" class="st3" d="M167.9,26.3c-3.7,3.3-4.6,4.4-5.9,6c-0.3,0.4,2.6-5.9,1.9-6.9c-1.7-2.4-4.6-2.3-6,0.3
				c-1.4,2.4-2.7,5.7-3.5,9.3c-2.5,2.8-5.1,6.1-8.6,8c-2.4,1.3-2.6-1.8-2.1-4.8c2.2-0.8,5.5-2.6,7.8-6.4c1.6-2.7,1.8-4.7,1-6.1
				c-1.5-2.8-5.5-5.1-9.2,0.2c-3.1,4.5-4.8,9.5-5.5,13.6c-2,1.7-4.1,3.5-5.2,4.1c-2.2,1.4,1.5-8.3,4.5-15.8c0.8-2.1-3.8-4.5-5.6-3.1
				c-1.9,1.4-6.4,6.8-6.4,6.8s1.4-11.6,3.7-20c0.6-2-3.9-3.3-5.6-0.2c-0.2,0.5-0.5,1.4-0.8,2.6c-2.2,0.2-4.3,0.5-6.4,0.7
				c0.6-3.6,1.3-6.9,2-10.1c0.4-1.9-5-3.9-5.8-1.4c-0.9,2.5-1.7,7-2.5,12.5c-4.7,0.9-10,2.1-17.1,4.1c-2.5,0.7-1.7,8.2,0.1,7.6
				c6.7-2.5,11.8-4.2,16.2-5.5c-0.7,5.1-1.3,10.6-1.9,16.2c-2.9,3.1-5.9,7.4-10.2,9.7C94.2,49,94.1,46,94.6,43
				c2.2-0.8,5.5-2.6,7.8-6.4c1.6-2.7,1.8-4.7,1-6.1c-1.5-2.8-5.5-5.1-9.2,0.2c-4.2,6-5.8,12.9-5.8,17.5c0,3.4,3.4,5.4,5.3,5.5
				c2.8,0.2,9.6-7.8,12.8-11.8c-0.3,2.3-0.5,4.7-0.8,7c-0.2,1.8,4.4,3.5,5.6,2.5v0l0.3-0.4l6.3-9.7c0,0.3-0.1,0.7-0.1,0.9
				c-0.7,5.4-1.7,7.2-0.6,7.5c1.8,0.5,4.2,0.6,4.8-0.2c0.9-1.3,1.6-8.6,2.9-12.7c2.1-4.4,5.3-5.6,5.3-5.6s-3.7,8.1-4.1,13.7
				c-0.2,3.3,2.1,3.6,5.5,3.6c0.8,0,3.5-2.7,6.1-5.4c0,0.2,0,0.3,0,0.5c0,3.4,3.4,5.4,5.3,5.5c2.4,0.2,7.6-5.6,11.1-9.8
				c-0.1,1-0.1,2,0,3c0.3,3.8,1.9,5.5,4.2,5.6c2.7,0.1,1.5-5.1,3.4-10.2c1.4-4,12.2-12.6,10.1-7.7c-0.8,2,1.8,2.7,3.4,0.6
				C177.4,27.2,174.4,20.5,167.9,26.3z M150,27.3c1.5-0.3,0.4,1.9-1,3.7c-1.4,1.9-3.1,3.1-4.4,3.9C146.3,30.3,148.5,27.6,150,27.3z
				 M100.9,32c1.5-0.3,0.4,1.9-1,3.7c-1.4,1.9-3.1,3.1-4.4,3.9C97.1,35,99.4,32.4,100.9,32z M118.4,36.5l-6.4,8
				c0.7-8.2,1.8-16.6,3-24.3c2.1-0.5,4.2-0.9,6.2-1.2C120.2,24.4,119.2,31.4,118.4,36.5z"/>
		</g>
		<g id="XMLID_2_">
			<linearGradient id="XMLID_63_" gradientUnits="userSpaceOnUse" x1="45.5852" y1="63.5457" x2="45.5852" y2="-58.4974">
				<stop  offset="0" style="stop-color:#FFFFFF"/>
				<stop  offset="1" style="stop-color:#CCCCCC"/>
			</linearGradient>
			<path id="XMLID_259_" class="st4" d="M86.6,43.4c-0.8-1.2-1.8-1.6-3.1-1.9c-0.6-0.2-2.7-0.4-3,0.2c-1,2.1-5.4,11.2-6.3,10.5
				c-1-0.7,0.3-7.1,2.3-12.7c2-5.6,8-12.3,7.3-8.7c-0.4,2.3-3.2,7.5-3.2,7.5s4.7,0.2,5.7-0.4c1-0.5,2.9-5.1,2.7-8.3
				c-0.3-3.2-3.1-4.4-5.5-4.9c-2.5-0.6-6.3,1.8-9.6,7.3c-3.1,5.1-4.5,10-5.3,13.9c-0.7,1.4-2,3.9-3.8,6.8c-1,0.9,0.2-6.3,1.4-8.7
				c0.5-1-1.6-3.4-2.7-3.3c0.1-0.5,0.2-0.9,0.2-1.3c0-1.4-1.3-2.9-3.1-3.9c-1.7-0.9-3.6,0.2-5,1.5c-3.7,3.6-7.2,12.3-6.7,18.9
				c0.3,4.2,5.3,6.2,6.3,4.5c2.3-4,3.2-6.6,3.1-5.8c0,0-0.2,0.7,0.5,3.4c0.2,0.9,0.7,1.4,1.4,1.7c1.7,0.7,2.8-0.8,4-2.3
				c1.2-1.5,2.5-3.8,3.7-5.9c0,1,0,1.8,0.1,2.4c0.3,2.2,3.7,4.5,5.9,4.5c2.2,0,5.7-8,5.7-8s-3.1,15.9-10.8,20c-1.9,1-3.7-0.2-2.6-2
				c0.4-0.7,1.6-1.6,2-2c0.5-0.5,0.7-0.8,0.7-1.6l0-0.2c0,0,0,0,0,0l-0.1-0.9c-0.1-1.2-1.2-2.1-2.5-1.9C39.6,67.3,18.8,73,4.4,78.1
				c-1.4,0.5-2,1.8-2.1,3.2c-0.1,1.5-0.1,3.4,0,3.9c0.3,1.2,1.2,2,2.3,1.6C17.8,81.2,34.1,74.9,62,67.6c-2.8,3.5-0.7,9.2,7.1,8.2
				C81.1,74.4,88.1,45.6,86.6,43.4z M60.3,43.9l0.6,0.3c-2.2,4-5.2,9.9-5.9,9.7c-1-0.2-1.1-2.5,0.9-7.5c2.2-5.3,4.6-7.2,5.3-6.5
				C61.9,40.5,60.3,43.9,60.3,43.9z"/>
		</g>
		<g id="XMLID_1_">
			<linearGradient id="XMLID_249_" gradientUnits="userSpaceOnUse" x1="130.0717" y1="63.5457" x2="130.0717" y2="-58.4974">
				<stop  offset="0" style="stop-color:#FFFFFF"/>
				<stop  offset="1" style="stop-color:#CCCCCC"/>
			</linearGradient>
			<path id="XMLID_62_" class="st5" d="M174.2,49.6c-41.9,1.2-61.1,3.7-87.1,8.3c-0.2,0-0.4,0.2-0.5,0.4l-1.9,4.1
				c-0.1,0.2,0.1,0.4,0.3,0.3c25.5-5.2,53.4-9.3,89.4-10.7c0.6,0,1.3,0,1-1.2C175.1,50,174.7,49.6,174.2,49.6z"/>
		</g>
	</g>
</g>
<g id="XMLID_19_">
</g>
<g id="XMLID_20_">
</g>
<g id="XMLID_25_">
</g>
<g id="XMLID_27_">
</g>
<g id="XMLID_28_">
</g>
<g id="XMLID_30_">
</g>
</svg>
