<?xml version="1.0" encoding="utf-8"?>
<!-- Generator: Adobe Illustrator 23.0.1, SVG Export Plug-In . SVG Version: 6.00 Build 0)  -->
<svg version="1.1" id="레이어_1" xmlns="http://www.w3.org/2000/svg" xmlns:xlink="http://www.w3.org/1999/xlink" x="0px"
	 y="0px" viewBox="0 0 176 90" style="enable-background:new 0 0 176 90;" xml:space="preserve">
<style type="text/css">
	.st0{fill:#222222;}
	.st1{fill:url(#XMLID_4_);}
	.st2{fill:url(#XMLID_6_);}
	.st3{fill:url(#XMLID_8_);}
	.st4{fill:url(#XMLID_9_);}
	.st5{fill:url(#XMLID_10_);}
</style>
<g>
	<path class="st0" d="M173.4,48.4c-0.8-1.7-2.3-2.3-3.6-2.3h-0.1c-3.1,0.1-6,0.2-8.8,0.3c0.1-0.4,0.1-0.8,0.1-1.2V45
		c0.2-1.6,0.4-3.2,1-4.8c0.4-1.2,2.7-3.6,4.8-5.3c0.8,1,2.1,1.6,3.3,1.6c1.7,0,3.4-0.9,4.5-2.4c1.6-2.2,1.9-5.2,0.7-7.5
		c-0.6-1.1-1.3-2-2.2-2.4c-1.1-1.7-2.9-2.7-5-2.7c-1.9,0-3.8,0.8-6,2.6l0,0c-1.4-1.8-3.2-2.8-5.3-2.8c-2.2,0-4.1,1.2-5.3,3.1
		c-0.3-0.3-0.6-0.5-0.9-0.8c-1.6-2.2-3.8-3.4-6.2-3.4c-1.5,0-4.4,0.6-7,4.3c-0.3,0.4-0.5,0.8-0.7,1.1c-0.2-0.2-0.4-0.3-0.6-0.5
		c0-0.1-0.1-0.1-0.1-0.2c-1.4-2-4.5-3.4-7-3c0.5-2.3,1-4.7,1.6-6.8c0.4-1.3,0.1-2.6-0.8-3.7c-0.4-0.5-0.9-0.9-1.5-1.3
		c-0.1-0.2-0.2-0.4-0.4-0.6c-0.9-1.3-2.6-2-4.6-2c-1.2,0-2.3,0.3-3.3,0.9c0-0.1,0-0.1,0-0.2c0.2-1.1-0.1-2.3-0.9-3.5
		c-0.4-0.5-0.8-0.9-1.5-1.3c-0.1-0.2-0.3-0.4-0.5-0.6c-1.2-1.5-3.5-2.6-5.6-2.6c-2.3,0-4.1,1.2-4.7,3.1c-0.7,2-1.4,5.3-2.3,10.5
		c-3.9,0.8-8.4,1.9-14.8,3.7c-2.5,0.7-3.6,3.3-3.7,6c-1.1-0.6-2.3-1.1-3.6-1.3c-0.5-0.1-1-0.1-1.4-0.1c-3.7,0-7.8,3.1-11.1,8.5
		c-1.4,2.3-2.6,4.8-3.5,7.4c-0.5-0.8-1.3-1.6-2.2-2.4c-0.7-1.1-1.8-2-3.3-2.8c-1.7-1-3.8-1-6,0.2c-0.5-2.3-1.9-4.4-3.7-5.9
		c-1.1-1.4-2.3-2.4-3.7-3L47.3,24l-0.2-0.1c-1.8-0.7-3.7-0.3-5,1c-0.6-2-1.8-3.9-3.6-5.1c-1-1.3-2.2-2.3-3.5-2.9l-0.8-0.4
		c-0.5-0.2-1.1-0.5-1.8-0.5c-1.7,0-3.2,0.9-4,2.5c-1.8,3.9-5.6,10.1-8.9,15.6c-9,14.7-17.2,28.6-18.4,37.6C1,73,1.4,74.2,2.3,75.2
		l0,0C1,76.3,0.2,78,0.2,79.9v0.2c-0.1,2.7-0.1,3.7,0,4.4c0.3,1.5,1.2,2.7,2.5,3.3c0.8,1.5,2.3,2.5,3.9,2.5c0.6,0,1.1-0.1,1.7-0.4
		c11.8-5,25.9-10.5,49.2-16.9l0,0c0.5,1.1,1.3,2,2.5,2.9c1.6,2.3,4.5,3.7,8,3.7c0.6,0,1.3,0,2.1-0.1c5.2-0.7,9.9-5.1,13.8-13
		c0.4,0.1,0.8,0.2,1.2,0.2h0.4h0.2c29-5.9,55.6-9.1,86.3-10.3c1.3,0,2.5-0.5,3.2-1.5c0.6-0.9,0.8-2,0.5-3.3
		C175.3,50,174.5,48.9,173.4,48.4z M21.3,68.3l-0.8,0.2c0.3-2,1.1-4.6,2.2-7.8c0.6,1,1.5,2,2.5,2.7c0.9,1.2,2.1,2.1,3.3,2.8
		C26,67,23.6,67.7,21.3,68.3z M38.2,63.8c0-0.3,0-0.6,0.1-0.9c0.2,0.3,0.5,0.5,0.8,0.7C38.7,63.7,38.5,63.7,38.2,63.8z"/>
	<g id="XMLID_90_">
		<g id="XMLID_7_">
			
				<linearGradient id="XMLID_4_" gradientUnits="userSpaceOnUse" x1="27.0602" y1="60.673" x2="27.0602" y2="-57.4332" gradientTransform="matrix(1 0 0 1 0 1.7802)">
				<stop  offset="0" style="stop-color:#FFFFFF"/>
				<stop  offset="1" style="stop-color:#CCCCCC"/>
			</linearGradient>
			<path id="XMLID_250_" class="st1" d="M5.8,73.3l7.1-2.2c1.5-0.4,2.5-1.5,2.6-3.1c0.4-10,14-36.6,14-36.6
				c-3.6,11.4-6.4,23.7-4.6,27.5c1.9,3.8,8.4,5.2,8.4,3.5c0-3.6,2.5-17.8,8.5-25.3c0,0-3.1,15-2.7,19.1c0.3,4.1,1,4.9,3.3,6l1.8,0.6
				c0.8,0.2,1.6-0.4,1.5-1.3c-1.4-10,0.7-18.1,3.9-25.5c1.5-3.5-0.2-7.6-3.6-9.2l-0.3-0.2c-0.8-0.4-1.7,0-2.1,0.7
				c-4.4,8.5-8.4,15.3-10.5,23.4c0.5-8.9,1.9-15.6,4.1-23.1c0.9-3.3-0.7-6.7-3.7-8.2c-0.3-0.1-0.5-0.3-0.8-0.4c-0.8-0.4-1.7,0-2,0.7
				C25.3,31.3,5.6,58.8,4,71.8C3.8,72.8,4.7,73.6,5.8,73.3z"/>
		</g>
		<g id="XMLID_12_">
			
				<linearGradient id="XMLID_6_" gradientUnits="userSpaceOnUse" x1="105.95" y1="60.673" x2="105.95" y2="-57.4332" gradientTransform="matrix(1 0 0 1 0 1.7802)">
				<stop  offset="0" style="stop-color:#FFFFFF"/>
				<stop  offset="1" style="stop-color:#CCCCCC"/>
			</linearGradient>
			<path id="XMLID_247_" class="st2" d="M105.8,51.1c0.1-0.1,0.2-0.3,0.3-0.4L105.8,51.1z"/>
		</g>
		<g id="XMLID_5_">
			
				<linearGradient id="XMLID_8_" gradientUnits="userSpaceOnUse" x1="129.2877" y1="60.673" x2="129.2877" y2="-57.4332" gradientTransform="matrix(1 0 0 1 0 1.7802)">
				<stop  offset="0" style="stop-color:#FFFFFF"/>
				<stop  offset="1" style="stop-color:#CCCCCC"/>
			</linearGradient>
			<path id="XMLID_279_" class="st3" d="M163.7,26.4c-3.6,3.2-4.5,4.3-5.7,5.8c-0.3,0.4,2.5-5.7,1.8-6.7c-1.7-2.3-4.5-2.2-5.8,0.3
				c-1.4,2.3-2.6,5.5-3.4,9c-2.4,2.7-5,5.9-8.4,7.7c-2.3,1.3-2.5-1.7-2-4.6c2.1-0.8,5.3-2.5,7.6-6.2c1.6-2.6,1.7-4.5,1-5.9
				c-1.5-2.7-5.3-4.9-8.9,0.2c-3,4.4-4.7,9.2-5.3,13.2c-1.9,1.6-4,3.4-5,4c-2.1,1.4,1.5-8,4.4-15.3c0.8-2-3.7-4.4-5.4-3
				c-1.8,1.4-6.2,6.6-6.2,6.6s1.4-11.2,3.6-19.4c0.6-1.9-3.8-3.2-5.4-0.2c-0.2,0.5-0.5,1.4-0.8,2.5c-2.1,0.2-4.2,0.5-6.2,0.7
				c0.6-3.5,1.3-6.7,1.9-9.8c0.4-1.8-4.9-3.8-5.6-1.4c-0.9,2.4-1.7,6.8-2.4,12.1c-4.6,0.9-9.7,2-16.6,4c-2.4,0.7-1.7,7.9,0.1,7.4
				c6.5-2.4,11.5-4.1,15.7-5.3c-0.7,4.9-1.3,10.3-1.8,15.7c-2.8,3-5.7,7.2-9.9,9.4c-2.5,1.3-2.6-1.6-2.1-4.5
				c2.1-0.8,5.3-2.5,7.6-6.2c1.6-2.6,1.7-4.5,1-5.9c-1.5-2.7-5.3-4.9-8.9,0.2C88.5,36.6,87,43.3,87,47.7c0,3.3,3.3,5.2,5.1,5.3
				c2.7,0.2,9.3-7.5,12.4-11.4c-0.3,2.2-0.5,4.5-0.8,6.8c-0.2,1.7,4.3,3.4,5.4,2.4l0,0l0.3-0.4l6.1-9.4c0,0.3-0.1,0.7-0.1,0.9
				c-0.7,5.2-1.7,7-0.6,7.3c1.7,0.5,4.1,0.6,4.7-0.2c0.9-1.3,1.6-8.3,2.8-12.3c2-4.3,5.1-5.4,5.1-5.4s-3.6,7.8-4,13.3
				c-0.2,3.2,2,3.5,5.3,3.5c0.8,0,3.4-2.6,5.9-5.2c0,0.2,0,0.3,0,0.5c0,3.3,3.3,5.2,5.1,5.3c2.3,0.2,7.4-5.4,10.8-9.5
				c-0.1,1-0.1,1.9,0,2.9c0.3,3.7,1.8,5.3,4.1,5.4c2.6,0.1,1.5-4.9,3.3-9.9c1.4-3.9,11.8-12.2,9.8-7.5c-0.8,1.9,1.7,2.6,3.3,0.6
				C172.9,27.3,170,20.8,163.7,26.4z M146.3,27.4c1.5-0.3,0.4,1.8-1,3.6c-1.4,1.8-3,3-4.3,3.8C142.7,30.3,144.9,27.7,146.3,27.4z
				 M98.6,31.9c1.5-0.3,0.4,1.8-1,3.6c-1.4,1.8-3,3-4.3,3.8C94.9,34.8,97.2,32.3,98.6,31.9z M115.6,36.3l-6.2,7.7
				c0.7-7.9,1.7-16.1,2.9-23.5c2-0.5,4.1-0.9,6-1.2C117.4,24.6,116.4,31.3,115.6,36.3z"/>
		</g>
		<g id="XMLID_2_">
			
				<linearGradient id="XMLID_9_" gradientUnits="userSpaceOnUse" x1="45.0702" y1="60.673" x2="45.0702" y2="-57.4332" gradientTransform="matrix(1 0 0 1 0 1.7802)">
				<stop  offset="0" style="stop-color:#FFFFFF"/>
				<stop  offset="1" style="stop-color:#CCCCCC"/>
			</linearGradient>
			<path id="XMLID_259_" class="st4" d="M84.8,43c-0.8-1.2-1.7-1.5-3-1.8c-0.6-0.2-2.6-0.4-2.9,0.2c-1,2-5.2,10.8-6.1,10.2
				c-1-0.7,0.3-6.9,2.2-12.3s7.8-11.9,7.1-8.4c-0.4,2.2-3.1,7.3-3.1,7.3s4.6,0.2,5.5-0.4c1-0.5,2.8-4.9,2.6-8
				c-0.3-3.1-3-4.3-5.3-4.7c-2.4-0.6-6.1,1.7-9.3,7.1c-3,4.9-4.4,9.7-5.1,13.5c-0.7,1.4-1.9,3.8-3.7,6.6c-1,0.9,0.2-6.1,1.4-8.4
				c0.5-1-1.6-3.3-2.6-3.2c0.1-0.5,0.2-0.9,0.2-1.3c0-1.4-1.3-2.8-3-3.8c-1.7-0.9-3.5,0.2-4.9,1.5c-3.6,3.5-7,11.9-6.5,18.3
				c0.3,4.1,5.1,6,6.1,4.4c2.2-3.9,3.1-6.4,3-5.6c0,0-0.2,0.7,0.5,3.3c0.2,0.9,0.7,1.4,1.4,1.6c1.7,0.7,2.7-0.8,3.9-2.2
				c1.2-1.5,2.4-3.7,3.6-5.7c0,1,0,1.7,0.1,2.3c0.3,2.1,3.6,4.4,5.7,4.4c2.1,0,5.5-7.7,5.5-7.7s-3,15.4-10.5,19.4
				c-1.8,1-3.6-0.2-2.5-1.9c0.4-0.7,1.6-1.5,1.9-1.9c0.5-0.5,0.7-0.8,0.7-1.5v-0.2l0,0l-0.1-0.9c-0.1-1.2-1.2-2-2.4-1.8
				C39.3,66.7,19.1,72.2,5.1,77.2c-1.4,0.5-1.9,1.7-2,3.1c-0.1,1.5-0.1,3.3,0,3.8c0.3,1.2,1.2,1.9,2.2,1.5
				C18.1,80.2,33.9,74.1,61,67c-2.7,3.4-0.7,8.9,6.9,7.9C79.4,73,86.2,45.1,84.8,43z M59.2,43.4l0.6,0.3c-2.1,3.9-5,9.6-5.7,9.4
				c-1-0.2-1.1-2.4,0.9-7.3c2.1-5.1,4.5-7,5.1-6.3C60.8,40.2,59.2,43.4,59.2,43.4z"/>
		</g>
		<g id="XMLID_1_">
			
				<linearGradient id="XMLID_10_" gradientUnits="userSpaceOnUse" x1="126.9726" y1="60.673" x2="126.9726" y2="-57.4332" gradientTransform="matrix(1 0 0 1 0 1.7802)">
				<stop  offset="0" style="stop-color:#FFFFFF"/>
				<stop  offset="1" style="stop-color:#CCCCCC"/>
			</linearGradient>
			<path id="XMLID_62_" class="st5" d="M169.8,49c-40.7,1.2-59.3,3.6-84.6,8c-0.2,0-0.4,0.2-0.5,0.4l-1.8,4
				c-0.1,0.2,0.1,0.4,0.3,0.3c24.8-5,51.9-9,86.8-10.4c0.6,0,1.3,0,1-1.2C170.7,49.3,170.3,49,169.8,49z"/>
		</g>
	</g>
</g>
<g id="XMLID_19_">
</g>
<g id="XMLID_20_">
</g>
<g id="XMLID_25_">
</g>
<g id="XMLID_27_">
</g>
<g id="XMLID_28_">
</g>
<g id="XMLID_30_">
</g>
</svg>
