<?xml version="1.0" encoding="utf-8"?>
<!-- Generator: Adobe Illustrator 19.0.0, SVG Export Plug-In . SVG Version: 6.00 Build 0)  -->
<svg version="1.1" id="레이어_1" xmlns="http://www.w3.org/2000/svg" xmlns:xlink="http://www.w3.org/1999/xlink" x="0px"
	 y="0px" viewBox="-207 466.9 176 90" style="enable-background:new -207 466.9 176 90;" xml:space="preserve">
<style type="text/css">
	.st0{fill:none;}
	.st1{fill:#222222;}
	.st2{fill:url(#XMLID_4_);}
	.st3{fill:url(#XMLID_6_);}
	.st4{fill:url(#XMLID_8_);}
	.st5{fill:url(#XMLID_9_);}
	.st6{fill:url(#XMLID_10_);}
</style>
<g id="XMLID_18_">
	<rect id="XMLID_157_" x="-98.7" y="538.5" class="st0" width="1.9" height="14.5"/>
	<path id="XMLID_156_" class="st1" d="M-82.5,544.8v-2.7h-3.4v-7.5h-4.9v22.2h1.8c0.9,0,1.6-0.3,2.2-0.9s0.9-1.3,0.9-2.2v-7.3h1.4
		c0.6,0,1-0.1,1.4-0.4C-82.7,545.7-82.5,545.3-82.5,544.8z"/>
	<path id="XMLID_153_" class="st1" d="M-103.6,555c0,0.5,0.1,1,0.4,1.2s0.7,0.4,1.3,0.4h8.3c0.5,0,1-0.1,1.3-0.4s0.4-0.7,0.4-1.2
		v-20.3h-11.7L-103.6,555L-103.6,555z M-98.7,538.5h1.9V553h-1.9V538.5z"/>
	<path id="XMLID_152_" class="st1" d="M-74,542.6h-0.8v-7.9h-9.5v2.3c0,0.5,0.1,0.8,0.4,1.1s0.6,0.4,1,0.4h3.4v6.7
		c0,2.6-0.4,4.5-1.3,5.7c-0.8,1.2-2,1.8-3.6,1.8v3.8c3.2,0,5.6-0.9,7.1-2.7c1.3-1.5,2.1-4,2.3-7.3h0.8v10.2h1.9
		c0.8,0,1.4-0.2,1.8-0.7c0.5-0.5,0.7-1,0.7-1.7v-19.7H-74V542.6z"/>
	<path id="XMLID_151_" class="st1" d="M-69,556.8h1.6c0.8,0,1.5-0.3,2-0.9s0.8-1.2,0.8-2v-19.3H-69V556.8z"/>
	<path id="XMLID_150_" class="st1" d="M-55.1,553H-58v-14.5h5.3c0.5,0,0.8-0.1,1.1-0.3c0.2-0.2,0.4-0.6,0.4-1v-2.4h-11.6v20.3
		c0,0.5,0.1,1,0.4,1.2c0.3,0.3,0.7,0.4,1.3,0.4h6c0.6,0,1.3,0,2.2-0.1c0.8-0.1,1.6-0.2,2.5-0.5v-3.8c-0.8,0.2-1.6,0.4-2.4,0.5
		C-53.7,552.9-54.4,553-55.1,553z"/>
	<path id="XMLID_149_" class="st1" d="M-49.6,543.3h-5.3v2.5c0,0.4,0.1,0.7,0.4,1c0.3,0.2,0.6,0.4,1,0.4h3.9v9.6h1.8
		c0.9,0,1.6-0.3,2.2-0.9s0.9-1.3,0.9-2.2v-19h-4.9L-49.6,543.3L-49.6,543.3z"/>
	<path id="XMLID_148_" class="st1" d="M-43.9,555.6c0,0.5,0.1,0.8,0.3,1s0.6,0.3,1,0.3h10.2c0.5,0,0.8-0.1,1-0.3s0.4-0.5,0.4-1v-2
		h-13v2H-43.9z"/>
</g>
<g>
	<path class="st1" d="M-33.6,515.3c-0.8-1.7-2.3-2.3-3.6-2.3h-0.1c-3.1,0.1-6,0.2-8.8,0.3c0.1-0.4,0.1-0.8,0.1-1.2l0-0.2
		c0.2-1.6,0.4-3.2,1-4.8c0.4-1.2,2.7-3.6,4.8-5.3c0.8,1,2.1,1.6,3.3,1.6c1.7,0,3.4-0.9,4.5-2.4c1.6-2.2,1.9-5.2,0.7-7.5
		c-0.6-1.1-1.3-2-2.2-2.4c-1.1-1.7-2.9-2.7-5-2.7c-1.9,0-3.8,0.8-6,2.6l0,0c-1.4-1.8-3.2-2.8-5.3-2.8c-2.2,0-4.1,1.2-5.3,3.1
		c-0.3-0.3-0.6-0.5-0.9-0.8c-1.6-2.2-3.8-3.4-6.2-3.4c-1.5,0-4.4,0.6-7,4.3c-0.3,0.4-0.5,0.8-0.7,1.1c-0.2-0.2-0.4-0.3-0.6-0.5
		c0-0.1-0.1-0.1-0.1-0.2c-1.4-2-4.5-3.4-7-3c0.5-2.3,1-4.7,1.6-6.8c0.4-1.3,0.1-2.6-0.8-3.7c-0.4-0.5-0.9-0.9-1.5-1.3
		c-0.1-0.2-0.2-0.4-0.4-0.6c-0.9-1.3-2.6-2-4.6-2c-1.2,0-2.3,0.3-3.3,0.9c0-0.1,0-0.1,0-0.2c0.2-1.1-0.1-2.3-0.9-3.5
		c-0.4-0.5-0.8-0.9-1.5-1.3c-0.1-0.2-0.3-0.4-0.5-0.6c-1.2-1.5-3.5-2.6-5.6-2.6c-2.3,0-4.1,1.2-4.7,3.1c-0.7,2-1.4,5.3-2.3,10.5
		c-3.9,0.8-8.4,1.9-14.8,3.7c-2.5,0.7-3.6,3.3-3.7,6c-1.1-0.6-2.3-1.1-3.6-1.3c-0.5-0.1-1-0.1-1.4-0.1c-3.7,0-7.8,3.1-11.1,8.5
		c-1.4,2.3-2.6,4.8-3.5,7.4c-0.5-0.8-1.3-1.6-2.2-2.4c-0.7-1.1-1.8-2-3.3-2.8c-1.7-1-3.8-1-6,0.2c-0.5-2.3-1.9-4.4-3.7-5.9
		c-1.1-1.4-2.3-2.4-3.7-3l-0.2-0.1l-0.2-0.1c-1.8-0.7-3.7-0.3-5,1c-0.6-2-1.8-3.9-3.6-5.1c-1-1.3-2.2-2.3-3.5-2.9l-0.8-0.4
		c-0.5-0.2-1.1-0.5-1.8-0.5c-1.7,0-3.2,0.9-4,2.5c-1.8,3.9-5.6,10.1-8.9,15.6c-9,14.7-17.2,28.6-18.4,37.6c-0.1,1.3,0.3,2.5,1.2,3.5
		c0,0,0,0,0,0c-1.3,1.1-2.1,2.8-2.1,4.7l0,0.2c-0.1,2.7-0.1,3.7,0,4.4c0.3,1.5,1.2,2.7,2.5,3.3c0.8,1.5,2.3,2.5,3.9,2.5
		c0.6,0,1.1-0.1,1.7-0.4c11.8-5,25.9-10.5,49.2-16.9l0,0c0.5,1.1,1.3,2,2.5,2.9c1.6,2.3,4.5,3.7,8,3.7c0.6,0,1.3,0,2.1-0.1
		c5.2-0.7,9.9-5.1,13.8-13c0.4,0.1,0.8,0.2,1.2,0.2h0.4l0.2,0c29-5.9,55.6-9.1,86.3-10.3c1.3,0,2.5-0.5,3.2-1.5
		c0.6-0.9,0.8-2,0.5-3.3C-31.7,516.9-32.5,515.8-33.6,515.3z M-185.7,535.2l-0.8,0.2c0.3-2,1.1-4.6,2.2-7.8c0.6,1,1.5,2,2.5,2.7
		c0.9,1.2,2.1,2.1,3.3,2.8C-181,533.9-183.4,534.6-185.7,535.2z M-168.8,530.7c0-0.3,0-0.6,0.1-0.9c0.2,0.3,0.5,0.5,0.8,0.7
		C-168.3,530.6-168.5,530.6-168.8,530.7z"/>
	<g id="XMLID_90_">
		<g id="XMLID_7_">
			
				<linearGradient id="XMLID_4_" gradientUnits="userSpaceOnUse" x1="-179.9658" y1="314.3168" x2="-179.9658" y2="432.423" gradientTransform="matrix(1 0 0 -1 0 843.67)">
				<stop  offset="0" style="stop-color:#FFFFFF"/>
				<stop  offset="1" style="stop-color:#CCCCCC"/>
			</linearGradient>
			<path id="XMLID_250_" class="st2" d="M-201.2,540.2l7.1-2.2c1.5-0.4,2.5-1.5,2.6-3.1c0.4-10,14-36.6,14-36.6
				c-3.6,11.4-6.4,23.7-4.6,27.5c1.9,3.8,8.4,5.2,8.4,3.5c0-3.6,2.5-17.8,8.5-25.3c0,0-3.1,15-2.7,19.1c0.3,4.1,1,4.9,3.3,6l1.8,0.6
				c0.8,0.2,1.6-0.4,1.5-1.3c-1.4-10,0.7-18.1,3.9-25.5c1.5-3.5-0.2-7.6-3.6-9.2l-0.3-0.2c-0.8-0.4-1.7,0-2.1,0.7
				c-4.4,8.5-8.4,15.3-10.5,23.4c0.5-8.9,1.9-15.6,4.1-23.1c0.9-3.3-0.7-6.7-3.7-8.2c-0.3-0.1-0.5-0.3-0.8-0.4c-0.8-0.4-1.7,0-2,0.7
				c-5.4,11.6-25.1,39.1-26.7,52.1C-203.2,539.7-202.3,540.5-201.2,540.2z"/>
		</g>
		<g id="XMLID_12_">
			
				<linearGradient id="XMLID_6_" gradientUnits="userSpaceOnUse" x1="-101.0335" y1="314.3168" x2="-101.0335" y2="432.423" gradientTransform="matrix(1 0 0 -1 0 843.67)">
				<stop  offset="0" style="stop-color:#FFFFFF"/>
				<stop  offset="1" style="stop-color:#CCCCCC"/>
			</linearGradient>
			<path id="XMLID_247_" class="st3" d="M-101.2,518c0.1-0.1,0.2-0.3,0.3-0.4L-101.2,518z"/>
		</g>
		<g id="XMLID_5_">
			
				<linearGradient id="XMLID_8_" gradientUnits="userSpaceOnUse" x1="-78.0134" y1="314.3168" x2="-78.0134" y2="432.423" gradientTransform="matrix(1 0 0 -1 0 843.67)">
				<stop  offset="0" style="stop-color:#FFFFFF"/>
				<stop  offset="1" style="stop-color:#CCCCCC"/>
			</linearGradient>
			<path id="XMLID_279_" class="st4" d="M-43.3,493.3c-3.6,3.2-4.5,4.3-5.7,5.8c-0.3,0.4,2.5-5.7,1.8-6.7c-1.7-2.3-4.5-2.2-5.8,0.3
				c-1.4,2.3-2.6,5.5-3.4,9c-2.4,2.7-5,5.9-8.4,7.7c-2.3,1.3-2.5-1.7-2-4.6c2.1-0.8,5.3-2.5,7.6-6.2c1.6-2.6,1.7-4.5,1-5.9
				c-1.5-2.7-5.3-4.9-8.9,0.2c-3,4.4-4.7,9.2-5.3,13.2c-1.9,1.6-4,3.4-5,4c-2.1,1.4,1.5-8,4.4-15.3c0.8-2-3.7-4.4-5.4-3
				c-1.8,1.4-6.2,6.6-6.2,6.6s1.4-11.2,3.6-19.4c0.6-1.9-3.8-3.2-5.4-0.2c-0.2,0.5-0.5,1.4-0.8,2.5c-2.1,0.2-4.2,0.5-6.2,0.7
				c0.6-3.5,1.3-6.7,1.9-9.8c0.4-1.8-4.9-3.8-5.6-1.4c-0.9,2.4-1.7,6.8-2.4,12.1c-4.6,0.9-9.7,2-16.6,4c-2.4,0.7-1.7,7.9,0.1,7.4
				c6.5-2.4,11.5-4.1,15.7-5.3c-0.7,4.9-1.3,10.3-1.8,15.7c-2.8,3-5.7,7.2-9.9,9.4c-2.5,1.3-2.6-1.6-2.1-4.5
				c2.1-0.8,5.3-2.5,7.6-6.2c1.6-2.6,1.7-4.5,1-5.9c-1.5-2.7-5.3-4.9-8.9,0.2c-4.1,5.8-5.6,12.5-5.6,16.9c0,3.3,3.3,5.2,5.1,5.3
				c2.7,0.2,9.3-7.5,12.4-11.4c-0.3,2.2-0.5,4.5-0.8,6.8c-0.2,1.7,4.3,3.4,5.4,2.4l0,0l0.3-0.4l6.1-9.4c0,0.3-0.1,0.7-0.1,0.9
				c-0.7,5.2-1.7,7-0.6,7.3c1.7,0.5,4.1,0.6,4.7-0.2c0.9-1.3,1.6-8.3,2.8-12.3c2-4.3,5.1-5.4,5.1-5.4s-3.6,7.8-4,13.3
				c-0.2,3.2,2,3.5,5.3,3.5c0.8,0,3.4-2.6,5.9-5.2c0,0.2,0,0.3,0,0.5c0,3.3,3.3,5.2,5.1,5.3c2.3,0.2,7.4-5.4,10.8-9.5
				c-0.1,1-0.1,1.9,0,2.9c0.3,3.7,1.8,5.3,4.1,5.4c2.6,0.1,1.5-4.9,3.3-9.9c1.4-3.9,11.8-12.2,9.8-7.5c-0.8,1.9,1.7,2.6,3.3,0.6
				C-34.1,494.2-37,487.7-43.3,493.3z M-60.7,494.3c1.5-0.3,0.4,1.8-1,3.6c-1.4,1.8-3,3-4.3,3.8C-64.3,497.2-62.1,494.6-60.7,494.3z
				 M-108.4,498.8c1.5-0.3,0.4,1.8-1,3.6c-1.4,1.8-3,3-4.3,3.8C-112.1,501.7-109.8,499.2-108.4,498.8z M-91.4,503.2l-6.2,7.7
				c0.7-7.9,1.7-16.1,2.9-23.5c2-0.5,4.1-0.9,6-1.2C-89.6,491.5-90.6,498.2-91.4,503.2z"/>
		</g>
		<g id="XMLID_2_">
			
				<linearGradient id="XMLID_9_" gradientUnits="userSpaceOnUse" x1="-162.0419" y1="314.3168" x2="-162.0419" y2="432.423" gradientTransform="matrix(1 0 0 -1 0 843.67)">
				<stop  offset="0" style="stop-color:#FFFFFF"/>
				<stop  offset="1" style="stop-color:#CCCCCC"/>
			</linearGradient>
			<path id="XMLID_259_" class="st5" d="M-122.2,509.9c-0.8-1.2-1.7-1.5-3-1.8c-0.6-0.2-2.6-0.4-2.9,0.2c-1,2-5.2,10.8-6.1,10.2
				c-1-0.7,0.3-6.9,2.2-12.3c1.9-5.4,7.8-11.9,7.1-8.4c-0.4,2.2-3.1,7.3-3.1,7.3s4.6,0.2,5.5-0.4c1-0.5,2.8-4.9,2.6-8
				c-0.3-3.1-3-4.3-5.3-4.7c-2.4-0.6-6.1,1.7-9.3,7.1c-3,4.9-4.4,9.7-5.1,13.5c-0.7,1.4-1.9,3.8-3.7,6.6c-1,0.9,0.2-6.1,1.4-8.4
				c0.5-1-1.6-3.3-2.6-3.2c0.1-0.5,0.2-0.9,0.2-1.3c0-1.4-1.3-2.8-3-3.8c-1.7-0.9-3.5,0.2-4.9,1.5c-3.6,3.5-7,11.9-6.5,18.3
				c0.3,4.1,5.1,6,6.1,4.4c2.2-3.9,3.1-6.4,3-5.6c0,0-0.2,0.7,0.5,3.3c0.2,0.9,0.7,1.4,1.4,1.6c1.7,0.7,2.7-0.8,3.9-2.2
				c1.2-1.5,2.4-3.7,3.6-5.7c0,1,0,1.7,0.1,2.3c0.3,2.1,3.6,4.4,5.7,4.4c2.1,0,5.5-7.7,5.5-7.7s-3,15.4-10.5,19.4
				c-1.8,1-3.6-0.2-2.5-1.9c0.4-0.7,1.6-1.5,1.9-1.9c0.5-0.5,0.7-0.8,0.7-1.5v-0.2l0,0l-0.1-0.9c-0.1-1.2-1.2-2-2.4-1.8
				c-25.9,5.3-46.1,10.8-60.1,15.8c-1.4,0.5-1.9,1.7-2,3.1c-0.1,1.5-0.1,3.3,0,3.8c0.3,1.2,1.2,1.9,2.2,1.5
				c12.8-5.4,28.6-11.5,55.7-18.6c-2.7,3.4-0.7,8.9,6.9,7.9C-127.6,539.9-120.8,512-122.2,509.9z M-147.8,510.3l0.6,0.3
				c-2.1,3.9-5,9.6-5.7,9.4c-1-0.2-1.1-2.4,0.9-7.3c2.1-5.1,4.5-7,5.1-6.3C-146.2,507.1-147.8,510.3-147.8,510.3z"/>
		</g>
		<g id="XMLID_1_">
			
				<linearGradient id="XMLID_10_" gradientUnits="userSpaceOnUse" x1="-80.0379" y1="314.3168" x2="-80.0379" y2="432.423" gradientTransform="matrix(1 0 0 -1 0 843.67)">
				<stop  offset="0" style="stop-color:#FFFFFF"/>
				<stop  offset="1" style="stop-color:#CCCCCC"/>
			</linearGradient>
			<path id="XMLID_62_" class="st6" d="M-37.2,515.9c-40.7,1.2-59.3,3.6-84.6,8c-0.2,0-0.4,0.2-0.5,0.4l-1.8,4
				c-0.1,0.2,0.1,0.4,0.3,0.3c24.8-5,51.9-9,86.8-10.4c0.6,0,1.3,0,1-1.2C-36.3,516.2-36.7,515.9-37.2,515.9z"/>
		</g>
	</g>
</g>
<g id="XMLID_19_">
</g>
<g id="XMLID_20_">
</g>
<g id="XMLID_25_">
</g>
<g id="XMLID_27_">
</g>
<g id="XMLID_28_">
</g>
<g id="XMLID_30_">
</g>
</svg>
