<?xml version="1.0" encoding="utf-8"?>
<!-- Generator: Adobe Illustrator 19.0.0, SVG Export Plug-In . SVG Version: 6.00 Build 0)  -->
<svg version="1.1" id="레이어_1" xmlns="http://www.w3.org/2000/svg" xmlns:xlink="http://www.w3.org/1999/xlink" x="0px"
	 y="0px" viewBox="0 0 179.5 90.9" style="enable-background:new 0 0 179.5 90.9;" xml:space="preserve">
<style type="text/css">
	.st0{fill:none;}
	.st1{fill:url(#XMLID_95_);}
	.st2{fill:url(#XMLID_96_);}
	.st3{fill:url(#XMLID_97_);}
	.st4{fill:url(#XMLID_98_);}
	.st5{fill:url(#XMLID_99_);}
</style>
<g>
	<rect x="111.2" y="70.4" class="st0" width="1.9" height="14.5"/>
	<path d="M127.4,76.7v-2.7H124v-7.5h-4.9v22.2h1.8c0.9,0,1.6-0.3,2.2-0.9s0.9-1.3,0.9-2.2v-7.3h1.4c0.6,0,1-0.1,1.4-0.4
		C127.2,77.6,127.4,77.3,127.4,76.7z"/>
	<path d="M106.3,87c0,0.5,0.1,1,0.4,1.2s0.7,0.4,1.3,0.4h8.3c0.5,0,1-0.1,1.3-0.4s0.4-0.7,0.4-1.2V66.6h-11.7V87z M111.2,70.4h1.9
		v14.5h-1.9V70.4z"/>
	<path d="M135.9,74.5h-0.8v-7.9h-9.5v2.3c0,0.5,0.1,0.8,0.4,1.1c0.3,0.3,0.6,0.4,1,0.4h3.4v6.7c0,2.6-0.4,4.5-1.3,5.7
		c-0.8,1.2-2,1.8-3.6,1.8v3.8c3.2,0,5.6-0.9,7.1-2.7c1.3-1.5,2.1-4,2.3-7.3h0.8v10.2h1.9c0.8,0,1.4-0.2,1.8-0.7
		c0.5-0.5,0.7-1,0.7-1.7V66.6h-4.4V74.5z"/>
	<path d="M140.9,88.7h1.6c0.8,0,1.5-0.3,2-0.9c0.5-0.6,0.8-1.2,0.8-2V66.6h-4.5V88.7z"/>
	<path d="M154.8,84.9h-2.9V70.4l5.3,0c0.5,0,0.8-0.1,1.1-0.3c0.2-0.2,0.4-0.6,0.4-1v-2.4H147V87c0,0.5,0.1,1,0.4,1.2
		c0.3,0.3,0.7,0.4,1.3,0.4h6c0.6,0,1.3,0,2.2-0.1c0.8-0.1,1.6-0.2,2.5-0.5v-3.8c-0.8,0.2-1.6,0.4-2.4,0.5
		C156.2,84.9,155.5,84.9,154.8,84.9z"/>
	<path d="M160.3,75.3H155v2.5c0,0.4,0.1,0.7,0.4,1c0.3,0.2,0.6,0.4,1,0.4h3.9v9.6h1.8c0.9,0,1.6-0.3,2.2-0.9s0.9-1.3,0.9-2.2v-19
		h-4.9V75.3z"/>
	<path d="M165.4,88.5c0,0.5,0.1,0.8,0.3,1c0.2,0.2,0.6,0.3,1,0.3H177c0.5,0,0.8-0.1,1-0.3c0.2-0.2,0.4-0.5,0.4-1v-2h-13V88.5z"/>
	<path d="M176.8,49.7c-0.6-1.6-1.9-2.1-2.9-2.1h0l-0.1,0c-3.6,0.1-7,0.2-10.3,0.3c0.2-0.8,0.3-1.5,0.3-2.3c0.2-1.7,0.4-3.6,1.1-5.4
		c0.6-1.8,3.9-5,6.2-6.7c0.1,0.2,0.2,0.5,0.3,0.7c0.6,0.9,1.7,1.5,2.8,1.5c1.4,0,2.8-0.7,3.8-2.1c1.4-1.9,1.7-4.6,0.6-6.7
		c-0.5-1-1.2-1.8-2.1-2.2c-0.9-1.6-2.5-2.6-4.4-2.6c-1.9,0-3.9,1-6,2.8c-0.1,0.1-0.2,0.1-0.2,0.2c-0.2-0.2-0.5-0.4-0.7-0.5
		c0-0.1-0.1-0.2-0.1-0.3c-1.2-1.6-2.8-2.5-4.6-2.5c-2,0-3.7,1.1-4.8,3c-0.2,0.3-0.4,0.7-0.5,1c-0.5-0.7-1.1-1.3-1.9-1.9
		c-1.2-1.7-3.1-3.2-5.7-3.2c-1.6,0-4.1,0.7-6.4,4c-0.5,0.7-0.9,1.4-1.4,2.2c-0.4-0.5-1-1-1.6-1.4c-0.1-0.1-0.1-0.2-0.2-0.3
		c-1.1-1.6-3.5-2.8-5.6-2.8c-0.8,0-1.5,0.2-2.1,0.5c0.5-2.9,1.2-6,2-8.8c0.3-1,0.1-2-0.6-2.9c-0.4-0.5-0.9-0.9-1.6-1.2
		c-0.1-0.3-0.2-0.5-0.4-0.8c-0.8-1.1-2.3-1.7-3.9-1.7c-2.1,0-3.9,1.1-4.8,2.9c-0.2,0.3-0.3,0.7-0.5,1.3c0.3-1.6,0.6-3.2,1-4.7
		c0.2-0.9-0.1-1.9-0.7-2.8c-0.4-0.5-0.9-0.9-1.5-1.3c-0.1-0.2-0.3-0.5-0.5-0.7c-1.1-1.3-3.1-2.2-5.1-2.2h0c-1.9,0-3.4,0.9-3.9,2.5
		c-0.8,2.2-1.5,6-2.4,11.4c-4.6,0.9-9.7,2.2-15.9,3.9C89,18.6,88.3,22,88.7,25c0,0,0,0.1,0,0.1c-1.1-1-2.7-2-5.1-2.5
		c-0.4-0.1-0.8-0.1-1.2-0.1h0c-3.5,0-7.4,3.1-10.6,8.3c-2.2,3.7-3.6,7.3-4.5,10.3c0,0,0,0,0,0c-0.1-1.8-1.2-3.5-3-4.9
		c-0.7-1.1-1.8-2-3.1-2.7c-0.7-0.4-1.5-0.6-2.3-0.6c-1.3,0-2.7,0.6-4.1,1.6c-0.2-2.7-1.6-5.3-3.8-7c-0.9-1.2-2.1-2.3-3.6-2.9
		L47,24.6c-0.5-0.2-1-0.3-1.5-0.3c-1.4,0-2.6,0.8-3.3,2c-0.2,0.4-0.4,0.8-0.6,1.2c0-2.9-1.4-5.7-3.8-7.4c-0.9-1.2-2-2.2-3.4-2.8
		L34,17l-0.4-0.2c-0.5-0.2-1-0.4-1.5-0.4c-1.4,0-2.6,0.8-3.2,2c-1.8,3.9-5.4,9.9-9.2,16.2C11.6,48.2,2.4,63.5,1.2,72.8
		c-0.1,1,0.2,2,0.9,2.8c0.3,0.3,0.6,0.6,1,0.8c-1.7,0.8-2.9,2.6-2.9,4.8l0,0.2c-0.1,2.7-0.1,3.7,0,4.3c0.3,1.4,1.2,2.5,2.3,2.9
		c0.7,1.4,1.9,2.3,3.3,2.3c0.5,0,0.9-0.1,1.4-0.3C19.6,85.3,34.5,79.6,58.9,73c0.1,0.3,0.2,0.5,0.3,0.8c0.5,1.1,1.4,2,2.4,2.7
		c1.4,2.2,4.1,3.5,7.5,3.5c0.6,0,1.3,0,2-0.1C77.6,79,82.2,72,85.1,66c0.4,0.5,1,0.7,1.6,0.7c0.2,0,0.3,0,0.4,0
		c29.9-6.1,57.4-9.4,89.1-10.7c0.5,0,1.7-0.1,2.5-1.1c0.5-0.7,0.6-1.6,0.4-2.6C178.7,50.8,177.8,50,176.8,49.7z M19,71.2
		c0.2-3,1.6-7.6,3.4-12.4c0.1,0.8,0.3,1.4,0.6,2c0.6,1.2,1.6,2.3,2.7,3.1c1.4,1.9,3.7,3.3,5.7,3.9C27.1,68.9,23,70,19,71.2z
		 M37.3,66.2c0.1-0.3,0.1-0.5,0.1-0.8c0-0.9,0.2-2.6,0.5-4.7c0.5,1.7,1.3,2.7,2.6,3.6c0.2,0.4,0.4,0.7,0.7,1
		C40,65.5,38.6,65.9,37.3,66.2z M50,63.1c-0.1-0.5-0.1-1.1-0.1-1.6c0.4,0.5,0.8,1,1.2,1.4C50.7,63,50.4,63,50,63.1z M71.8,63.8
		C71.4,63,70.8,62.4,70,62c-0.4-1-1.2-1.7-2.2-2.1c0.3-0.4,0.7-0.9,1-1.5c1.1,1.4,2.7,2.5,4.3,3.2C72.7,62.4,72.3,63.1,71.8,63.8z
		 M88.9,55.4c0.1-0.5,0.3-0.9,0.4-1.4c0,0,0,0,0,0c0.3,0.4,0.6,0.8,1,1.1C89.9,55.3,89.4,55.4,88.9,55.4z M104.9,52.9
		c-0.8,0.1-1.7,0.2-2.5,0.4c0.6-0.6,1.3-1.3,2-2c0.3,0.3,0.6,0.6,1,0.9L104.9,52.9z M105.5,29.7c-0.3-0.4-0.7-0.7-1.2-1
		c-0.1-0.2-0.3-0.4-0.5-0.6c0.7-0.2,1.3-0.4,1.9-0.6C105.7,28.2,105.6,28.9,105.5,29.7z M126,50.3c0-0.2,0.1-0.4,0.1-0.6
		c0.1,0.2,0.2,0.4,0.3,0.6C126.3,50.2,126.2,50.2,126,50.3z M137.8,49.3c0.1-0.1,0.2-0.2,0.3-0.3c0.1,0.1,0.2,0.2,0.3,0.2
		C138.1,49.2,137.9,49.2,137.8,49.3z M151.6,48.4c0.4-0.4,0.9-0.9,1.4-1.4c0.3,0.5,0.7,1,1.1,1.3C153.3,48.3,152.5,48.4,151.6,48.4z
		"/>
	<g>
		<g id="XMLID_7_">
			<linearGradient id="XMLID_95_" gradientUnits="userSpaceOnUse" x1="26.9503" y1="57.2511" x2="26.9503" y2="-97.4673">
				<stop  offset="0" style="stop-color:#FFFFFF"/>
				<stop  offset="1" style="stop-color:#000000"/>
			</linearGradient>
			<path id="XMLID_30_" class="st1" d="M5,74.8l7.3-2.3c1.5-0.4,2.6-1.6,2.7-3.2c0.5-10.4,14.5-37.9,14.5-37.9
				c-3.7,11.9-6.6,24.5-4.7,28.4c2,3.9,8.6,5.4,8.6,3.6c0-3.7,2.6-18.4,8.8-26.1c0,0-3.2,15.5-2.8,19.7c0.3,4.2,1,5.1,3.4,6.2
				l1.9,0.6c0.8,0.2,1.6-0.4,1.5-1.3c-1.4-10.3,0.7-18.7,4-26.4c1.5-3.6-0.2-7.9-3.7-9.5l-0.3-0.2c-0.8-0.4-1.8,0-2.2,0.7
				c-4.5,8.8-8.6,15.8-10.8,24.2c0.5-9.2,2-16.1,4.2-23.9c0.9-3.4-0.7-6.9-3.8-8.5c-0.3-0.1-0.5-0.3-0.8-0.4c-0.8-0.4-1.7,0-2.1,0.7
				C25.1,31.3,4.9,59.6,3.1,73.1C3,74.1,4,75,5,74.8z"/>
		</g>
		<g id="XMLID_12_">
			<linearGradient id="XMLID_96_" gradientUnits="userSpaceOnUse" x1="108.1738" y1="57.2511" x2="108.1738" y2="-97.4673">
				<stop  offset="0" style="stop-color:#FFFFFF"/>
				<stop  offset="1" style="stop-color:#000000"/>
			</linearGradient>
			<path id="XMLID_27_" class="st2" d="M108,51.7c0.1-0.1,0.2-0.3,0.3-0.4L108,51.7z"/>
		</g>
		<g id="XMLID_5_">
			<linearGradient id="XMLID_97_" gradientUnits="userSpaceOnUse" x1="131.8034" y1="57.2511" x2="131.8034" y2="-97.4386">
				<stop  offset="0" style="stop-color:#FFFFFF"/>
				<stop  offset="1" style="stop-color:#000000"/>
			</linearGradient>
			<path id="XMLID_59_" class="st3" d="M167.7,26.3c-3.7,3.3-4.6,4.4-5.9,6c-0.3,0.4,2.6-5.9,1.9-6.9c-1.7-2.4-4.6-2.3-6,0.3
				c-1.4,2.4-2.7,5.7-3.5,9.3c-2.5,2.8-5.1,6.1-8.6,8c-2.4,1.3-2.6-1.8-2.1-4.8c2.2-0.8,5.5-2.6,7.8-6.4c1.6-2.7,1.8-4.7,1-6.1
				c-1.5-2.8-5.5-5.1-9.2,0.2c-3.1,4.5-4.8,9.5-5.5,13.6c-2,1.7-4.1,3.5-5.2,4.1c-2.2,1.4,1.5-8.3,4.5-15.8c0.8-2.1-3.8-4.5-5.6-3.1
				c-1.9,1.4-6.4,6.8-6.4,6.8s1.4-11.6,3.7-20c0.6-2-3.9-3.3-5.6-0.2c-0.2,0.5-0.5,1.4-0.8,2.6c-2.2,0.2-4.3,0.5-6.4,0.7
				c0.6-3.6,1.3-6.9,2-10.1c0.4-1.9-5-3.9-5.8-1.4c-0.9,2.5-1.7,7-2.5,12.5c-4.7,0.9-10,2.1-17.1,4.1c-2.5,0.7-1.7,8.2,0.1,7.6
				c6.7-2.5,11.8-4.2,16.2-5.5c-0.7,5.1-1.3,10.6-1.9,16.2c-2.9,3.1-5.9,7.4-10.2,9.7C94,49,93.8,45.9,94.3,43
				c2.2-0.8,5.5-2.6,7.8-6.4c1.6-2.7,1.8-4.7,1-6.1c-1.5-2.8-5.5-5.1-9.2,0.2c-4.2,6-5.8,12.9-5.8,17.5c0,3.4,3.4,5.4,5.3,5.5
				c2.8,0.2,9.6-7.8,12.8-11.8c-0.3,2.3-0.5,4.7-0.8,7c-0.2,1.8,4.4,3.5,5.6,2.5v0l0.3-0.4l6.3-9.7c0,0.3-0.1,0.7-0.1,0.9
				c-0.7,5.4-1.7,7.2-0.6,7.5c1.8,0.5,4.2,0.6,4.8-0.2c0.9-1.3,1.6-8.6,2.9-12.7c2.1-4.4,5.3-5.6,5.3-5.6s-3.7,8.1-4.1,13.7
				c-0.2,3.3,2.1,3.6,5.5,3.6c0.8,0,3.5-2.7,6.1-5.4c0,0.2,0,0.3,0,0.5c0,3.4,3.4,5.4,5.3,5.5c2.4,0.2,7.6-5.6,11.1-9.8
				c-0.1,1-0.1,2,0,3c0.3,3.8,1.9,5.5,4.2,5.6c2.7,0.1,1.5-5.1,3.4-10.2c1.4-4,12.2-12.6,10.1-7.7c-0.8,2,1.8,2.7,3.4,0.6
				C177.1,27.1,174.1,20.5,167.7,26.3z M149.8,27.2c1.5-0.3,0.4,1.9-1,3.7c-1.4,1.9-3.1,3.1-4.4,3.9C146,30.3,148.3,27.6,149.8,27.2
				z M100.6,32c1.5-0.3,0.4,1.9-1,3.7c-1.4,1.9-3.1,3.1-4.4,3.9C96.9,35,99.2,32.3,100.6,32z M118.2,36.5l-6.4,8
				c0.7-8.2,1.8-16.6,3-24.3c2.1-0.5,4.2-0.9,6.2-1.2C120,24.3,118.9,31.3,118.2,36.5z"/>
		</g>
		<g id="XMLID_2_">
			<linearGradient id="XMLID_98_" gradientUnits="userSpaceOnUse" x1="45.3475" y1="57.2511" x2="45.3475" y2="-97.4673">
				<stop  offset="0" style="stop-color:#FFFFFF"/>
				<stop  offset="1" style="stop-color:#000000"/>
			</linearGradient>
			<path id="XMLID_39_" class="st4" d="M86.3,43.3c-0.8-1.2-1.8-1.6-3.1-1.9c-0.6-0.2-2.7-0.4-3,0.2c-1,2.1-5.4,11.2-6.3,10.5
				c-1-0.7,0.3-7.1,2.3-12.7c2-5.6,8-12.3,7.3-8.7c-0.4,2.3-3.2,7.5-3.2,7.5s4.7,0.2,5.7-0.4c1-0.5,2.9-5.1,2.7-8.3
				c-0.3-3.2-3.1-4.4-5.5-4.9c-2.5-0.6-6.3,1.8-9.6,7.3c-3.1,5.1-4.5,10-5.3,13.9c-0.7,1.4-2,3.9-3.8,6.8c-1,0.9,0.2-6.3,1.4-8.7
				c0.5-1-1.6-3.4-2.7-3.3c0.1-0.5,0.2-0.9,0.2-1.3c0-1.4-1.3-2.9-3.1-3.9c-1.7-0.9-3.6,0.2-5,1.5c-3.7,3.6-7.2,12.3-6.7,18.9
				c0.3,4.2,5.3,6.2,6.3,4.5c2.3-4,3.2-6.6,3.1-5.8c0,0-0.2,0.7,0.5,3.4c0.2,0.9,0.7,1.4,1.4,1.7c1.7,0.7,2.8-0.8,4-2.3
				c1.2-1.5,2.5-3.8,3.7-5.9c0,1,0,1.8,0.1,2.4c0.3,2.2,3.7,4.5,5.9,4.5c2.2,0,5.7-8,5.7-8S76,66,68.3,70.2c-1.9,1-3.7-0.2-2.6-2
				c0.4-0.7,1.6-1.6,2-2c0.5-0.5,0.7-0.8,0.7-1.6l0-0.2c0,0,0,0,0,0l-0.1-0.9c-0.1-1.2-1.2-2.1-2.5-1.9
				C39.4,67.2,18.6,72.9,4.2,78.1c-1.4,0.5-2,1.8-2.1,3.2c-0.1,1.5-0.1,3.4,0,3.9c0.3,1.2,1.2,2,2.3,1.6
				c13.2-5.6,29.5-11.9,57.4-19.2c-2.8,3.5-0.7,9.2,7.1,8.2C80.9,74.3,87.9,45.5,86.3,43.3z M60.1,43.9l0.6,0.3
				c-2.2,4-5.2,9.9-5.9,9.7c-1-0.2-1.1-2.5,0.9-7.5c2.2-5.3,4.6-7.2,5.3-6.5C61.7,40.5,60.1,43.9,60.1,43.9z"/>
		</g>
		<g id="XMLID_1_">
			<linearGradient id="XMLID_99_" gradientUnits="userSpaceOnUse" x1="129.834" y1="57.2511" x2="129.834" y2="-97.4673">
				<stop  offset="0" style="stop-color:#FFFFFF"/>
				<stop  offset="1" style="stop-color:#000000"/>
			</linearGradient>
			<path id="XMLID_25_" class="st5" d="M173.9,49.6c-41.9,1.2-61.1,3.7-87.1,8.3c-0.2,0-0.4,0.2-0.5,0.4l-1.9,4.1
				c-0.1,0.2,0.1,0.4,0.3,0.3c25.5-5.2,53.4-9.3,89.4-10.7c0.6,0,1.3,0,1-1.2C174.9,50,174.4,49.5,173.9,49.6z"/>
		</g>
	</g>
</g>
<g id="XMLID_86_">
</g>
<g id="XMLID_89_">
</g>
<g id="XMLID_90_">
</g>
<g id="XMLID_91_">
</g>
<g id="XMLID_92_">
</g>
<g id="XMLID_93_">
</g>
</svg>
